{"glyphs":{"0":{"ha":1693,"x_min":68,"x_max":1625,"o":"m 849 1557 q 1009 1394 963 1488 q 1223 1451 1130 1451 l 1240 1451 q 1297 1229 1297 1333 q 1522 1169 1406 1229 q 1462 941 1522 1059 l 1465 941 q 1625 781 1563 881 l 1625 773 q 1462 613 1560 669 q 1522 388 1522 500 q 1297 328 1409 328 q 1237 103 1297 211 q 1009 163 1131 103 q 849 0 951 62 q 681 163 767 35 q 458 103 571 103 q 396 328 396 211 q 174 385 290 328 l 174 401 q 231 613 174 504 l 231 616 q 68 779 130 671 q 182 911 83 821 q 231 947 231 938 q 174 1153 174 1051 l 174 1166 q 374 1226 271 1226 l 382 1226 q 399 1253 399 1226 q 458 1451 399 1353 l 472 1451 q 681 1394 570 1451 l 684 1394 q 849 1557 755 1510 m 372 1077 l 372 491 l 637 491 q 849 597 803 491 q 860 678 860 628 q 765 808 860 762 l 760 808 l 760 814 q 833 939 833 842 q 722 1069 833 1041 q 600 1077 677 1077 l 372 1077 m 990 1036 l 990 979 l 1229 979 l 1229 1036 l 990 1036 m 505 977 l 616 977 q 708 911 708 977 l 708 898 q 618 841 708 841 l 505 841 l 499 846 l 499 971 l 505 977 m 898 703 q 996 513 898 582 q 1128 480 1044 480 q 1305 602 1248 480 l 1313 624 l 1210 624 q 1120 567 1182 567 q 1020 635 1044 567 l 1015 673 l 1017 675 l 1321 675 l 1321 705 q 1234 890 1321 814 q 1118 928 1174 928 q 925 817 998 928 q 898 703 898 754 m 1115 838 q 1202 768 1182 838 l 1204 751 l 1202 749 l 1020 749 l 1017 751 l 1015 751 q 1085 836 1015 810 l 1115 838 m 505 751 l 613 751 q 724 716 705 751 l 732 675 l 732 659 q 646 591 732 600 l 505 591 l 499 597 l 499 746 l 505 751 z "},"1":{"ha":1693,"x_min":68,"x_max":1625,"o":"m 846 1557 l 1072 1332 l 1308 1329 l 1392 1329 l 1397 1324 l 1397 1009 l 1625 779 l 1400 551 l 1400 534 l 1397 231 l 1394 228 l 1077 228 l 846 0 l 618 225 l 602 225 l 298 228 l 296 231 l 296 551 l 68 779 l 293 1004 l 296 1234 l 296 1324 l 301 1329 l 616 1329 l 846 1557 m 372 1077 l 372 491 l 637 491 q 849 597 803 491 q 860 678 860 628 q 765 808 860 762 l 760 808 l 760 814 q 833 939 833 842 q 722 1069 833 1041 q 600 1077 677 1077 l 372 1077 m 990 1036 l 990 979 l 1229 979 l 1229 1036 l 990 1036 m 505 977 l 616 977 q 708 911 708 977 l 708 898 q 618 841 708 841 l 505 841 l 499 846 l 499 971 l 505 977 m 898 703 q 996 513 898 582 q 1128 480 1044 480 q 1305 602 1248 480 l 1313 624 l 1210 624 q 1120 567 1182 567 q 1020 635 1044 567 l 1015 673 l 1017 675 l 1321 675 l 1321 705 q 1234 890 1321 814 q 1118 928 1174 928 q 925 817 998 928 q 898 703 898 754 m 1115 838 q 1202 768 1182 838 l 1204 751 l 1202 749 l 1020 749 l 1017 751 l 1015 751 q 1085 836 1015 810 l 1115 838 m 505 751 l 613 751 q 724 716 705 751 l 732 675 l 732 659 q 646 591 732 600 l 505 591 l 499 597 l 499 746 l 505 751 z "},"2":{"ha":1487,"x_min":68,"x_max":1419,"o":"m 746 1557 l 1419 1166 l 1419 391 q 765 11 1407 380 q 741 0 751 0 l 68 391 l 68 1164 q 537 1438 84 1180 q 746 1557 711 1541 m 269 1077 l 269 491 l 534 491 q 746 597 700 491 q 757 678 757 628 q 662 808 757 762 l 656 808 l 656 814 q 730 939 730 842 q 618 1069 730 1041 q 496 1077 574 1077 l 269 1077 m 887 1036 l 887 979 l 1126 979 l 1126 1036 l 887 1036 m 401 977 l 513 977 q 605 911 605 977 l 605 898 q 515 841 605 841 l 401 841 l 396 846 l 396 971 l 401 977 m 795 703 q 892 513 795 582 q 1025 480 941 480 q 1202 602 1145 480 l 1210 624 l 1107 624 q 1017 567 1079 567 q 917 635 941 567 l 911 673 l 914 675 l 1218 675 l 1218 705 q 1131 890 1218 814 q 1015 928 1071 928 q 822 817 895 928 q 795 703 795 754 m 1012 838 q 1099 768 1079 838 l 1101 751 l 1099 749 l 917 749 l 914 751 l 911 751 q 982 836 911 810 l 1012 838 m 401 751 l 510 751 q 621 716 602 751 l 629 675 l 629 659 q 543 591 629 600 l 401 591 l 396 597 l 396 746 l 401 751 z "},"3":{"ha":1698,"x_min":68,"x_max":1630,"o":"m 73 1563 l 1625 1563 l 1630 1557 l 1630 5 l 1625 0 l 73 0 l 68 5 l 68 1557 l 73 1563 m 412 925 l 412 605 q 429 442 412 442 q 529 334 458 375 q 597 309 551 319 l 825 307 l 882 307 l 1101 309 q 1223 374 1156 314 q 1286 518 1286 435 l 1286 711 q 1256 806 1286 790 l 1169 830 q 1142 909 1142 849 q 1120 1128 1142 1088 q 920 1253 1048 1253 l 833 1256 l 716 1256 q 553 1240 553 1256 q 415 1036 415 1179 l 412 925 m 743 1039 l 909 1036 q 963 963 963 1019 q 909 892 963 910 l 741 892 q 648 911 661 892 q 627 966 627 939 q 694 1036 635 1036 l 743 1039 m 686 673 l 963 673 q 1050 646 1050 673 q 1069 600 1069 635 l 1069 589 q 1009 529 1056 529 l 985 526 l 686 526 q 627 591 641 526 l 627 597 q 686 673 643 673 z "},"4":{"ha":1698,"x_min":68,"x_max":1630,"o":"m 298 1563 l 1408 1563 q 1619 1438 1567 1563 q 1630 1343 1630 1401 l 1630 220 q 1557 43 1630 90 q 1416 0 1512 0 l 285 0 q 73 146 118 0 l 68 231 l 68 1340 q 206 1554 68 1508 q 298 1563 238 1563 m 412 925 l 412 605 q 429 442 412 442 q 529 334 458 375 q 597 309 551 319 l 825 307 l 882 307 l 1101 309 q 1223 374 1156 314 q 1286 518 1286 435 l 1286 711 q 1256 806 1286 790 l 1169 830 q 1142 909 1142 849 q 1120 1128 1142 1088 q 920 1253 1048 1253 l 833 1256 l 716 1256 q 553 1240 553 1256 q 415 1036 415 1179 l 412 925 m 743 1039 l 909 1036 q 963 963 963 1019 q 909 892 963 910 l 741 892 q 648 911 661 892 q 627 966 627 939 q 694 1036 635 1036 l 743 1039 m 686 673 l 963 673 q 1050 646 1050 673 q 1069 600 1069 635 l 1069 589 q 1009 529 1056 529 l 985 526 l 686 526 q 627 591 641 526 l 627 597 q 686 673 643 673 z "},"5":{"ha":1698,"x_min":68,"x_max":1630,"o":"m 849 1563 q 1438 1294 1183 1563 q 1630 784 1630 1061 q 1343 176 1630 429 q 852 0 1113 0 q 231 304 488 0 q 68 781 68 530 q 239 1267 68 1036 q 662 1538 390 1461 q 849 1563 709 1554 m 412 925 l 412 605 q 429 442 412 442 q 529 334 458 375 q 597 309 551 319 l 825 307 l 882 307 l 1101 309 q 1223 374 1156 314 q 1286 518 1286 435 l 1286 711 q 1256 806 1286 790 l 1169 830 q 1142 909 1142 849 q 1120 1128 1142 1088 q 920 1253 1048 1253 l 833 1256 l 716 1256 q 553 1240 553 1256 q 415 1036 415 1179 l 412 925 m 743 1039 l 909 1036 q 963 963 963 1019 q 909 892 963 910 l 741 892 q 648 911 661 892 q 627 966 627 939 q 694 1036 635 1036 l 743 1039 m 686 673 l 963 673 q 1050 646 1050 673 q 1069 600 1069 635 l 1069 589 q 1009 529 1056 529 l 985 526 l 686 526 q 627 591 641 526 l 627 597 q 686 673 643 673 z "},"6":{"ha":1693,"x_min":68,"x_max":1625,"o":"m 849 1557 q 1009 1394 963 1488 q 1223 1451 1130 1451 l 1240 1451 q 1297 1229 1297 1333 q 1522 1169 1406 1229 q 1462 941 1522 1059 l 1465 941 q 1625 781 1563 881 l 1625 773 q 1462 613 1560 669 q 1522 388 1522 500 q 1297 328 1409 328 q 1237 103 1297 211 q 1009 163 1131 103 q 849 0 951 62 q 681 163 767 35 q 458 103 571 103 q 396 328 396 211 q 174 385 290 328 l 174 401 q 231 613 174 504 l 231 616 q 68 779 130 671 q 182 911 83 821 q 231 947 231 938 q 174 1153 174 1051 l 174 1166 q 374 1226 271 1226 l 382 1226 q 399 1253 399 1226 q 458 1451 399 1353 l 472 1451 q 681 1394 570 1451 l 684 1394 q 849 1557 755 1510 m 410 922 l 410 602 q 426 439 410 439 q 526 331 456 372 q 594 307 549 317 l 822 304 l 879 304 l 1099 307 q 1221 372 1154 311 q 1283 515 1283 433 l 1283 708 q 1253 803 1283 787 l 1166 827 q 1139 906 1139 846 q 1118 1126 1139 1085 q 917 1251 1046 1251 l 830 1253 l 713 1253 q 551 1237 551 1253 q 412 1034 412 1177 l 410 922 m 741 1036 l 906 1034 q 960 960 960 1017 q 906 890 960 907 l 738 890 q 646 909 659 890 q 624 963 624 936 q 692 1034 633 1034 l 741 1036 m 684 670 l 960 670 q 1047 643 1047 670 q 1066 597 1066 633 l 1066 586 q 1006 526 1053 526 l 982 524 l 684 524 q 624 589 638 524 l 624 594 q 684 670 640 670 z "},"7":{"ha":1693,"x_min":68,"x_max":1625,"o":"m 846 1557 l 1072 1332 l 1308 1329 l 1392 1329 l 1397 1324 l 1397 1009 l 1625 779 l 1400 551 l 1400 534 l 1397 231 l 1394 228 l 1077 228 l 846 0 l 618 225 l 602 225 l 298 228 l 296 231 l 296 551 l 68 779 l 293 1004 l 296 1234 l 296 1324 l 301 1329 l 616 1329 l 846 1557 m 410 922 l 410 602 q 426 439 410 439 q 526 331 456 372 q 594 307 549 317 l 822 304 l 879 304 l 1099 307 q 1221 372 1154 311 q 1283 515 1283 433 l 1283 708 q 1253 803 1283 787 l 1166 827 q 1139 906 1139 846 q 1118 1126 1139 1085 q 917 1251 1046 1251 l 830 1253 l 713 1253 q 551 1237 551 1253 q 412 1034 412 1177 l 410 922 m 741 1036 l 906 1034 q 960 960 960 1017 q 906 890 960 907 l 738 890 q 646 909 659 890 q 624 963 624 936 q 692 1034 633 1034 l 741 1036 m 684 670 l 960 670 q 1047 643 1047 670 q 1066 597 1066 633 l 1066 586 q 1006 526 1053 526 l 982 524 l 684 524 q 624 589 638 524 l 624 594 q 684 670 640 670 z "},"8":{"ha":1487,"x_min":68,"x_max":1419,"o":"m 746 1557 l 1419 1166 l 1419 391 q 765 11 1407 380 q 741 0 751 0 l 68 391 l 68 1164 q 537 1438 84 1180 q 746 1557 711 1541 m 307 922 l 307 602 q 323 439 307 439 q 423 331 353 372 q 491 307 446 317 l 719 304 l 776 304 l 996 307 q 1118 372 1050 311 q 1180 515 1180 433 l 1180 708 q 1150 803 1180 787 l 1063 827 q 1036 906 1036 846 q 1015 1126 1036 1085 q 814 1251 943 1251 l 727 1253 l 610 1253 q 448 1237 448 1253 q 309 1034 309 1177 l 307 922 m 637 1036 l 803 1034 q 857 960 857 1017 q 803 890 857 907 l 635 890 q 543 909 555 890 q 521 963 521 936 q 589 1034 530 1034 l 637 1036 m 581 670 l 857 670 q 944 643 944 670 q 963 597 963 633 l 963 586 q 903 526 950 526 l 879 524 l 581 524 q 521 589 535 524 l 521 594 q 581 670 537 670 z "},"9":{"ha":1698,"x_min":68,"x_max":1630,"o":"m 73 1563 l 1625 1563 l 1630 1557 l 1630 5 l 1625 0 l 73 0 l 68 5 l 68 1557 l 73 1563 m 556 1066 l 556 830 l 713 830 q 730 811 718 830 q 556 472 580 526 l 556 307 l 727 307 q 814 456 744 307 q 852 496 828 484 l 1142 496 l 1142 732 l 985 732 l 968 751 q 1142 1088 1121 1037 l 1142 1256 l 974 1256 q 879 1093 954 1254 q 844 1066 860 1067 l 556 1066 z "}," ":{"ha":345,"x_min":0,"x_max":0,"o":""},"!":{"ha":1698,"x_min":68,"x_max":1630,"o":"m 73 1563 l 1625 1563 l 1630 1557 l 1630 5 l 1625 0 l 73 0 l 68 5 l 68 1557 l 73 1563 m 684 1256 l 681 1253 l 681 1248 q 722 1169 681 1240 q 586 958 586 1088 l 1112 958 q 979 1169 1112 1087 l 979 1172 q 1020 1248 1020 1238 l 1015 1256 q 963 1175 1004 1255 l 960 1175 q 849 1199 903 1199 q 735 1175 802 1199 q 684 1256 695 1256 m 727 1099 q 749 1082 737 1099 l 749 1069 l 735 1055 l 727 1055 q 705 1074 711 1055 q 727 1099 705 1091 m 971 1099 q 993 1074 989 1099 q 971 1055 993 1057 l 968 1055 q 947 1077 947 1057 q 971 1099 947 1092 m 448 876 l 448 662 q 480 594 448 610 l 510 586 q 564 651 558 586 l 564 884 q 510 947 557 947 q 450 892 450 937 l 448 876 m 1134 656 q 1169 591 1134 605 l 1191 586 q 1251 651 1251 594 l 1251 876 q 1210 944 1251 928 l 1191 947 q 1134 884 1142 947 l 1134 656 m 586 939 l 586 572 q 646 494 586 506 l 686 494 l 692 488 l 692 377 q 743 309 699 309 l 751 307 q 811 372 811 315 l 811 488 l 817 494 l 882 494 l 887 488 l 887 380 q 920 315 887 331 l 947 307 q 1006 372 1006 315 l 1006 488 l 1012 494 l 1050 494 q 1112 556 1112 508 l 1112 939 l 586 939 z "},"\"":{"ha":1698,"x_min":68,"x_max":1630,"o":"m 298 1563 l 1408 1563 q 1619 1438 1567 1563 q 1630 1343 1630 1401 l 1630 220 q 1557 43 1630 90 q 1416 0 1512 0 l 285 0 q 73 146 118 0 l 68 231 l 68 1340 q 206 1554 68 1508 q 298 1563 238 1563 m 684 1256 l 681 1253 l 681 1248 q 722 1169 681 1240 q 586 958 586 1088 l 1112 958 q 979 1169 1112 1087 l 979 1172 q 1020 1248 1020 1238 l 1015 1256 q 963 1175 1004 1255 l 960 1175 q 849 1199 903 1199 q 735 1175 802 1199 q 684 1256 695 1256 m 727 1099 q 749 1082 737 1099 l 749 1069 l 735 1055 l 727 1055 q 705 1074 711 1055 q 727 1099 705 1091 m 971 1099 q 993 1074 989 1099 q 971 1055 993 1057 l 968 1055 q 947 1077 947 1057 q 971 1099 947 1092 m 448 876 l 448 662 q 480 594 448 610 l 510 586 q 564 651 558 586 l 564 884 q 510 947 557 947 q 450 892 450 937 l 448 876 m 1134 656 q 1169 591 1134 605 l 1191 586 q 1251 651 1251 594 l 1251 876 q 1210 944 1251 928 l 1191 947 q 1134 884 1142 947 l 1134 656 m 586 939 l 586 572 q 646 494 586 506 l 686 494 l 692 488 l 692 377 q 743 309 699 309 l 751 307 q 811 372 811 315 l 811 488 l 817 494 l 882 494 l 887 488 l 887 380 q 920 315 887 331 l 947 307 q 1006 372 1006 315 l 1006 488 l 1012 494 l 1050 494 q 1112 556 1112 508 l 1112 939 l 586 939 z "},"#":{"ha":1698,"x_min":68,"x_max":1630,"o":"m 849 1563 q 1438 1294 1183 1563 q 1630 784 1630 1061 q 1343 176 1630 429 q 852 0 1113 0 q 231 304 488 0 q 68 781 68 530 q 239 1267 68 1036 q 662 1538 390 1461 q 849 1563 709 1554 m 684 1256 l 681 1253 l 681 1248 q 722 1169 681 1240 q 586 958 586 1088 l 1112 958 q 979 1169 1112 1087 l 979 1172 q 1020 1248 1020 1238 l 1015 1256 q 963 1175 1004 1255 l 960 1175 q 849 1199 903 1199 q 735 1175 802 1199 q 684 1256 695 1256 m 727 1099 q 749 1082 737 1099 l 749 1069 l 735 1055 l 727 1055 q 705 1074 711 1055 q 727 1099 705 1091 m 971 1099 q 993 1074 989 1099 q 971 1055 993 1057 l 968 1055 q 947 1077 947 1057 q 971 1099 947 1092 m 448 876 l 448 662 q 480 594 448 610 l 510 586 q 564 651 558 586 l 564 884 q 510 947 557 947 q 450 892 450 937 l 448 876 m 1134 656 q 1169 591 1134 605 l 1191 586 q 1251 651 1251 594 l 1251 876 q 1210 944 1251 928 l 1191 947 q 1134 884 1142 947 l 1134 656 m 586 939 l 586 572 q 646 494 586 506 l 686 494 l 692 488 l 692 377 q 743 309 699 309 l 751 307 q 811 372 811 315 l 811 488 l 817 494 l 882 494 l 887 488 l 887 380 q 920 315 887 331 l 947 307 q 1006 372 1006 315 l 1006 488 l 1012 494 l 1050 494 q 1112 556 1112 508 l 1112 939 l 586 939 z "},"$":{"ha":1693,"x_min":68,"x_max":1625,"o":"m 849 1557 q 1009 1394 963 1488 q 1223 1451 1130 1451 l 1240 1451 q 1297 1229 1297 1333 q 1522 1169 1406 1229 q 1462 941 1522 1059 l 1465 941 q 1625 781 1563 881 l 1625 773 q 1462 613 1560 669 q 1522 388 1522 500 q 1297 328 1409 328 q 1237 103 1297 211 q 1009 163 1131 103 q 849 0 951 62 q 681 163 767 35 q 458 103 571 103 q 396 328 396 211 q 174 385 290 328 l 174 401 q 231 613 174 504 l 231 616 q 68 779 130 671 q 182 911 83 821 q 231 947 231 938 q 174 1153 174 1051 l 174 1166 q 374 1226 271 1226 l 382 1226 q 399 1253 399 1226 q 458 1451 399 1353 l 472 1451 q 681 1394 570 1451 l 684 1394 q 849 1557 755 1510 m 681 1253 l 678 1251 l 678 1245 q 719 1166 678 1237 q 583 955 583 1086 l 1109 955 q 977 1166 1109 1084 l 977 1169 q 1017 1245 1017 1236 l 1012 1253 q 960 1172 1002 1253 l 958 1172 q 846 1196 900 1196 q 732 1172 799 1196 q 681 1253 692 1253 m 724 1096 q 746 1080 734 1096 l 746 1066 l 732 1053 l 724 1053 q 703 1072 708 1053 q 724 1096 703 1088 m 968 1096 q 990 1072 986 1096 q 968 1053 990 1055 l 966 1053 q 944 1074 944 1054 q 968 1096 944 1089 m 445 873 l 445 659 q 477 591 445 607 l 507 583 q 562 648 555 583 l 562 882 q 507 944 555 944 q 448 890 448 934 l 445 873 m 1131 654 q 1166 589 1131 602 l 1188 583 q 1248 648 1248 591 l 1248 873 q 1207 941 1248 926 l 1188 944 q 1131 882 1139 944 l 1131 654 m 583 936 l 583 570 q 643 491 583 503 l 684 491 l 689 486 l 689 374 q 741 307 696 307 l 749 304 q 808 369 808 312 l 808 486 l 814 491 l 879 491 l 884 486 l 884 377 q 917 312 884 328 l 944 304 q 1004 369 1004 312 l 1004 486 l 1009 491 l 1047 491 q 1109 553 1109 505 l 1109 936 l 583 936 z "},"%":{"ha":1693,"x_min":68,"x_max":1625,"o":"m 846 1557 l 1072 1332 l 1308 1329 l 1392 1329 l 1397 1324 l 1397 1009 l 1625 779 l 1400 551 l 1400 534 l 1397 231 l 1394 228 l 1077 228 l 846 0 l 618 225 l 602 225 l 298 228 l 296 231 l 296 551 l 68 779 l 293 1004 l 296 1234 l 296 1324 l 301 1329 l 616 1329 l 846 1557 m 681 1253 l 678 1251 l 678 1245 q 719 1166 678 1237 q 583 955 583 1086 l 1109 955 q 977 1166 1109 1084 l 977 1169 q 1017 1245 1017 1236 l 1012 1253 q 960 1172 1002 1253 l 958 1172 q 846 1196 900 1196 q 732 1172 799 1196 q 681 1253 692 1253 m 724 1096 q 746 1080 734 1096 l 746 1066 l 732 1053 l 724 1053 q 703 1072 708 1053 q 724 1096 703 1088 m 968 1096 q 990 1072 986 1096 q 968 1053 990 1055 l 966 1053 q 944 1074 944 1054 q 968 1096 944 1089 m 445 873 l 445 659 q 477 591 445 607 l 507 583 q 562 648 555 583 l 562 882 q 507 944 555 944 q 448 890 448 934 l 445 873 m 1131 654 q 1166 589 1131 602 l 1188 583 q 1248 648 1248 591 l 1248 873 q 1207 941 1248 926 l 1188 944 q 1131 882 1139 944 l 1131 654 m 583 936 l 583 570 q 643 491 583 503 l 684 491 l 689 486 l 689 374 q 741 307 696 307 l 749 304 q 808 369 808 312 l 808 486 l 814 491 l 879 491 l 884 486 l 884 377 q 917 312 884 328 l 944 304 q 1004 369 1004 312 l 1004 486 l 1009 491 l 1047 491 q 1109 553 1109 505 l 1109 936 l 583 936 z "},"&":{"ha":1487,"x_min":68,"x_max":1419,"o":"m 746 1557 l 1419 1166 l 1419 391 q 765 11 1407 380 q 741 0 751 0 l 68 391 l 68 1164 q 537 1438 84 1180 q 746 1557 711 1541 m 578 1253 l 575 1251 l 575 1245 q 616 1166 575 1237 q 480 955 480 1086 l 1006 955 q 873 1166 1006 1084 l 873 1169 q 914 1245 914 1236 l 909 1253 q 857 1172 899 1253 l 854 1172 q 743 1196 797 1196 q 629 1172 696 1196 q 578 1253 589 1253 m 621 1096 q 643 1080 631 1096 l 643 1066 l 629 1053 l 621 1053 q 600 1072 605 1053 q 621 1096 600 1088 m 865 1096 q 887 1072 883 1096 q 865 1053 887 1055 l 863 1053 q 841 1074 841 1054 q 865 1096 841 1089 m 342 873 l 342 659 q 374 591 342 607 l 404 583 q 458 648 452 583 l 458 882 q 404 944 452 944 q 345 890 345 934 l 342 873 m 1028 654 q 1063 589 1028 602 l 1085 583 q 1145 648 1145 591 l 1145 873 q 1104 941 1145 926 l 1085 944 q 1028 882 1036 944 l 1028 654 m 480 936 l 480 570 q 540 491 480 503 l 581 491 l 586 486 l 586 374 q 637 307 593 307 l 646 304 q 705 369 705 312 l 705 486 l 711 491 l 776 491 l 781 486 l 781 377 q 814 312 781 328 l 841 304 q 901 369 901 312 l 901 486 l 906 491 l 944 491 q 1006 553 1006 505 l 1006 936 l 480 936 z "},"'":{"ha":1698,"x_min":68,"x_max":1630,"o":"m 73 1563 l 1625 1563 l 1630 1557 l 1630 5 l 1625 0 l 73 0 l 68 5 l 68 1557 l 73 1563 m 849 1031 l 863 1031 q 1031 1156 962 1031 q 1050 1248 1050 1192 l 1047 1256 q 898 1177 982 1256 q 849 1031 849 1117 m 857 987 q 730 1023 839 987 l 694 1028 q 472 868 549 1028 q 450 741 450 799 q 602 363 450 550 q 711 307 656 307 l 838 342 l 868 345 q 1017 307 901 345 l 1028 307 q 1223 499 1125 307 l 1248 559 q 1118 760 1118 625 q 1223 933 1118 870 q 1034 1031 1149 1031 q 860 987 994 1031 l 857 987 z "},"(":{"ha":1698,"x_min":68,"x_max":1630,"o":"m 298 1563 l 1408 1563 q 1619 1438 1567 1563 q 1630 1343 1630 1401 l 1630 220 q 1557 43 1630 90 q 1416 0 1512 0 l 285 0 q 73 146 118 0 l 68 231 l 68 1340 q 206 1554 68 1508 q 298 1563 238 1563 m 849 1031 l 863 1031 q 1031 1156 962 1031 q 1050 1248 1050 1192 l 1047 1256 q 898 1177 982 1256 q 849 1031 849 1117 m 857 987 q 730 1023 839 987 l 694 1028 q 472 868 549 1028 q 450 741 450 799 q 602 363 450 550 q 711 307 656 307 l 838 342 l 868 345 q 1017 307 901 345 l 1028 307 q 1223 499 1125 307 l 1248 559 q 1118 760 1118 625 q 1223 933 1118 870 q 1034 1031 1149 1031 q 860 987 994 1031 l 857 987 z "},")":{"ha":1698,"x_min":68,"x_max":1630,"o":"m 849 1563 q 1438 1294 1183 1563 q 1630 784 1630 1061 q 1343 176 1630 429 q 852 0 1113 0 q 231 304 488 0 q 68 781 68 530 q 239 1267 68 1036 q 662 1538 390 1461 q 849 1563 709 1554 m 849 1031 l 863 1031 q 1031 1156 962 1031 q 1050 1248 1050 1192 l 1047 1256 q 898 1177 982 1256 q 849 1031 849 1117 m 857 987 q 730 1023 839 987 l 694 1028 q 472 868 549 1028 q 450 741 450 799 q 602 363 450 550 q 711 307 656 307 l 838 342 l 868 345 q 1017 307 901 345 l 1028 307 q 1223 499 1125 307 l 1248 559 q 1118 760 1118 625 q 1223 933 1118 870 q 1034 1031 1149 1031 q 860 987 994 1031 l 857 987 z "},"*":{"ha":1693,"x_min":68,"x_max":1625,"o":"m 849 1557 q 1009 1394 963 1488 q 1223 1451 1130 1451 l 1240 1451 q 1297 1229 1297 1333 q 1522 1169 1406 1229 q 1462 941 1522 1059 l 1465 941 q 1625 781 1563 881 l 1625 773 q 1462 613 1560 669 q 1522 388 1522 500 q 1297 328 1409 328 q 1237 103 1297 211 q 1009 163 1131 103 q 849 0 951 62 q 681 163 767 35 q 458 103 571 103 q 396 328 396 211 q 174 385 290 328 l 174 401 q 231 613 174 504 l 231 616 q 68 779 130 671 q 182 911 83 821 q 231 947 231 938 q 174 1153 174 1051 l 174 1166 q 374 1226 271 1226 l 382 1226 q 399 1253 399 1226 q 458 1451 399 1353 l 472 1451 q 681 1394 570 1451 l 684 1394 q 849 1557 755 1510 m 846 1028 l 860 1028 q 1028 1153 959 1028 q 1047 1245 1047 1189 l 1044 1253 q 895 1175 979 1253 q 846 1028 846 1114 m 854 985 q 727 1020 836 985 l 692 1025 q 469 865 547 1025 q 448 738 448 796 q 600 361 448 547 q 708 304 653 304 l 836 339 l 865 342 q 1015 304 899 342 l 1025 304 q 1221 496 1122 304 l 1245 556 q 1115 757 1115 622 q 1221 930 1115 867 q 1031 1028 1146 1028 q 857 985 991 1028 l 854 985 z "},"+":{"ha":1693,"x_min":68,"x_max":1625,"o":"m 846 1557 l 1072 1332 l 1308 1329 l 1392 1329 l 1397 1324 l 1397 1009 l 1625 779 l 1400 551 l 1400 534 l 1397 231 l 1394 228 l 1077 228 l 846 0 l 618 225 l 602 225 l 298 228 l 296 231 l 296 551 l 68 779 l 293 1004 l 296 1234 l 296 1324 l 301 1329 l 616 1329 l 846 1557 m 846 1028 l 860 1028 q 1028 1153 959 1028 q 1047 1245 1047 1189 l 1044 1253 q 895 1175 979 1253 q 846 1028 846 1114 m 854 985 q 727 1020 836 985 l 692 1025 q 469 865 547 1025 q 448 738 448 796 q 600 361 448 547 q 708 304 653 304 l 836 339 l 865 342 q 1015 304 899 342 l 1025 304 q 1221 496 1122 304 l 1245 556 q 1115 757 1115 622 q 1221 930 1115 867 q 1031 1028 1146 1028 q 857 985 991 1028 l 854 985 z "},",":{"ha":1487,"x_min":68,"x_max":1419,"o":"m 746 1557 l 1419 1166 l 1419 391 q 765 11 1407 380 q 741 0 751 0 l 68 391 l 68 1164 q 537 1438 84 1180 q 746 1557 711 1541 m 743 1028 l 757 1028 q 925 1153 856 1028 q 944 1245 944 1189 l 941 1253 q 792 1175 876 1253 q 743 1028 743 1114 m 751 985 q 624 1020 733 985 l 589 1025 q 366 865 444 1025 q 345 738 345 796 q 496 361 345 547 q 605 304 550 304 l 732 339 l 762 342 q 911 304 795 342 l 922 304 q 1118 496 1019 304 l 1142 556 q 1012 757 1012 622 q 1118 930 1012 867 q 928 1028 1043 1028 q 754 985 888 1028 l 751 985 z "},"-":{"ha":1698,"x_min":68,"x_max":1630,"o":"m 73 1563 l 1625 1563 l 1630 1557 l 1630 5 l 1625 0 l 73 0 l 68 5 l 68 1557 l 73 1563 m 374 1080 l 374 494 l 640 494 q 852 600 806 494 q 863 681 863 631 q 768 811 863 765 l 762 811 l 762 817 q 836 941 836 844 q 724 1072 836 1044 q 602 1080 680 1080 l 374 1080 m 993 1039 l 993 982 l 1232 982 l 1232 1039 l 993 1039 m 507 979 l 618 979 q 711 914 711 979 l 711 901 q 621 844 711 844 l 507 844 l 502 849 l 502 974 l 507 979 m 901 705 q 998 515 901 585 q 1131 483 1046 483 q 1308 605 1251 483 l 1316 627 l 1213 627 q 1123 570 1185 570 q 1023 637 1047 570 l 1017 675 l 1020 678 l 1324 678 l 1324 708 q 1237 892 1324 817 q 1120 930 1177 930 q 928 819 1000 930 q 901 705 901 757 m 1118 841 q 1204 770 1185 841 l 1207 754 l 1204 751 l 1023 751 l 1020 754 l 1017 754 q 1088 838 1017 812 l 1118 841 m 507 754 l 616 754 q 727 719 707 754 l 735 678 l 735 662 q 648 594 735 603 l 507 594 l 502 600 l 502 749 l 507 754 z "},".":{"ha":1698,"x_min":68,"x_max":1630,"o":"m 298 1563 l 1408 1563 q 1619 1438 1567 1563 q 1630 1343 1630 1401 l 1630 220 q 1557 43 1630 90 q 1416 0 1512 0 l 285 0 q 73 146 118 0 l 68 231 l 68 1340 q 206 1554 68 1508 q 298 1563 238 1563 m 374 1080 l 374 494 l 640 494 q 852 600 806 494 q 863 681 863 631 q 768 811 863 765 l 762 811 l 762 817 q 836 941 836 844 q 724 1072 836 1044 q 602 1080 680 1080 l 374 1080 m 993 1039 l 993 982 l 1232 982 l 1232 1039 l 993 1039 m 507 979 l 618 979 q 711 914 711 979 l 711 901 q 621 844 711 844 l 507 844 l 502 849 l 502 974 l 507 979 m 901 705 q 998 515 901 585 q 1131 483 1046 483 q 1308 605 1251 483 l 1316 627 l 1213 627 q 1123 570 1185 570 q 1023 637 1047 570 l 1017 675 l 1020 678 l 1324 678 l 1324 708 q 1237 892 1324 817 q 1120 930 1177 930 q 928 819 1000 930 q 901 705 901 757 m 1118 841 q 1204 770 1185 841 l 1207 754 l 1204 751 l 1023 751 l 1020 754 l 1017 754 q 1088 838 1017 812 l 1118 841 m 507 754 l 616 754 q 727 719 707 754 l 735 678 l 735 662 q 648 594 735 603 l 507 594 l 502 600 l 502 749 l 507 754 z "},"/":{"ha":1698,"x_min":68,"x_max":1630,"o":"m 849 1563 q 1438 1294 1183 1563 q 1630 784 1630 1061 q 1343 176 1630 429 q 852 0 1113 0 q 231 304 488 0 q 68 781 68 530 q 239 1267 68 1036 q 662 1538 390 1461 q 849 1563 709 1554 m 374 1080 l 374 494 l 640 494 q 852 600 806 494 q 863 681 863 631 q 768 811 863 765 l 762 811 l 762 817 q 836 941 836 844 q 724 1072 836 1044 q 602 1080 680 1080 l 374 1080 m 993 1039 l 993 982 l 1232 982 l 1232 1039 l 993 1039 m 507 979 l 618 979 q 711 914 711 979 l 711 901 q 621 844 711 844 l 507 844 l 502 849 l 502 974 l 507 979 m 901 705 q 998 515 901 585 q 1131 483 1046 483 q 1308 605 1251 483 l 1316 627 l 1213 627 q 1123 570 1185 570 q 1023 637 1047 570 l 1017 675 l 1020 678 l 1324 678 l 1324 708 q 1237 892 1324 817 q 1120 930 1177 930 q 928 819 1000 930 q 901 705 901 757 m 1118 841 q 1204 770 1185 841 l 1207 754 l 1204 751 l 1023 751 l 1020 754 l 1017 754 q 1088 838 1017 812 l 1118 841 m 507 754 l 616 754 q 727 719 707 754 l 735 678 l 735 662 q 648 594 735 603 l 507 594 l 502 600 l 502 749 l 507 754 z "},":":{"ha":1698,"x_min":68,"x_max":1630,"o":"m 298 1563 l 1408 1563 q 1619 1438 1567 1563 q 1630 1343 1630 1401 l 1630 220 q 1557 43 1630 90 q 1416 0 1512 0 l 285 0 q 73 146 118 0 l 68 231 l 68 1340 q 206 1554 68 1508 q 298 1563 238 1563 m 556 1066 l 556 830 l 713 830 q 730 811 718 830 q 556 472 580 526 l 556 307 l 727 307 q 814 456 744 307 q 852 496 828 484 l 1142 496 l 1142 732 l 985 732 l 968 751 q 1142 1088 1121 1037 l 1142 1256 l 974 1256 q 879 1093 954 1254 q 844 1066 860 1067 l 556 1066 z "},";":{"ha":1698,"x_min":68,"x_max":1630,"o":"m 849 1563 q 1438 1294 1183 1563 q 1630 784 1630 1061 q 1343 176 1630 429 q 852 0 1113 0 q 231 304 488 0 q 68 781 68 530 q 239 1267 68 1036 q 662 1538 390 1461 q 849 1563 709 1554 m 556 1066 l 556 830 l 713 830 q 730 811 718 830 q 556 472 580 526 l 556 307 l 727 307 q 814 456 744 307 q 852 496 828 484 l 1142 496 l 1142 732 l 985 732 l 968 751 q 1142 1088 1121 1037 l 1142 1256 l 974 1256 q 879 1093 954 1254 q 844 1066 860 1067 l 556 1066 z "},"<":{"ha":1693,"x_min":68,"x_max":1625,"o":"m 849 1557 q 1009 1394 963 1488 q 1223 1451 1130 1451 l 1240 1451 q 1297 1229 1297 1333 q 1522 1169 1406 1229 q 1462 941 1522 1059 l 1465 941 q 1625 781 1563 881 l 1625 773 q 1462 613 1560 669 q 1522 388 1522 500 q 1297 328 1409 328 q 1237 103 1297 211 q 1009 163 1131 103 q 849 0 951 62 q 681 163 767 35 q 458 103 571 103 q 396 328 396 211 q 174 385 290 328 l 174 401 q 231 613 174 504 l 231 616 q 68 779 130 671 q 182 911 83 821 q 231 947 231 938 q 174 1153 174 1051 l 174 1166 q 374 1226 271 1226 l 382 1226 q 399 1253 399 1226 q 458 1451 399 1353 l 472 1451 q 681 1394 570 1451 l 684 1394 q 849 1557 755 1510 m 553 1063 l 553 827 l 711 827 q 727 808 715 827 q 553 469 577 524 l 553 304 l 724 304 q 811 453 741 304 q 849 494 825 481 l 1139 494 l 1139 730 l 982 730 l 966 749 q 1139 1085 1118 1034 l 1139 1253 l 971 1253 q 876 1090 951 1251 q 841 1063 857 1065 l 553 1063 z "},"=":{"ha":1693,"x_min":68,"x_max":1625,"o":"m 846 1557 l 1072 1332 l 1308 1329 l 1392 1329 l 1397 1324 l 1397 1009 l 1625 779 l 1400 551 l 1400 534 l 1397 231 l 1394 228 l 1077 228 l 846 0 l 618 225 l 602 225 l 298 228 l 296 231 l 296 551 l 68 779 l 293 1004 l 296 1234 l 296 1324 l 301 1329 l 616 1329 l 846 1557 m 553 1063 l 553 827 l 711 827 q 727 808 715 827 q 553 469 577 524 l 553 304 l 724 304 q 811 453 741 304 q 849 494 825 481 l 1139 494 l 1139 730 l 982 730 l 966 749 q 1139 1085 1118 1034 l 1139 1253 l 971 1253 q 876 1090 951 1251 q 841 1063 857 1065 l 553 1063 z "},">":{"ha":1487,"x_min":68,"x_max":1419,"o":"m 746 1557 l 1419 1166 l 1419 391 q 765 11 1407 380 q 741 0 751 0 l 68 391 l 68 1164 q 537 1438 84 1180 q 746 1557 711 1541 m 450 1063 l 450 827 l 608 827 q 624 808 612 827 q 450 469 474 524 l 450 304 l 621 304 q 708 453 638 304 q 746 494 722 481 l 1036 494 l 1036 730 l 879 730 l 863 749 q 1036 1085 1015 1034 l 1036 1253 l 868 1253 q 773 1090 848 1251 q 738 1063 754 1065 l 450 1063 z "},"?":{"ha":1698,"x_min":68,"x_max":1630,"o":"m 73 1563 l 1625 1563 l 1630 1557 l 1630 5 l 1625 0 l 73 0 l 68 5 l 68 1557 l 73 1563 m 377 1031 l 610 882 q 377 732 602 871 l 377 727 l 613 578 l 849 727 q 646 860 844 735 l 616 882 l 849 1031 l 616 1185 q 377 1031 399 1050 m 852 1036 l 852 1034 l 1085 882 l 1324 1031 l 1088 1183 l 1082 1183 l 852 1036 m 852 732 l 852 730 l 1085 578 l 1321 730 l 1321 732 l 1085 879 l 852 732 m 613 532 l 613 526 l 849 377 l 1082 529 l 852 681 l 613 532 z "},"@":{"ha":1698,"x_min":68,"x_max":1630,"o":"m 298 1563 l 1408 1563 q 1619 1438 1567 1563 q 1630 1343 1630 1401 l 1630 220 q 1557 43 1630 90 q 1416 0 1512 0 l 285 0 q 73 146 118 0 l 68 231 l 68 1340 q 206 1554 68 1508 q 298 1563 238 1563 m 377 1031 l 610 882 q 377 732 602 871 l 377 727 l 613 578 l 849 727 q 646 860 844 735 l 616 882 l 849 1031 l 616 1185 q 377 1031 399 1050 m 852 1036 l 852 1034 l 1085 882 l 1324 1031 l 1088 1183 l 1082 1183 l 852 1036 m 852 732 l 852 730 l 1085 578 l 1321 730 l 1321 732 l 1085 879 l 852 732 m 613 532 l 613 526 l 849 377 l 1082 529 l 852 681 l 613 532 z "},"A":{"ha":1698,"x_min":68,"x_max":1630,"o":"m 849 1563 q 1438 1294 1183 1563 q 1630 784 1630 1061 q 1343 176 1630 429 q 852 0 1113 0 q 231 304 488 0 q 68 781 68 530 q 239 1267 68 1036 q 662 1538 390 1461 q 849 1563 709 1554 m 377 1031 l 610 882 q 377 732 602 871 l 377 727 l 613 578 l 849 727 q 646 860 844 735 l 616 882 l 849 1031 l 616 1185 q 377 1031 399 1050 m 852 1036 l 852 1034 l 1085 882 l 1324 1031 l 1088 1183 l 1082 1183 l 852 1036 m 852 732 l 852 730 l 1085 578 l 1321 730 l 1321 732 l 1085 879 l 852 732 m 613 532 l 613 526 l 849 377 l 1082 529 l 852 681 l 613 532 z "},"B":{"ha":1693,"x_min":68,"x_max":1625,"o":"m 849 1557 q 1009 1394 963 1488 q 1223 1451 1130 1451 l 1240 1451 q 1297 1229 1297 1333 q 1522 1169 1406 1229 q 1462 941 1522 1059 l 1465 941 q 1625 781 1563 881 l 1625 773 q 1462 613 1560 669 q 1522 388 1522 500 q 1297 328 1409 328 q 1237 103 1297 211 q 1009 163 1131 103 q 849 0 951 62 q 681 163 767 35 q 458 103 571 103 q 396 328 396 211 q 174 385 290 328 l 174 401 q 231 613 174 504 l 231 616 q 68 779 130 671 q 182 911 83 821 q 231 947 231 938 q 174 1153 174 1051 l 174 1166 q 374 1226 271 1226 l 382 1226 q 399 1253 399 1226 q 458 1451 399 1353 l 472 1451 q 681 1394 570 1451 l 684 1394 q 849 1557 755 1510 m 374 1028 l 608 879 q 374 730 600 868 l 374 724 l 610 575 l 846 724 q 643 857 841 732 l 613 879 l 846 1028 l 613 1183 q 374 1028 396 1047 m 849 1034 l 849 1031 l 1082 879 l 1321 1028 l 1085 1180 l 1080 1180 l 849 1034 m 849 730 l 849 727 l 1082 575 l 1318 727 l 1318 730 l 1082 876 l 849 730 m 610 529 l 610 524 l 846 374 l 1080 526 l 849 678 l 610 529 z "},"C":{"ha":1693,"x_min":68,"x_max":1625,"o":"m 846 1557 l 1072 1332 l 1308 1329 l 1392 1329 l 1397 1324 l 1397 1009 l 1625 779 l 1400 551 l 1400 534 l 1397 231 l 1394 228 l 1077 228 l 846 0 l 618 225 l 602 225 l 298 228 l 296 231 l 296 551 l 68 779 l 293 1004 l 296 1234 l 296 1324 l 301 1329 l 616 1329 l 846 1557 m 374 1028 l 608 879 q 374 730 600 868 l 374 724 l 610 575 l 846 724 q 643 857 841 732 l 613 879 l 846 1028 l 613 1183 q 374 1028 396 1047 m 849 1034 l 849 1031 l 1082 879 l 1321 1028 l 1085 1180 l 1080 1180 l 849 1034 m 849 730 l 849 727 l 1082 575 l 1318 727 l 1318 730 l 1082 876 l 849 730 m 610 529 l 610 524 l 846 374 l 1080 526 l 849 678 l 610 529 z "},"D":{"ha":1487,"x_min":68,"x_max":1419,"o":"m 746 1557 l 1419 1166 l 1419 391 q 765 11 1407 380 q 741 0 751 0 l 68 391 l 68 1164 q 537 1438 84 1180 q 746 1557 711 1541 m 271 1028 l 505 879 q 271 730 496 868 l 271 724 l 507 575 l 743 724 q 540 857 738 732 l 510 879 l 743 1028 l 510 1183 q 271 1028 293 1047 m 746 1034 l 746 1031 l 979 879 l 1218 1028 l 982 1180 l 977 1180 l 746 1034 m 746 730 l 746 727 l 979 575 l 1215 727 l 1215 730 l 979 876 l 746 730 m 507 529 l 507 524 l 743 374 l 977 526 l 746 678 l 507 529 z "},"E":{"ha":1698,"x_min":68,"x_max":1630,"o":"m 73 1563 l 1625 1563 l 1630 1557 l 1630 5 l 1625 0 l 73 0 l 68 5 l 68 1557 l 73 1563 m 749 993 l 749 914 l 743 909 l 602 909 l 602 738 l 743 738 l 749 732 l 749 307 l 922 307 l 922 732 l 928 738 l 1069 738 l 1090 909 l 928 909 l 922 914 l 922 993 q 963 1090 922 1090 q 1031 1099 977 1098 l 1096 1099 l 1096 1251 l 971 1256 q 765 1128 819 1256 q 749 993 749 1087 z "},"F":{"ha":1698,"x_min":68,"x_max":1630,"o":"m 298 1563 l 1408 1563 q 1619 1438 1567 1563 q 1630 1343 1630 1401 l 1630 220 q 1557 43 1630 90 q 1416 0 1512 0 l 285 0 q 73 146 118 0 l 68 231 l 68 1340 q 206 1554 68 1508 q 298 1563 238 1563 m 749 993 l 749 914 l 743 909 l 602 909 l 602 738 l 743 738 l 749 732 l 749 307 l 922 307 l 922 732 l 928 738 l 1069 738 l 1090 909 l 928 909 l 922 914 l 922 993 q 963 1090 922 1090 q 1031 1099 977 1098 l 1096 1099 l 1096 1251 l 971 1256 q 765 1128 819 1256 q 749 993 749 1087 z "},"G":{"ha":1698,"x_min":68,"x_max":1630,"o":"m 849 1563 q 1438 1294 1183 1563 q 1630 784 1630 1061 q 1343 176 1630 429 q 852 0 1113 0 q 231 304 488 0 q 68 781 68 530 q 239 1267 68 1036 q 662 1538 390 1461 q 849 1563 709 1554 m 749 993 l 749 914 l 743 909 l 602 909 l 602 738 l 743 738 l 749 732 l 749 307 l 922 307 l 922 732 l 928 738 l 1069 738 l 1090 909 l 928 909 l 922 914 l 922 993 q 963 1090 922 1090 q 1031 1099 977 1098 l 1096 1099 l 1096 1251 l 971 1256 q 765 1128 819 1256 q 749 993 749 1087 z "},"H":{"ha":1693,"x_min":68,"x_max":1625,"o":"m 849 1557 q 1009 1394 963 1488 q 1223 1451 1130 1451 l 1240 1451 q 1297 1229 1297 1333 q 1522 1169 1406 1229 q 1462 941 1522 1059 l 1465 941 q 1625 781 1563 881 l 1625 773 q 1462 613 1560 669 q 1522 388 1522 500 q 1297 328 1409 328 q 1237 103 1297 211 q 1009 163 1131 103 q 849 0 951 62 q 681 163 767 35 q 458 103 571 103 q 396 328 396 211 q 174 385 290 328 l 174 401 q 231 613 174 504 l 231 616 q 68 779 130 671 q 182 911 83 821 q 231 947 231 938 q 174 1153 174 1051 l 174 1166 q 374 1226 271 1226 l 382 1226 q 399 1253 399 1226 q 458 1451 399 1353 l 472 1451 q 681 1394 570 1451 l 684 1394 q 849 1557 755 1510 m 746 990 l 746 911 l 741 906 l 600 906 l 600 735 l 741 735 l 746 730 l 746 304 l 920 304 l 920 730 l 925 735 l 1066 735 l 1088 906 l 925 906 l 920 911 l 920 990 q 960 1088 920 1088 q 1028 1096 974 1095 l 1093 1096 l 1093 1248 l 968 1253 q 762 1126 817 1253 q 746 990 746 1084 z "},"I":{"ha":1693,"x_min":68,"x_max":1625,"o":"m 846 1557 l 1072 1332 l 1308 1329 l 1392 1329 l 1397 1324 l 1397 1009 l 1625 779 l 1400 551 l 1400 534 l 1397 231 l 1394 228 l 1077 228 l 846 0 l 618 225 l 602 225 l 298 228 l 296 231 l 296 551 l 68 779 l 293 1004 l 296 1234 l 296 1324 l 301 1329 l 616 1329 l 846 1557 m 746 990 l 746 911 l 741 906 l 600 906 l 600 735 l 741 735 l 746 730 l 746 304 l 920 304 l 920 730 l 925 735 l 1066 735 l 1088 906 l 925 906 l 920 911 l 920 990 q 960 1088 920 1088 q 1028 1096 974 1095 l 1093 1096 l 1093 1248 l 968 1253 q 762 1126 817 1253 q 746 990 746 1084 z "},"J":{"ha":1487,"x_min":68,"x_max":1419,"o":"m 746 1557 l 1419 1166 l 1419 391 q 765 11 1407 380 q 741 0 751 0 l 68 391 l 68 1164 q 537 1438 84 1180 q 746 1557 711 1541 m 643 990 l 643 911 l 637 906 l 496 906 l 496 735 l 637 735 l 643 730 l 643 304 l 817 304 l 817 730 l 822 735 l 963 735 l 985 906 l 822 906 l 817 911 l 817 990 q 857 1088 817 1088 q 925 1096 871 1095 l 990 1096 l 990 1248 l 865 1253 q 659 1126 713 1253 q 643 990 643 1084 z "},"K":{"ha":1698,"x_min":68,"x_max":1630,"o":"m 73 1563 l 1625 1563 l 1630 1557 l 1630 5 l 1625 0 l 73 0 l 68 5 l 68 1557 l 73 1563 m 374 795 q 534 445 374 593 l 540 377 l 540 358 q 578 307 540 307 l 697 355 q 844 334 795 334 q 1289 613 1151 334 q 1324 795 1324 707 q 1191 1120 1324 983 q 849 1256 1044 1256 q 472 1080 622 1256 q 374 795 374 950 m 1112 936 q 1137 920 1126 936 l 1137 911 q 987 670 1137 898 q 941 648 962 648 l 928 648 q 789 738 903 648 q 765 749 775 749 l 762 749 q 627 654 751 749 q 583 627 594 627 q 562 651 566 627 q 711 890 570 675 q 760 914 734 914 q 868 852 800 914 q 933 811 915 817 q 1044 887 945 811 l 1112 936 z "},"L":{"ha":1698,"x_min":68,"x_max":1630,"o":"m 298 1563 l 1408 1563 q 1619 1438 1567 1563 q 1630 1343 1630 1401 l 1630 220 q 1557 43 1630 90 q 1416 0 1512 0 l 285 0 q 73 146 118 0 l 68 231 l 68 1340 q 206 1554 68 1508 q 298 1563 238 1563 m 374 795 q 534 445 374 593 l 540 377 l 540 358 q 578 307 540 307 l 697 355 q 844 334 795 334 q 1289 613 1151 334 q 1324 795 1324 707 q 1191 1120 1324 983 q 849 1256 1044 1256 q 472 1080 622 1256 q 374 795 374 950 m 1112 936 q 1137 920 1126 936 l 1137 911 q 987 670 1137 898 q 941 648 962 648 l 928 648 q 789 738 903 648 q 765 749 775 749 l 762 749 q 627 654 751 749 q 583 627 594 627 q 562 651 566 627 q 711 890 570 675 q 760 914 734 914 q 868 852 800 914 q 933 811 915 817 q 1044 887 945 811 l 1112 936 z "},"M":{"ha":1698,"x_min":68,"x_max":1630,"o":"m 849 1563 q 1438 1294 1183 1563 q 1630 784 1630 1061 q 1343 176 1630 429 q 852 0 1113 0 q 231 304 488 0 q 68 781 68 530 q 239 1267 68 1036 q 662 1538 390 1461 q 849 1563 709 1554 m 374 795 q 534 445 374 593 l 540 377 l 540 358 q 578 307 540 307 l 697 355 q 844 334 795 334 q 1289 613 1151 334 q 1324 795 1324 707 q 1191 1120 1324 983 q 849 1256 1044 1256 q 472 1080 622 1256 q 374 795 374 950 m 1112 936 q 1137 920 1126 936 l 1137 911 q 987 670 1137 898 q 941 648 962 648 l 928 648 q 789 738 903 648 q 765 749 775 749 l 762 749 q 627 654 751 749 q 583 627 594 627 q 562 651 566 627 q 711 890 570 675 q 760 914 734 914 q 868 852 800 914 q 933 811 915 817 q 1044 887 945 811 l 1112 936 z "},"N":{"ha":1693,"x_min":68,"x_max":1625,"o":"m 849 1557 q 1009 1394 963 1488 q 1223 1451 1130 1451 l 1240 1451 q 1297 1229 1297 1333 q 1522 1169 1406 1229 q 1462 941 1522 1059 l 1465 941 q 1625 781 1563 881 l 1625 773 q 1462 613 1560 669 q 1522 388 1522 500 q 1297 328 1409 328 q 1237 103 1297 211 q 1009 163 1131 103 q 849 0 951 62 q 681 163 767 35 q 458 103 571 103 q 396 328 396 211 q 174 385 290 328 l 174 401 q 231 613 174 504 l 231 616 q 68 779 130 671 q 182 911 83 821 q 231 947 231 938 q 174 1153 174 1051 l 174 1166 q 374 1226 271 1226 l 382 1226 q 399 1253 399 1226 q 458 1451 399 1353 l 472 1451 q 681 1394 570 1451 l 684 1394 q 849 1557 755 1510 m 372 792 q 532 442 372 591 l 537 374 l 537 355 q 575 304 537 304 l 694 353 q 841 331 793 331 q 1286 610 1148 331 q 1321 792 1321 704 q 1188 1118 1321 980 q 846 1253 1042 1253 q 469 1077 619 1253 q 372 792 372 947 m 1109 933 q 1134 917 1124 933 l 1134 909 q 985 667 1134 895 q 939 646 960 646 l 925 646 q 787 735 901 646 q 762 746 772 746 l 760 746 q 624 651 749 746 q 581 624 591 624 q 559 648 563 624 q 708 887 567 673 q 757 911 732 911 q 865 849 798 911 q 930 808 912 814 q 1042 884 943 808 l 1109 933 z "},"O":{"ha":1693,"x_min":68,"x_max":1625,"o":"m 846 1557 l 1072 1332 l 1308 1329 l 1392 1329 l 1397 1324 l 1397 1009 l 1625 779 l 1400 551 l 1400 534 l 1397 231 l 1394 228 l 1077 228 l 846 0 l 618 225 l 602 225 l 298 228 l 296 231 l 296 551 l 68 779 l 293 1004 l 296 1234 l 296 1324 l 301 1329 l 616 1329 l 846 1557 m 372 792 q 532 442 372 591 l 537 374 l 537 355 q 575 304 537 304 l 694 353 q 841 331 793 331 q 1286 610 1148 331 q 1321 792 1321 704 q 1188 1118 1321 980 q 846 1253 1042 1253 q 469 1077 619 1253 q 372 792 372 947 m 1109 933 q 1134 917 1124 933 l 1134 909 q 985 667 1134 895 q 939 646 960 646 l 925 646 q 787 735 901 646 q 762 746 772 746 l 760 746 q 624 651 749 746 q 581 624 591 624 q 559 648 563 624 q 708 887 567 673 q 757 911 732 911 q 865 849 798 911 q 930 808 912 814 q 1042 884 943 808 l 1109 933 z "},"P":{"ha":1487,"x_min":68,"x_max":1419,"o":"m 746 1557 l 1419 1166 l 1419 391 q 765 11 1407 380 q 741 0 751 0 l 68 391 l 68 1164 q 537 1438 84 1180 q 746 1557 711 1541 m 269 792 q 429 442 269 591 l 434 374 l 434 355 q 472 304 434 304 l 591 353 q 738 331 690 331 q 1183 610 1045 331 q 1218 792 1218 704 q 1085 1118 1218 980 q 743 1253 939 1253 q 366 1077 516 1253 q 269 792 269 947 m 1006 933 q 1031 917 1021 933 l 1031 909 q 882 667 1031 895 q 836 646 857 646 l 822 646 q 684 735 798 646 q 659 746 669 746 l 656 746 q 521 651 646 746 q 477 624 488 624 q 456 648 460 624 q 605 887 464 673 q 654 911 629 911 q 762 849 694 911 q 827 808 809 814 q 939 884 840 808 l 1006 933 z "},"Q":{"ha":1698,"x_min":68,"x_max":1630,"o":"m 73 1563 l 1625 1563 l 1630 1557 l 1630 5 l 1625 0 l 73 0 l 68 5 l 68 1557 l 73 1563 m 374 781 q 488 591 374 665 q 594 564 540 564 q 789 692 719 564 q 808 784 808 736 q 675 982 808 910 q 594 998 640 993 q 396 871 465 998 q 374 781 380 838 m 890 781 q 1031 578 890 646 q 1109 564 1076 564 q 1308 697 1236 564 q 1324 779 1324 753 q 1180 985 1324 918 l 1109 998 q 909 868 979 998 q 890 781 890 816 z "},"R":{"ha":1698,"x_min":68,"x_max":1630,"o":"m 298 1563 l 1408 1563 q 1619 1438 1567 1563 q 1630 1343 1630 1401 l 1630 220 q 1557 43 1630 90 q 1416 0 1512 0 l 285 0 q 73 146 118 0 l 68 231 l 68 1340 q 206 1554 68 1508 q 298 1563 238 1563 m 374 781 q 488 591 374 665 q 594 564 540 564 q 789 692 719 564 q 808 784 808 736 q 675 982 808 910 q 594 998 640 993 q 396 871 465 998 q 374 781 380 838 m 890 781 q 1031 578 890 646 q 1109 564 1076 564 q 1308 697 1236 564 q 1324 779 1324 753 q 1180 985 1324 918 l 1109 998 q 909 868 979 998 q 890 781 890 816 z "},"S":{"ha":1698,"x_min":68,"x_max":1630,"o":"m 849 1563 q 1438 1294 1183 1563 q 1630 784 1630 1061 q 1343 176 1630 429 q 852 0 1113 0 q 231 304 488 0 q 68 781 68 530 q 239 1267 68 1036 q 662 1538 390 1461 q 849 1563 709 1554 m 374 781 q 488 591 374 665 q 594 564 540 564 q 789 692 719 564 q 808 784 808 736 q 675 982 808 910 q 594 998 640 993 q 396 871 465 998 q 374 781 380 838 m 890 781 q 1031 578 890 646 q 1109 564 1076 564 q 1308 697 1236 564 q 1324 779 1324 753 q 1180 985 1324 918 l 1109 998 q 909 868 979 998 q 890 781 890 816 z "},"T":{"ha":1693,"x_min":68,"x_max":1625,"o":"m 849 1557 q 1009 1394 963 1488 q 1223 1451 1130 1451 l 1240 1451 q 1297 1229 1297 1333 q 1522 1169 1406 1229 q 1462 941 1522 1059 l 1465 941 q 1625 781 1563 881 l 1625 773 q 1462 613 1560 669 q 1522 388 1522 500 q 1297 328 1409 328 q 1237 103 1297 211 q 1009 163 1131 103 q 849 0 951 62 q 681 163 767 35 q 458 103 571 103 q 396 328 396 211 q 174 385 290 328 l 174 401 q 231 613 174 504 l 231 616 q 68 779 130 671 q 182 911 83 821 q 231 947 231 938 q 174 1153 174 1051 l 174 1166 q 374 1226 271 1226 l 382 1226 q 399 1253 399 1226 q 458 1451 399 1353 l 472 1451 q 681 1394 570 1451 l 684 1394 q 849 1557 755 1510 m 372 779 q 486 589 372 662 q 591 562 537 562 q 787 689 716 562 q 806 781 806 733 q 673 979 806 907 q 591 996 637 990 q 393 868 463 996 q 372 779 377 836 m 887 779 q 1028 575 887 644 q 1107 562 1074 562 q 1305 694 1234 562 q 1321 776 1321 750 q 1177 982 1321 916 l 1107 996 q 906 865 977 996 q 887 779 887 813 z "},"U":{"ha":1693,"x_min":68,"x_max":1625,"o":"m 846 1557 l 1072 1332 l 1308 1329 l 1392 1329 l 1397 1324 l 1397 1009 l 1625 779 l 1400 551 l 1400 534 l 1397 231 l 1394 228 l 1077 228 l 846 0 l 618 225 l 602 225 l 298 228 l 296 231 l 296 551 l 68 779 l 293 1004 l 296 1234 l 296 1324 l 301 1329 l 616 1329 l 846 1557 m 372 779 q 486 589 372 662 q 591 562 537 562 q 787 689 716 562 q 806 781 806 733 q 673 979 806 907 q 591 996 637 990 q 393 868 463 996 q 372 779 377 836 m 887 779 q 1028 575 887 644 q 1107 562 1074 562 q 1305 694 1234 562 q 1321 776 1321 750 q 1177 982 1321 916 l 1107 996 q 906 865 977 996 q 887 779 887 813 z "},"V":{"ha":1487,"x_min":68,"x_max":1419,"o":"m 746 1557 l 1419 1166 l 1419 391 q 765 11 1407 380 q 741 0 751 0 l 68 391 l 68 1164 q 537 1438 84 1180 q 746 1557 711 1541 m 269 779 q 382 589 269 662 q 488 562 434 562 q 684 689 613 562 q 703 781 703 733 q 570 979 703 907 q 488 996 534 990 q 290 868 359 996 q 269 779 274 836 m 784 779 q 925 575 784 644 q 1004 562 970 562 q 1202 694 1131 562 q 1218 776 1218 750 q 1074 982 1218 916 l 1004 996 q 803 865 873 996 q 784 779 784 813 z "},"W":{"ha":1698,"x_min":68,"x_max":1630,"o":"m 73 1563 l 1625 1563 l 1630 1557 l 1630 5 l 1625 0 l 73 0 l 68 5 l 68 1557 l 73 1563 m 374 770 q 529 420 374 574 q 705 320 627 340 l 711 320 q 732 342 732 320 l 730 431 l 675 426 l 667 426 q 553 521 589 426 q 502 572 545 535 l 502 578 q 518 586 502 583 q 597 534 558 586 q 681 483 632 483 q 741 526 741 483 l 762 559 q 608 618 695 559 q 545 781 545 690 l 545 792 q 594 922 545 861 l 594 925 l 589 958 l 589 990 q 605 1047 592 1040 l 613 1047 q 732 998 652 1047 q 849 1015 774 1009 q 968 998 907 1012 q 1085 1047 1044 1047 l 1093 1047 q 1112 966 1107 1047 l 1104 920 q 1153 781 1153 871 q 1009 575 1153 625 l 936 562 q 968 467 968 530 l 968 445 l 966 339 q 987 320 971 320 l 990 320 q 1240 499 1143 366 q 1324 768 1324 631 q 1080 1185 1324 1030 q 852 1245 958 1245 q 450 1025 606 1245 q 374 770 374 900 m 543 570 l 543 567 l 548 562 l 553 562 l 553 570 l 543 570 m 562 553 l 562 548 l 570 540 l 575 545 l 567 553 l 562 553 m 581 529 l 581 521 l 589 513 l 594 518 l 594 521 l 586 529 l 581 529 m 602 502 q 616 486 602 486 l 618 488 l 618 499 l 605 502 l 602 502 m 637 483 l 635 472 l 637 469 l 648 469 l 654 475 l 646 483 l 637 483 m 708 472 l 719 467 l 727 469 l 727 475 l 722 480 l 716 480 l 708 472 m 678 477 l 673 469 l 681 461 l 692 469 q 678 477 692 475 z "},"X":{"ha":1698,"x_min":68,"x_max":1630,"o":"m 298 1563 l 1408 1563 q 1619 1438 1567 1563 q 1630 1343 1630 1401 l 1630 220 q 1557 43 1630 90 q 1416 0 1512 0 l 285 0 q 73 146 118 0 l 68 231 l 68 1340 q 206 1554 68 1508 q 298 1563 238 1563 m 374 770 q 529 420 374 574 q 705 320 627 340 l 711 320 q 732 342 732 320 l 730 431 l 675 426 l 667 426 q 553 521 589 426 q 502 572 545 535 l 502 578 q 518 586 502 583 q 597 534 558 586 q 681 483 632 483 q 741 526 741 483 l 762 559 q 608 618 695 559 q 545 781 545 690 l 545 792 q 594 922 545 861 l 594 925 l 589 958 l 589 990 q 605 1047 592 1040 l 613 1047 q 732 998 652 1047 q 849 1015 774 1009 q 968 998 907 1012 q 1085 1047 1044 1047 l 1093 1047 q 1112 966 1107 1047 l 1104 920 q 1153 781 1153 871 q 1009 575 1153 625 l 936 562 q 968 467 968 530 l 968 445 l 966 339 q 987 320 971 320 l 990 320 q 1240 499 1143 366 q 1324 768 1324 631 q 1080 1185 1324 1030 q 852 1245 958 1245 q 450 1025 606 1245 q 374 770 374 900 m 543 570 l 543 567 l 548 562 l 553 562 l 553 570 l 543 570 m 562 553 l 562 548 l 570 540 l 575 545 l 567 553 l 562 553 m 581 529 l 581 521 l 589 513 l 594 518 l 594 521 l 586 529 l 581 529 m 602 502 q 616 486 602 486 l 618 488 l 618 499 l 605 502 l 602 502 m 637 483 l 635 472 l 637 469 l 648 469 l 654 475 l 646 483 l 637 483 m 708 472 l 719 467 l 727 469 l 727 475 l 722 480 l 716 480 l 708 472 m 678 477 l 673 469 l 681 461 l 692 469 q 678 477 692 475 z "},"Y":{"ha":1698,"x_min":68,"x_max":1630,"o":"m 849 1563 q 1438 1294 1183 1563 q 1630 784 1630 1061 q 1343 176 1630 429 q 852 0 1113 0 q 231 304 488 0 q 68 781 68 530 q 239 1267 68 1036 q 662 1538 390 1461 q 849 1563 709 1554 m 374 770 q 529 420 374 574 q 705 320 627 340 l 711 320 q 732 342 732 320 l 730 431 l 675 426 l 667 426 q 553 521 589 426 q 502 572 545 535 l 502 578 q 518 586 502 583 q 597 534 558 586 q 681 483 632 483 q 741 526 741 483 l 762 559 q 608 618 695 559 q 545 781 545 690 l 545 792 q 594 922 545 861 l 594 925 l 589 958 l 589 990 q 605 1047 592 1040 l 613 1047 q 732 998 652 1047 q 849 1015 774 1009 q 968 998 907 1012 q 1085 1047 1044 1047 l 1093 1047 q 1112 966 1107 1047 l 1104 920 q 1153 781 1153 871 q 1009 575 1153 625 l 936 562 q 968 467 968 530 l 968 445 l 966 339 q 987 320 971 320 l 990 320 q 1240 499 1143 366 q 1324 768 1324 631 q 1080 1185 1324 1030 q 852 1245 958 1245 q 450 1025 606 1245 q 374 770 374 900 m 543 570 l 543 567 l 548 562 l 553 562 l 553 570 l 543 570 m 562 553 l 562 548 l 570 540 l 575 545 l 567 553 l 562 553 m 581 529 l 581 521 l 589 513 l 594 518 l 594 521 l 586 529 l 581 529 m 602 502 q 616 486 602 486 l 618 488 l 618 499 l 605 502 l 602 502 m 637 483 l 635 472 l 637 469 l 648 469 l 654 475 l 646 483 l 637 483 m 708 472 l 719 467 l 727 469 l 727 475 l 722 480 l 716 480 l 708 472 m 678 477 l 673 469 l 681 461 l 692 469 q 678 477 692 475 z "},"Z":{"ha":1693,"x_min":68,"x_max":1625,"o":"m 849 1557 q 1009 1394 963 1488 q 1223 1451 1130 1451 l 1240 1451 q 1297 1229 1297 1333 q 1522 1169 1406 1229 q 1462 941 1522 1059 l 1465 941 q 1625 781 1563 881 l 1625 773 q 1462 613 1560 669 q 1522 388 1522 500 q 1297 328 1409 328 q 1237 103 1297 211 q 1009 163 1131 103 q 849 0 951 62 q 681 163 767 35 q 458 103 571 103 q 396 328 396 211 q 174 385 290 328 l 174 401 q 231 613 174 504 l 231 616 q 68 779 130 671 q 182 911 83 821 q 231 947 231 938 q 174 1153 174 1051 l 174 1166 q 374 1226 271 1226 l 382 1226 q 399 1253 399 1226 q 458 1451 399 1353 l 472 1451 q 681 1394 570 1451 l 684 1394 q 849 1557 755 1510 m 372 768 q 526 418 372 571 q 703 317 625 337 l 708 317 q 730 339 730 317 l 727 429 l 673 423 l 665 423 q 551 518 587 423 q 499 570 543 532 l 499 575 q 515 583 499 581 q 594 532 555 583 q 678 480 629 480 q 738 524 738 480 l 760 556 q 605 616 692 556 q 543 779 543 688 l 543 789 q 591 920 543 859 l 591 922 l 586 955 l 586 987 q 602 1044 589 1037 l 610 1044 q 730 996 650 1044 q 846 1012 772 1006 q 966 996 905 1009 q 1082 1044 1041 1044 l 1090 1044 q 1109 963 1105 1044 l 1101 917 q 1150 779 1150 869 q 1006 572 1150 623 l 933 559 q 966 464 966 527 l 966 442 l 963 336 q 985 317 968 317 l 987 317 q 1237 496 1140 363 q 1321 765 1321 628 q 1077 1183 1321 1027 q 849 1242 955 1242 q 448 1023 604 1242 q 372 768 372 897 m 540 567 l 540 564 l 545 559 l 551 559 l 551 567 l 540 567 m 559 551 l 559 545 l 567 537 l 572 543 l 564 551 l 559 551 m 578 526 l 578 518 l 586 510 l 591 515 l 591 518 l 583 526 l 578 526 m 600 499 q 613 483 600 483 l 616 486 l 616 496 l 602 499 l 600 499 m 635 480 l 632 469 l 635 467 l 646 467 l 651 472 l 643 480 l 635 480 m 705 469 l 716 464 l 724 467 l 724 472 l 719 477 l 713 477 l 705 469 m 675 475 l 670 467 l 678 458 l 689 467 q 675 475 689 473 z "},"[":{"ha":1693,"x_min":68,"x_max":1625,"o":"m 846 1557 l 1072 1332 l 1308 1329 l 1392 1329 l 1397 1324 l 1397 1009 l 1625 779 l 1400 551 l 1400 534 l 1397 231 l 1394 228 l 1077 228 l 846 0 l 618 225 l 602 225 l 298 228 l 296 231 l 296 551 l 68 779 l 293 1004 l 296 1234 l 296 1324 l 301 1329 l 616 1329 l 846 1557 m 372 768 q 526 418 372 571 q 703 317 625 337 l 708 317 q 730 339 730 317 l 727 429 l 673 423 l 665 423 q 551 518 587 423 q 499 570 543 532 l 499 575 q 515 583 499 581 q 594 532 555 583 q 678 480 629 480 q 738 524 738 480 l 760 556 q 605 616 692 556 q 543 779 543 688 l 543 789 q 591 920 543 859 l 591 922 l 586 955 l 586 987 q 602 1044 589 1037 l 610 1044 q 730 996 650 1044 q 846 1012 772 1006 q 966 996 905 1009 q 1082 1044 1041 1044 l 1090 1044 q 1109 963 1105 1044 l 1101 917 q 1150 779 1150 869 q 1006 572 1150 623 l 933 559 q 966 464 966 527 l 966 442 l 963 336 q 985 317 968 317 l 987 317 q 1237 496 1140 363 q 1321 765 1321 628 q 1077 1183 1321 1027 q 849 1242 955 1242 q 448 1023 604 1242 q 372 768 372 897 m 540 567 l 540 564 l 545 559 l 551 559 l 551 567 l 540 567 m 559 551 l 559 545 l 567 537 l 572 543 l 564 551 l 559 551 m 578 526 l 578 518 l 586 510 l 591 515 l 591 518 l 583 526 l 578 526 m 600 499 q 613 483 600 483 l 616 486 l 616 496 l 602 499 l 600 499 m 635 480 l 632 469 l 635 467 l 646 467 l 651 472 l 643 480 l 635 480 m 705 469 l 716 464 l 724 467 l 724 472 l 719 477 l 713 477 l 705 469 m 675 475 l 670 467 l 678 458 l 689 467 q 675 475 689 473 z "},"\\":{"ha":1487,"x_min":68,"x_max":1419,"o":"m 746 1557 l 1419 1166 l 1419 391 q 765 11 1407 380 q 741 0 751 0 l 68 391 l 68 1164 q 537 1438 84 1180 q 746 1557 711 1541 m 269 768 q 423 418 269 571 q 600 317 522 337 l 605 317 q 627 339 627 317 l 624 429 l 570 423 l 562 423 q 448 518 484 423 q 396 570 439 532 l 396 575 q 412 583 396 581 q 491 532 452 583 q 575 480 526 480 q 635 524 635 480 l 656 556 q 502 616 589 556 q 439 779 439 688 l 439 789 q 488 920 439 859 l 488 922 l 483 955 l 483 987 q 499 1044 486 1037 l 507 1044 q 627 996 547 1044 q 743 1012 669 1006 q 863 996 802 1009 q 979 1044 938 1044 l 987 1044 q 1006 963 1002 1044 l 998 917 q 1047 779 1047 869 q 903 572 1047 623 l 830 559 q 863 464 863 527 l 863 442 l 860 336 q 882 317 865 317 l 884 317 q 1134 496 1037 363 q 1218 765 1218 628 q 974 1183 1218 1027 q 746 1242 852 1242 q 345 1023 500 1242 q 269 768 269 897 m 437 567 l 437 564 l 442 559 l 448 559 l 448 567 l 437 567 m 456 551 l 456 545 l 464 537 l 469 543 l 461 551 l 456 551 m 475 526 l 475 518 l 483 510 l 488 515 l 488 518 l 480 526 l 475 526 m 496 499 q 510 483 496 483 l 513 486 l 513 496 l 499 499 l 496 499 m 532 480 l 529 469 l 532 467 l 543 467 l 548 472 l 540 480 l 532 480 m 602 469 l 613 464 l 621 467 l 621 472 l 616 477 l 610 477 l 602 469 m 572 475 l 567 467 l 575 458 l 586 467 q 572 475 586 473 z "},"]":{"ha":1698,"x_min":68,"x_max":1630,"o":"m 73 1563 l 1625 1563 l 1630 1557 l 1630 5 l 1625 0 l 73 0 l 68 5 l 68 1557 l 73 1563 m 434 1256 l 928 784 l 1066 914 l 448 1253 l 434 1256 m 415 1234 l 415 336 q 431 307 415 312 l 909 765 l 415 1234 m 1090 901 l 949 765 l 1066 651 q 1280 776 1272 761 l 1280 781 l 1283 781 q 1161 860 1283 800 l 1090 901 m 928 746 l 496 336 l 499 336 l 1039 637 l 928 746 z "},"^":{"ha":1698,"x_min":68,"x_max":1630,"o":"m 298 1563 l 1408 1563 q 1619 1438 1567 1563 q 1630 1343 1630 1401 l 1630 220 q 1557 43 1630 90 q 1416 0 1512 0 l 285 0 q 73 146 118 0 l 68 231 l 68 1340 q 206 1554 68 1508 q 298 1563 238 1563 m 434 1256 l 928 784 l 1066 914 l 448 1253 l 434 1256 m 415 1234 l 415 336 q 431 307 415 312 l 909 765 l 415 1234 m 1090 901 l 949 765 l 1066 651 q 1280 776 1272 761 l 1280 781 l 1283 781 q 1161 860 1283 800 l 1090 901 m 928 746 l 496 336 l 499 336 l 1039 637 l 928 746 z "},"_":{"ha":1698,"x_min":68,"x_max":1630,"o":"m 849 1563 q 1438 1294 1183 1563 q 1630 784 1630 1061 q 1343 176 1630 429 q 852 0 1113 0 q 231 304 488 0 q 68 781 68 530 q 239 1267 68 1036 q 662 1538 390 1461 q 849 1563 709 1554 m 434 1256 l 928 784 l 1066 914 l 448 1253 l 434 1256 m 415 1234 l 415 336 q 431 307 415 312 l 909 765 l 415 1234 m 1090 901 l 949 765 l 1066 651 q 1280 776 1272 761 l 1280 781 l 1283 781 q 1161 860 1283 800 l 1090 901 m 928 746 l 496 336 l 499 336 l 1039 637 l 928 746 z "},"`":{"ha":1693,"x_min":68,"x_max":1625,"o":"m 849 1557 q 1009 1394 963 1488 q 1223 1451 1130 1451 l 1240 1451 q 1297 1229 1297 1333 q 1522 1169 1406 1229 q 1462 941 1522 1059 l 1465 941 q 1625 781 1563 881 l 1625 773 q 1462 613 1560 669 q 1522 388 1522 500 q 1297 328 1409 328 q 1237 103 1297 211 q 1009 163 1131 103 q 849 0 951 62 q 681 163 767 35 q 458 103 571 103 q 396 328 396 211 q 174 385 290 328 l 174 401 q 231 613 174 504 l 231 616 q 68 779 130 671 q 182 911 83 821 q 231 947 231 938 q 174 1153 174 1051 l 174 1166 q 374 1226 271 1226 l 382 1226 q 399 1253 399 1226 q 458 1451 399 1353 l 472 1451 q 681 1394 570 1451 l 684 1394 q 849 1557 755 1510 m 431 1253 l 925 781 l 1063 911 l 445 1251 l 431 1253 m 412 1232 l 412 334 q 429 304 412 309 l 906 762 l 412 1232 m 1088 898 l 947 762 l 1063 648 q 1278 773 1269 758 l 1278 779 l 1280 779 q 1158 857 1280 798 l 1088 898 m 925 743 l 494 334 l 496 334 l 1036 635 l 925 743 z "},"a":{"ha":1693,"x_min":68,"x_max":1625,"o":"m 846 1557 l 1072 1332 l 1308 1329 l 1392 1329 l 1397 1324 l 1397 1009 l 1625 779 l 1400 551 l 1400 534 l 1397 231 l 1394 228 l 1077 228 l 846 0 l 618 225 l 602 225 l 298 228 l 296 231 l 296 551 l 68 779 l 293 1004 l 296 1234 l 296 1324 l 301 1329 l 616 1329 l 846 1557 m 431 1253 l 925 781 l 1063 911 l 445 1251 l 431 1253 m 412 1232 l 412 334 q 429 304 412 309 l 906 762 l 412 1232 m 1088 898 l 947 762 l 1063 648 q 1278 773 1269 758 l 1278 779 l 1280 779 q 1158 857 1280 798 l 1088 898 m 925 743 l 494 334 l 496 334 l 1036 635 l 925 743 z "},"b":{"ha":1487,"x_min":68,"x_max":1419,"o":"m 746 1557 l 1419 1166 l 1419 391 q 765 11 1407 380 q 741 0 751 0 l 68 391 l 68 1164 q 537 1438 84 1180 q 746 1557 711 1541 m 328 1253 l 822 781 l 960 911 l 342 1251 l 328 1253 m 309 1232 l 309 334 q 326 304 309 309 l 803 762 l 309 1232 m 985 898 l 844 762 l 960 648 q 1175 773 1166 758 l 1175 779 l 1177 779 q 1055 857 1177 798 l 985 898 m 822 743 l 391 334 l 393 334 l 933 635 l 822 743 z "},"c":{"ha":1698,"x_min":68,"x_max":1630,"o":"m 73 1563 l 1625 1563 l 1630 1557 l 1630 5 l 1625 0 l 73 0 l 68 5 l 68 1557 l 73 1563 m 374 803 l 374 762 q 415 442 374 473 q 545 328 444 372 q 762 307 603 307 l 944 307 q 1207 358 1157 307 q 1308 496 1272 390 q 1324 686 1324 553 l 1324 868 q 1264 1150 1324 1098 q 1123 1242 1231 1209 q 868 1256 1067 1256 l 827 1256 q 510 1215 544 1256 q 399 1090 442 1185 q 374 803 374 1041 m 876 1169 q 1134 1145 1134 1169 q 1213 1074 1163 1145 q 1237 854 1237 1047 l 1237 708 q 1210 486 1237 507 q 1131 412 1187 441 q 922 393 1105 393 l 776 393 q 551 423 567 393 q 475 515 507 441 q 461 754 463 515 l 461 808 q 486 1066 461 1066 q 562 1145 503 1116 q 749 1169 594 1169 l 876 1169 m 1044 1034 q 1104 977 1044 985 q 1158 1031 1158 988 q 1101 1090 1149 1090 q 1044 1034 1044 1077 m 605 781 q 727 570 605 651 q 849 537 789 537 q 1077 694 1005 537 q 1093 779 1093 741 q 941 1006 1093 933 q 852 1025 909 1020 q 624 873 700 1025 q 605 781 610 838 m 849 939 q 996 838 945 939 q 1006 779 1006 805 q 898 632 1006 678 q 846 624 871 624 q 697 743 741 624 l 692 781 q 808 933 692 886 l 849 939 z "},"d":{"ha":1698,"x_min":68,"x_max":1630,"o":"m 298 1563 l 1408 1563 q 1619 1438 1567 1563 q 1630 1343 1630 1401 l 1630 220 q 1557 43 1630 90 q 1416 0 1512 0 l 285 0 q 73 146 118 0 l 68 231 l 68 1340 q 206 1554 68 1508 q 298 1563 238 1563 m 374 803 l 374 762 q 415 442 374 473 q 545 328 444 372 q 762 307 603 307 l 944 307 q 1207 358 1157 307 q 1308 496 1272 390 q 1324 686 1324 553 l 1324 868 q 1264 1150 1324 1098 q 1123 1242 1231 1209 q 868 1256 1067 1256 l 827 1256 q 510 1215 544 1256 q 399 1090 442 1185 q 374 803 374 1041 m 876 1169 q 1134 1145 1134 1169 q 1213 1074 1163 1145 q 1237 854 1237 1047 l 1237 708 q 1210 486 1237 507 q 1131 412 1187 441 q 922 393 1105 393 l 776 393 q 551 423 567 393 q 475 515 507 441 q 461 754 463 515 l 461 808 q 486 1066 461 1066 q 562 1145 503 1116 q 749 1169 594 1169 l 876 1169 m 1044 1034 q 1104 977 1044 985 q 1158 1031 1158 988 q 1101 1090 1149 1090 q 1044 1034 1044 1077 m 605 781 q 727 570 605 651 q 849 537 789 537 q 1077 694 1005 537 q 1093 779 1093 741 q 941 1006 1093 933 q 852 1025 909 1020 q 624 873 700 1025 q 605 781 610 838 m 849 939 q 996 838 945 939 q 1006 779 1006 805 q 898 632 1006 678 q 846 624 871 624 q 697 743 741 624 l 692 781 q 808 933 692 886 l 849 939 z "},"e":{"ha":1698,"x_min":68,"x_max":1630,"o":"m 849 1563 q 1438 1294 1183 1563 q 1630 784 1630 1061 q 1343 176 1630 429 q 852 0 1113 0 q 231 304 488 0 q 68 781 68 530 q 239 1267 68 1036 q 662 1538 390 1461 q 849 1563 709 1554 m 374 803 l 374 762 q 415 442 374 473 q 545 328 444 372 q 762 307 603 307 l 944 307 q 1207 358 1157 307 q 1308 496 1272 390 q 1324 686 1324 553 l 1324 868 q 1264 1150 1324 1098 q 1123 1242 1231 1209 q 868 1256 1067 1256 l 827 1256 q 510 1215 544 1256 q 399 1090 442 1185 q 374 803 374 1041 m 876 1169 q 1134 1145 1134 1169 q 1213 1074 1163 1145 q 1237 854 1237 1047 l 1237 708 q 1210 486 1237 507 q 1131 412 1187 441 q 922 393 1105 393 l 776 393 q 551 423 567 393 q 475 515 507 441 q 461 754 463 515 l 461 808 q 486 1066 461 1066 q 562 1145 503 1116 q 749 1169 594 1169 l 876 1169 m 1044 1034 q 1104 977 1044 985 q 1158 1031 1158 988 q 1101 1090 1149 1090 q 1044 1034 1044 1077 m 605 781 q 727 570 605 651 q 849 537 789 537 q 1077 694 1005 537 q 1093 779 1093 741 q 941 1006 1093 933 q 852 1025 909 1020 q 624 873 700 1025 q 605 781 610 838 m 849 939 q 996 838 945 939 q 1006 779 1006 805 q 898 632 1006 678 q 846 624 871 624 q 697 743 741 624 l 692 781 q 808 933 692 886 l 849 939 z "},"f":{"ha":1693,"x_min":68,"x_max":1625,"o":"m 849 1557 q 1009 1394 963 1488 q 1223 1451 1130 1451 l 1240 1451 q 1297 1229 1297 1333 q 1522 1169 1406 1229 q 1462 941 1522 1059 l 1465 941 q 1625 781 1563 881 l 1625 773 q 1462 613 1560 669 q 1522 388 1522 500 q 1297 328 1409 328 q 1237 103 1297 211 q 1009 163 1131 103 q 849 0 951 62 q 681 163 767 35 q 458 103 571 103 q 396 328 396 211 q 174 385 290 328 l 174 401 q 231 613 174 504 l 231 616 q 68 779 130 671 q 182 911 83 821 q 231 947 231 938 q 174 1153 174 1051 l 174 1166 q 374 1226 271 1226 l 382 1226 q 399 1253 399 1226 q 458 1451 399 1353 l 472 1451 q 681 1394 570 1451 l 684 1394 q 849 1557 755 1510 m 372 800 l 372 760 q 412 439 372 470 q 543 326 441 370 q 760 304 600 304 l 941 304 q 1204 355 1154 304 q 1305 494 1269 387 q 1321 684 1321 550 l 1321 865 q 1261 1147 1321 1095 q 1120 1240 1228 1206 q 865 1253 1064 1253 l 825 1253 q 507 1213 541 1253 q 396 1088 439 1182 q 372 800 372 1038 m 873 1166 q 1131 1142 1131 1166 q 1210 1072 1160 1142 q 1234 852 1234 1044 l 1234 705 q 1207 483 1234 504 q 1128 410 1185 438 q 920 391 1102 391 l 773 391 q 548 420 564 391 q 472 513 504 439 q 458 751 460 513 l 458 806 q 483 1063 458 1063 q 559 1142 500 1113 q 746 1166 591 1166 l 873 1166 m 1042 1031 q 1101 974 1042 983 q 1156 1028 1156 985 q 1099 1088 1147 1088 q 1042 1031 1042 1074 m 602 779 q 724 567 602 648 q 846 534 786 534 q 1074 692 1002 534 q 1090 776 1090 739 q 939 1004 1090 930 q 849 1023 907 1017 q 621 871 697 1023 q 602 779 608 836 m 846 936 q 993 836 943 936 q 1004 776 1004 802 q 895 629 1004 675 q 844 621 868 621 q 694 741 738 621 l 689 779 q 806 930 689 884 l 846 936 z "},"g":{"ha":1693,"x_min":68,"x_max":1625,"o":"m 846 1557 l 1072 1332 l 1308 1329 l 1392 1329 l 1397 1324 l 1397 1009 l 1625 779 l 1400 551 l 1400 534 l 1397 231 l 1394 228 l 1077 228 l 846 0 l 618 225 l 602 225 l 298 228 l 296 231 l 296 551 l 68 779 l 293 1004 l 296 1234 l 296 1324 l 301 1329 l 616 1329 l 846 1557 m 372 800 l 372 760 q 412 439 372 470 q 543 326 441 370 q 760 304 600 304 l 941 304 q 1204 355 1154 304 q 1305 494 1269 387 q 1321 684 1321 550 l 1321 865 q 1261 1147 1321 1095 q 1120 1240 1228 1206 q 865 1253 1064 1253 l 825 1253 q 507 1213 541 1253 q 396 1088 439 1182 q 372 800 372 1038 m 873 1166 q 1131 1142 1131 1166 q 1210 1072 1160 1142 q 1234 852 1234 1044 l 1234 705 q 1207 483 1234 504 q 1128 410 1185 438 q 920 391 1102 391 l 773 391 q 548 420 564 391 q 472 513 504 439 q 458 751 460 513 l 458 806 q 483 1063 458 1063 q 559 1142 500 1113 q 746 1166 591 1166 l 873 1166 m 1042 1031 q 1101 974 1042 983 q 1156 1028 1156 985 q 1099 1088 1147 1088 q 1042 1031 1042 1074 m 602 779 q 724 567 602 648 q 846 534 786 534 q 1074 692 1002 534 q 1090 776 1090 739 q 939 1004 1090 930 q 849 1023 907 1017 q 621 871 697 1023 q 602 779 608 836 m 846 936 q 993 836 943 936 q 1004 776 1004 802 q 895 629 1004 675 q 844 621 868 621 q 694 741 738 621 l 689 779 q 806 930 689 884 l 846 936 z "},"h":{"ha":1487,"x_min":68,"x_max":1419,"o":"m 746 1557 l 1419 1166 l 1419 391 q 765 11 1407 380 q 741 0 751 0 l 68 391 l 68 1164 q 537 1438 84 1180 q 746 1557 711 1541 m 269 800 l 269 760 q 309 439 269 470 q 439 326 338 370 q 656 304 497 304 l 838 304 q 1101 355 1051 304 q 1202 494 1166 387 q 1218 684 1218 550 l 1218 865 q 1158 1147 1218 1095 q 1017 1240 1125 1206 q 762 1253 961 1253 l 722 1253 q 404 1213 438 1253 q 293 1088 336 1182 q 269 800 269 1038 m 770 1166 q 1028 1142 1028 1166 q 1107 1072 1057 1142 q 1131 852 1131 1044 l 1131 705 q 1104 483 1131 504 q 1025 410 1082 438 q 817 391 999 391 l 670 391 q 445 420 461 391 q 369 513 401 439 q 355 751 357 513 l 355 806 q 380 1063 355 1063 q 456 1142 397 1113 q 643 1166 488 1166 l 770 1166 m 939 1031 q 998 974 939 983 q 1053 1028 1053 985 q 996 1088 1044 1088 q 939 1031 939 1074 m 499 779 q 621 567 499 648 q 743 534 683 534 q 971 692 899 534 q 987 776 987 739 q 836 1004 987 930 q 746 1023 804 1017 q 518 871 594 1023 q 499 779 505 836 m 743 936 q 890 836 840 936 q 901 776 901 802 q 792 629 901 675 q 741 621 765 621 q 591 741 635 621 l 586 779 q 703 930 586 884 l 743 936 z "},"i":{"ha":1698,"x_min":68,"x_max":1630,"o":"m 73 1563 l 1625 1563 l 1630 1557 l 1630 5 l 1625 0 l 73 0 l 68 5 l 68 1557 l 73 1563 m 374 1142 q 486 1028 393 1028 l 494 1028 q 602 1128 578 1028 l 602 1145 q 518 1251 602 1219 l 491 1256 q 377 1161 407 1256 l 374 1142 m 901 857 l 898 857 l 898 941 l 711 941 l 711 307 l 906 307 l 906 618 q 1025 784 906 784 q 1120 713 1095 784 q 1128 605 1128 667 l 1128 307 l 1324 307 l 1324 629 q 1237 911 1324 861 q 1090 955 1184 955 q 901 857 973 955 m 391 941 l 391 307 l 586 307 l 586 941 l 391 941 z "},"j":{"ha":1698,"x_min":68,"x_max":1630,"o":"m 298 1563 l 1408 1563 q 1619 1438 1567 1563 q 1630 1343 1630 1401 l 1630 220 q 1557 43 1630 90 q 1416 0 1512 0 l 285 0 q 73 146 118 0 l 68 231 l 68 1340 q 206 1554 68 1508 q 298 1563 238 1563 m 374 1142 q 486 1028 393 1028 l 494 1028 q 602 1128 578 1028 l 602 1145 q 518 1251 602 1219 l 491 1256 q 377 1161 407 1256 l 374 1142 m 901 857 l 898 857 l 898 941 l 711 941 l 711 307 l 906 307 l 906 618 q 1025 784 906 784 q 1120 713 1095 784 q 1128 605 1128 667 l 1128 307 l 1324 307 l 1324 629 q 1237 911 1324 861 q 1090 955 1184 955 q 901 857 973 955 m 391 941 l 391 307 l 586 307 l 586 941 l 391 941 z "},"k":{"ha":1698,"x_min":68,"x_max":1630,"o":"m 849 1563 q 1438 1294 1183 1563 q 1630 784 1630 1061 q 1343 176 1630 429 q 852 0 1113 0 q 231 304 488 0 q 68 781 68 530 q 239 1267 68 1036 q 662 1538 390 1461 q 849 1563 709 1554 m 374 1142 q 486 1028 393 1028 l 494 1028 q 602 1128 578 1028 l 602 1145 q 518 1251 602 1219 l 491 1256 q 377 1161 407 1256 l 374 1142 m 901 857 l 898 857 l 898 941 l 711 941 l 711 307 l 906 307 l 906 618 q 1025 784 906 784 q 1120 713 1095 784 q 1128 605 1128 667 l 1128 307 l 1324 307 l 1324 629 q 1237 911 1324 861 q 1090 955 1184 955 q 901 857 973 955 m 391 941 l 391 307 l 586 307 l 586 941 l 391 941 z "},"l":{"ha":1693,"x_min":68,"x_max":1625,"o":"m 849 1557 q 1009 1394 963 1488 q 1223 1451 1130 1451 l 1240 1451 q 1297 1229 1297 1333 q 1522 1169 1406 1229 q 1462 941 1522 1059 l 1465 941 q 1625 781 1563 881 l 1625 773 q 1462 613 1560 669 q 1522 388 1522 500 q 1337 331 1407 331 l 1326 331 l 1321 336 l 1321 627 q 1234 909 1321 859 q 1088 952 1181 952 q 898 854 970 952 l 895 854 l 895 939 l 708 939 l 708 304 l 903 304 l 903 616 q 1023 781 903 781 q 1118 711 1092 781 q 1126 602 1126 664 l 1126 304 l 1289 304 l 1294 298 l 1294 285 q 1237 103 1294 216 q 1009 163 1131 103 q 849 0 951 62 q 681 163 767 35 q 458 103 571 103 q 399 301 399 208 l 401 304 l 583 304 l 583 939 l 388 939 l 388 334 l 382 328 q 174 385 296 328 l 174 401 q 231 613 174 504 l 231 616 q 68 779 130 671 q 182 911 83 821 q 231 947 231 938 q 174 1153 174 1051 l 174 1166 q 374 1226 271 1226 l 382 1226 q 399 1253 399 1226 q 458 1451 399 1353 l 472 1451 q 681 1394 570 1451 l 684 1394 q 849 1557 755 1510 m 372 1139 q 483 1025 390 1025 l 491 1025 q 600 1126 575 1025 l 600 1142 q 515 1248 600 1217 l 488 1253 q 374 1158 404 1253 l 372 1139 z "},"m":{"ha":1693,"x_min":68,"x_max":1625,"o":"m 846 1557 l 1072 1332 l 1308 1329 l 1392 1329 l 1397 1324 l 1397 1009 l 1625 779 l 1400 551 l 1400 534 l 1397 231 l 1394 228 l 1077 228 l 846 0 l 618 225 l 602 225 l 298 228 l 296 231 l 296 551 l 68 779 l 293 1004 l 296 1234 l 296 1324 l 301 1329 l 616 1329 l 846 1557 m 372 1139 q 483 1025 390 1025 l 491 1025 q 600 1126 575 1025 l 600 1142 q 515 1248 600 1217 l 488 1253 q 374 1158 404 1253 l 372 1139 m 898 854 l 895 854 l 895 939 l 708 939 l 708 304 l 903 304 l 903 616 q 1023 781 903 781 q 1118 711 1092 781 q 1126 602 1126 664 l 1126 304 l 1321 304 l 1321 627 q 1234 909 1321 859 q 1088 952 1181 952 q 898 854 970 952 m 388 939 l 388 304 l 583 304 l 583 939 l 388 939 z "},"n":{"ha":1487,"x_min":68,"x_max":1419,"o":"m 746 1557 l 1419 1166 l 1419 391 q 765 11 1407 380 q 741 0 751 0 l 68 391 l 68 1164 q 537 1438 84 1180 q 746 1557 711 1541 m 269 1139 q 380 1025 287 1025 l 388 1025 q 496 1126 472 1025 l 496 1142 q 412 1248 496 1217 l 385 1253 q 271 1158 301 1253 l 269 1139 m 795 854 l 792 854 l 792 939 l 605 939 l 605 304 l 800 304 l 800 616 q 920 781 800 781 q 1015 711 989 781 q 1023 602 1023 664 l 1023 304 l 1218 304 l 1218 627 q 1131 909 1218 859 q 985 952 1078 952 q 795 854 867 952 m 285 939 l 285 304 l 480 304 l 480 939 l 285 939 z "},"o":{"ha":1698,"x_min":68,"x_max":1630,"o":"m 73 1563 l 1625 1563 l 1630 1557 l 1630 5 l 1625 0 l 73 0 l 68 5 l 68 1557 l 73 1563 m 605 1012 q 732 795 605 878 q 849 765 793 765 q 1080 928 1004 765 q 1093 1012 1093 981 q 944 1237 1093 1159 q 849 1256 901 1251 q 667 1172 749 1256 q 605 1012 605 1095 m 849 1112 q 949 1012 949 1095 l 949 1009 q 852 909 935 909 l 841 909 q 749 1012 749 928 q 849 1112 767 1112 m 575 684 q 746 567 575 612 l 746 564 q 597 396 597 417 l 594 377 q 651 307 594 328 l 667 307 q 770 385 703 307 l 849 458 l 852 458 q 1015 309 1000 309 l 1031 307 l 1039 307 q 1107 377 1089 307 q 996 518 1107 420 q 955 570 955 557 q 1123 681 1123 610 l 1123 692 q 1055 757 1123 742 q 971 724 1032 757 q 857 700 917 700 l 841 700 q 665 754 763 700 l 643 757 q 575 689 575 739 l 575 684 z "},"p":{"ha":1698,"x_min":68,"x_max":1630,"o":"m 298 1563 l 1408 1563 q 1619 1438 1567 1563 q 1630 1343 1630 1401 l 1630 220 q 1557 43 1630 90 q 1416 0 1512 0 l 285 0 q 73 146 118 0 l 68 231 l 68 1340 q 206 1554 68 1508 q 298 1563 238 1563 m 605 1012 q 732 795 605 878 q 849 765 793 765 q 1080 928 1004 765 q 1093 1012 1093 981 q 944 1237 1093 1159 q 849 1256 901 1251 q 667 1172 749 1256 q 605 1012 605 1095 m 849 1112 q 949 1012 949 1095 l 949 1009 q 852 909 935 909 l 841 909 q 749 1012 749 928 q 849 1112 767 1112 m 575 684 q 746 567 575 612 l 746 564 q 597 396 597 417 l 594 377 q 651 307 594 328 l 667 307 q 770 385 703 307 l 849 458 l 852 458 q 1015 309 1000 309 l 1031 307 l 1039 307 q 1107 377 1089 307 q 996 518 1107 420 q 955 570 955 557 q 1123 681 1123 610 l 1123 692 q 1055 757 1123 742 q 971 724 1032 757 q 857 700 917 700 l 841 700 q 665 754 763 700 l 643 757 q 575 689 575 739 l 575 684 z "},"q":{"ha":1698,"x_min":68,"x_max":1630,"o":"m 849 1563 q 1438 1294 1183 1563 q 1630 784 1630 1061 q 1343 176 1630 429 q 852 0 1113 0 q 231 304 488 0 q 68 781 68 530 q 239 1267 68 1036 q 662 1538 390 1461 q 849 1563 709 1554 m 605 1012 q 732 795 605 878 q 849 765 793 765 q 1080 928 1004 765 q 1093 1012 1093 981 q 944 1237 1093 1159 q 849 1256 901 1251 q 667 1172 749 1256 q 605 1012 605 1095 m 849 1112 q 949 1012 949 1095 l 949 1009 q 852 909 935 909 l 841 909 q 749 1012 749 928 q 849 1112 767 1112 m 575 684 q 746 567 575 612 l 746 564 q 597 396 597 417 l 594 377 q 651 307 594 328 l 667 307 q 770 385 703 307 l 849 458 l 852 458 q 1015 309 1000 309 l 1031 307 l 1039 307 q 1107 377 1089 307 q 996 518 1107 420 q 955 570 955 557 q 1123 681 1123 610 l 1123 692 q 1055 757 1123 742 q 971 724 1032 757 q 857 700 917 700 l 841 700 q 665 754 763 700 l 643 757 q 575 689 575 739 l 575 684 z "},"r":{"ha":1693,"x_min":68,"x_max":1625,"o":"m 849 1557 q 1009 1394 963 1488 q 1223 1451 1130 1451 l 1240 1451 q 1297 1229 1297 1333 q 1522 1169 1406 1229 q 1462 941 1522 1059 l 1465 941 q 1625 781 1563 881 l 1625 773 q 1462 613 1560 669 q 1522 388 1522 500 q 1297 328 1409 328 q 1237 103 1297 211 q 1009 163 1131 103 q 849 0 951 62 q 681 163 767 35 q 458 103 571 103 q 396 328 396 211 q 174 385 290 328 l 174 401 q 231 613 174 504 l 231 616 q 68 779 130 671 q 182 911 83 821 q 231 947 231 938 q 174 1153 174 1051 l 174 1166 q 374 1226 271 1226 l 382 1226 q 399 1253 399 1226 q 458 1451 399 1353 l 472 1451 q 681 1394 570 1451 l 684 1394 q 849 1557 755 1510 m 602 1009 q 730 792 602 876 q 846 762 791 762 q 1077 925 1002 762 q 1090 1009 1090 979 q 941 1234 1090 1156 q 846 1253 899 1248 q 665 1169 746 1253 q 602 1009 602 1093 m 846 1109 q 947 1009 947 1093 l 947 1006 q 849 906 932 906 l 838 906 q 746 1009 746 926 q 846 1109 764 1109 m 572 681 q 743 564 572 610 l 743 562 q 594 393 594 414 l 591 374 q 648 304 591 326 l 665 304 q 768 382 701 304 l 846 456 l 849 456 q 1012 307 997 307 l 1028 304 l 1036 304 q 1104 374 1086 304 q 993 515 1104 418 q 952 567 952 555 q 1120 678 1120 608 l 1120 689 q 1053 754 1120 739 q 968 722 1029 754 q 854 697 914 697 l 838 697 q 662 751 760 697 l 640 754 q 572 686 572 736 l 572 681 z "},"s":{"ha":1693,"x_min":68,"x_max":1625,"o":"m 846 1557 l 1072 1332 l 1308 1329 l 1392 1329 l 1397 1324 l 1397 1009 l 1625 779 l 1400 551 l 1400 534 l 1397 231 l 1394 228 l 1077 228 l 846 0 l 618 225 l 602 225 l 298 228 l 296 231 l 296 551 l 68 779 l 293 1004 l 296 1234 l 296 1324 l 301 1329 l 616 1329 l 846 1557 m 602 1009 q 730 792 602 876 q 846 762 791 762 q 1077 925 1002 762 q 1090 1009 1090 979 q 941 1234 1090 1156 q 846 1253 899 1248 q 665 1169 746 1253 q 602 1009 602 1093 m 846 1109 q 947 1009 947 1093 l 947 1006 q 849 906 932 906 l 838 906 q 746 1009 746 926 q 846 1109 764 1109 m 572 681 q 743 564 572 610 l 743 562 q 594 393 594 414 l 591 374 q 648 304 591 326 l 665 304 q 768 382 701 304 l 846 456 l 849 456 q 1012 307 997 307 l 1028 304 l 1036 304 q 1104 374 1086 304 q 993 515 1104 418 q 952 567 952 555 q 1120 678 1120 608 l 1120 689 q 1053 754 1120 739 q 968 722 1029 754 q 854 697 914 697 l 838 697 q 662 751 760 697 l 640 754 q 572 686 572 736 l 572 681 z "},"t":{"ha":1487,"x_min":68,"x_max":1419,"o":"m 746 1557 l 1419 1166 l 1419 391 q 765 11 1407 380 q 741 0 751 0 l 68 391 l 68 1164 q 537 1438 84 1180 q 746 1557 711 1541 m 499 1009 q 627 792 499 876 q 743 762 688 762 q 974 925 899 762 q 987 1009 987 979 q 838 1234 987 1156 q 743 1253 795 1248 q 562 1169 643 1253 q 499 1009 499 1093 m 743 1109 q 844 1009 844 1093 l 844 1006 q 746 906 829 906 l 735 906 q 643 1009 643 926 q 743 1109 661 1109 m 469 681 q 640 564 469 610 l 640 562 q 491 393 491 414 l 488 374 q 545 304 488 326 l 562 304 q 665 382 597 304 l 743 456 l 746 456 q 909 307 894 307 l 925 304 l 933 304 q 1001 374 983 304 q 890 515 1001 418 q 849 567 849 555 q 1017 678 1017 608 l 1017 689 q 949 754 1017 739 q 865 722 926 754 q 751 697 811 697 l 735 697 q 559 751 657 697 l 537 754 q 469 686 469 736 l 469 681 z "},"u":{"ha":1698,"x_min":68,"x_max":1630,"o":"m 73 1563 l 1625 1563 l 1630 1557 l 1630 5 l 1625 0 l 73 0 l 68 5 l 68 1557 l 73 1563 m 486 914 q 586 697 486 779 q 610 686 602 686 q 635 770 624 686 l 635 773 q 589 906 589 842 q 632 1047 589 976 q 844 1156 716 1156 q 1074 1001 1011 1156 q 1085 922 1085 953 q 941 667 1076 711 q 898 662 926 662 q 822 724 847 662 l 819 743 l 868 941 l 868 949 q 811 1034 868 1021 l 798 1036 q 694 909 694 1017 l 692 898 q 711 811 692 862 q 637 469 637 516 l 637 431 q 648 307 637 379 l 651 307 q 784 629 750 445 l 787 632 l 792 632 q 914 570 842 570 l 917 570 q 1185 773 1098 570 q 1213 920 1213 853 q 1009 1226 1213 1130 q 865 1256 933 1256 q 510 1039 608 1256 q 486 914 486 968 z "},"v":{"ha":1698,"x_min":68,"x_max":1630,"o":"m 298 1563 l 1408 1563 q 1619 1438 1567 1563 q 1630 1343 1630 1401 l 1630 220 q 1557 43 1630 90 q 1416 0 1512 0 l 285 0 q 73 146 118 0 l 68 231 l 68 1340 q 206 1554 68 1508 q 298 1563 238 1563 m 486 914 q 586 697 486 779 q 610 686 602 686 q 635 770 624 686 l 635 773 q 589 906 589 842 q 632 1047 589 976 q 844 1156 716 1156 q 1074 1001 1011 1156 q 1085 922 1085 953 q 941 667 1076 711 q 898 662 926 662 q 822 724 847 662 l 819 743 l 868 941 l 868 949 q 811 1034 868 1021 l 798 1036 q 694 909 694 1017 l 692 898 q 711 811 692 862 q 637 469 637 516 l 637 431 q 648 307 637 379 l 651 307 q 784 629 750 445 l 787 632 l 792 632 q 914 570 842 570 l 917 570 q 1185 773 1098 570 q 1213 920 1213 853 q 1009 1226 1213 1130 q 865 1256 933 1256 q 510 1039 608 1256 q 486 914 486 968 z "},"w":{"ha":1698,"x_min":68,"x_max":1630,"o":"m 849 1563 q 1438 1294 1183 1563 q 1630 784 1630 1061 q 1343 176 1630 429 q 852 0 1113 0 q 231 304 488 0 q 68 781 68 530 q 239 1267 68 1036 q 662 1538 390 1461 q 849 1563 709 1554 m 486 914 q 586 697 486 779 q 610 686 602 686 q 635 770 624 686 l 635 773 q 589 906 589 842 q 632 1047 589 976 q 844 1156 716 1156 q 1074 1001 1011 1156 q 1085 922 1085 953 q 941 667 1076 711 q 898 662 926 662 q 822 724 847 662 l 819 743 l 868 941 l 868 949 q 811 1034 868 1021 l 798 1036 q 694 909 694 1017 l 692 898 q 711 811 692 862 q 637 469 637 516 l 637 431 q 648 307 637 379 l 651 307 q 784 629 750 445 l 787 632 l 792 632 q 914 570 842 570 l 917 570 q 1185 773 1098 570 q 1213 920 1213 853 q 1009 1226 1213 1130 q 865 1256 933 1256 q 510 1039 608 1256 q 486 914 486 968 z "},"x":{"ha":1693,"x_min":68,"x_max":1625,"o":"m 849 1557 q 1009 1394 963 1488 q 1223 1451 1130 1451 l 1240 1451 q 1297 1229 1297 1333 q 1522 1169 1406 1229 q 1462 941 1522 1059 l 1465 941 q 1625 781 1563 881 l 1625 773 q 1462 613 1560 669 q 1522 388 1522 500 q 1297 328 1409 328 q 1237 103 1297 211 q 1009 163 1131 103 q 849 0 951 62 q 681 163 767 35 q 458 103 571 103 q 396 328 396 211 q 174 385 290 328 l 174 401 q 231 613 174 504 l 231 616 q 68 779 130 671 q 182 911 83 821 q 231 947 231 938 q 174 1153 174 1051 l 174 1166 q 374 1226 271 1226 l 382 1226 q 399 1253 399 1226 q 458 1451 399 1353 l 472 1451 q 681 1394 570 1451 l 684 1394 q 849 1557 755 1510 m 483 911 q 583 694 483 777 q 608 684 600 684 q 632 768 621 684 l 632 770 q 586 903 586 840 q 629 1044 586 973 q 841 1153 713 1153 q 1072 998 1008 1153 q 1082 920 1082 950 q 939 665 1074 709 q 895 659 924 659 q 819 722 844 659 l 817 741 l 865 939 l 865 947 q 808 1031 865 1019 l 795 1034 q 692 906 692 1015 l 689 895 q 708 808 689 859 q 635 467 635 513 l 635 429 q 646 304 635 376 l 648 304 q 781 627 747 442 l 784 629 l 789 629 q 911 567 839 567 l 914 567 q 1183 770 1095 567 q 1210 917 1210 850 q 1006 1223 1210 1127 q 863 1253 930 1253 q 507 1036 606 1253 q 483 911 483 965 z "},"y":{"ha":1693,"x_min":68,"x_max":1625,"o":"m 846 1557 l 1072 1332 l 1308 1329 l 1392 1329 l 1397 1324 l 1397 1009 l 1625 779 l 1400 551 l 1400 534 l 1397 231 l 1394 228 l 1077 228 l 846 0 l 618 225 l 602 225 l 298 228 l 296 231 l 296 551 l 68 779 l 293 1004 l 296 1234 l 296 1324 l 301 1329 l 616 1329 l 846 1557 m 483 911 q 583 694 483 777 q 608 684 600 684 q 632 768 621 684 l 632 770 q 586 903 586 840 q 629 1044 586 973 q 841 1153 713 1153 q 1072 998 1008 1153 q 1082 920 1082 950 q 939 665 1074 709 q 895 659 924 659 q 819 722 844 659 l 817 741 l 865 939 l 865 947 q 808 1031 865 1019 l 795 1034 q 692 906 692 1015 l 689 895 q 708 808 689 859 q 635 467 635 513 l 635 429 q 646 304 635 376 l 648 304 q 781 627 747 442 l 784 629 l 789 629 q 911 567 839 567 l 914 567 q 1183 770 1095 567 q 1210 917 1210 850 q 1006 1223 1210 1127 q 863 1253 930 1253 q 507 1036 606 1253 q 483 911 483 965 z "},"z":{"ha":1487,"x_min":68,"x_max":1419,"o":"m 746 1557 l 1419 1166 l 1419 391 q 765 11 1407 380 q 741 0 751 0 l 68 391 l 68 1164 q 537 1438 84 1180 q 746 1557 711 1541 m 380 911 q 480 694 380 777 q 505 684 496 684 q 529 768 518 684 l 529 770 q 483 903 483 840 q 526 1044 483 973 q 738 1153 610 1153 q 968 998 905 1153 q 979 920 979 950 q 836 665 970 709 q 792 659 821 659 q 716 722 741 659 l 713 741 l 762 939 l 762 947 q 705 1031 762 1019 l 692 1034 q 589 906 589 1015 l 586 895 q 605 808 586 859 q 532 467 532 513 l 532 429 q 543 304 532 376 l 545 304 q 678 627 644 442 l 681 629 l 686 629 q 808 567 736 567 l 811 567 q 1080 770 992 567 q 1107 917 1107 850 q 903 1223 1107 1127 q 760 1253 827 1253 q 404 1036 503 1253 q 380 911 380 965 z "},"{":{"ha":1698,"x_min":68,"x_max":1630,"o":"m 73 1563 l 1625 1563 l 1630 1557 l 1630 5 l 1625 0 l 73 0 l 68 5 l 68 1557 l 73 1563 m 1077 1164 l 901 1199 q 863 1072 881 1199 l 833 936 q 548 849 699 936 q 477 876 517 876 q 377 776 377 860 l 374 773 q 437 678 374 713 l 437 675 l 434 656 q 711 374 434 459 q 849 358 784 358 q 1199 491 1065 358 q 1264 656 1264 562 l 1264 659 l 1261 678 q 1324 776 1324 712 q 1221 879 1305 879 q 1147 849 1181 879 q 968 925 1031 918 q 871 941 877 937 l 920 1158 q 1074 1120 1074 1131 q 1139 1058 1074 1074 l 1145 1058 q 1221 1131 1221 1068 l 1221 1134 q 1147 1204 1221 1187 q 1077 1164 1110 1204 m 684 773 q 760 711 739 773 l 760 694 q 684 627 745 627 q 613 684 633 627 l 610 697 q 684 773 623 773 m 1012 773 q 1082 716 1062 773 l 1085 697 l 1085 694 q 1017 627 1067 627 l 1006 627 q 939 703 939 641 q 996 770 939 748 l 1012 773 m 681 537 l 692 537 q 852 488 749 488 q 1006 537 950 488 l 1017 537 q 1028 518 1028 533 l 1028 510 q 846 450 977 450 q 667 515 716 450 l 667 521 q 681 537 671 532 z "},"|":{"ha":1698,"x_min":68,"x_max":1630,"o":"m 298 1563 l 1408 1563 q 1619 1438 1567 1563 q 1630 1343 1630 1401 l 1630 220 q 1557 43 1630 90 q 1416 0 1512 0 l 285 0 q 73 146 118 0 l 68 231 l 68 1340 q 206 1554 68 1508 q 298 1563 238 1563 m 1077 1164 l 901 1199 q 863 1072 881 1199 l 833 936 q 548 849 699 936 q 477 876 517 876 q 377 776 377 860 l 374 773 q 437 678 374 713 l 437 675 l 434 656 q 711 374 434 459 q 849 358 784 358 q 1199 491 1065 358 q 1264 656 1264 562 l 1264 659 l 1261 678 q 1324 776 1324 712 q 1221 879 1305 879 q 1147 849 1181 879 q 968 925 1031 918 q 871 941 877 937 l 920 1158 q 1074 1120 1074 1131 q 1139 1058 1074 1074 l 1145 1058 q 1221 1131 1221 1068 l 1221 1134 q 1147 1204 1221 1187 q 1077 1164 1110 1204 m 684 773 q 760 711 739 773 l 760 694 q 684 627 745 627 q 613 684 633 627 l 610 697 q 684 773 623 773 m 1012 773 q 1082 716 1062 773 l 1085 697 l 1085 694 q 1017 627 1067 627 l 1006 627 q 939 703 939 641 q 996 770 939 748 l 1012 773 m 681 537 l 692 537 q 852 488 749 488 q 1006 537 950 488 l 1017 537 q 1028 518 1028 533 l 1028 510 q 846 450 977 450 q 667 515 716 450 l 667 521 q 681 537 671 532 z "},"}":{"ha":1698,"x_min":68,"x_max":1630,"o":"m 849 1563 q 1438 1294 1183 1563 q 1630 784 1630 1061 q 1343 176 1630 429 q 852 0 1113 0 q 231 304 488 0 q 68 781 68 530 q 239 1267 68 1036 q 662 1538 390 1461 q 849 1563 709 1554 m 1077 1164 l 901 1199 q 863 1072 881 1199 l 833 936 q 548 849 699 936 q 477 876 517 876 q 377 776 377 860 l 374 773 q 437 678 374 713 l 437 675 l 434 656 q 711 374 434 459 q 849 358 784 358 q 1199 491 1065 358 q 1264 656 1264 562 l 1264 659 l 1261 678 q 1324 776 1324 712 q 1221 879 1305 879 q 1147 849 1181 879 q 968 925 1031 918 q 871 941 877 937 l 920 1158 q 1074 1120 1074 1131 q 1139 1058 1074 1074 l 1145 1058 q 1221 1131 1221 1068 l 1221 1134 q 1147 1204 1221 1187 q 1077 1164 1110 1204 m 684 773 q 760 711 739 773 l 760 694 q 684 627 745 627 q 613 684 633 627 l 610 697 q 684 773 623 773 m 1012 773 q 1082 716 1062 773 l 1085 697 l 1085 694 q 1017 627 1067 627 l 1006 627 q 939 703 939 641 q 996 770 939 748 l 1012 773 m 681 537 l 692 537 q 852 488 749 488 q 1006 537 950 488 l 1017 537 q 1028 518 1028 533 l 1028 510 q 846 450 977 450 q 667 515 716 450 l 667 521 q 681 537 671 532 z "},"~":{"ha":1693,"x_min":68,"x_max":1625,"o":"m 849 1557 q 1009 1394 963 1488 q 1223 1451 1130 1451 l 1240 1451 q 1297 1229 1297 1333 q 1522 1169 1406 1229 q 1462 941 1522 1059 l 1465 941 q 1625 781 1563 881 l 1625 773 q 1462 613 1560 669 q 1522 388 1522 500 q 1297 328 1409 328 q 1237 103 1297 211 q 1009 163 1131 103 q 849 0 951 62 q 681 163 767 35 q 458 103 571 103 q 396 328 396 211 q 174 385 290 328 l 174 401 q 231 613 174 504 l 231 616 q 68 779 130 671 q 182 911 83 821 q 231 947 231 938 q 174 1153 174 1051 l 174 1166 q 374 1226 271 1226 l 382 1226 q 399 1253 399 1226 q 458 1451 399 1353 l 472 1451 q 681 1394 570 1451 l 684 1394 q 849 1557 755 1510 m 1074 1161 l 898 1196 q 860 1069 878 1196 l 830 933 q 545 846 696 933 q 475 873 515 873 q 374 773 374 857 l 372 770 q 434 675 372 711 l 434 673 l 431 654 q 708 372 431 456 q 846 355 781 355 q 1196 488 1062 355 q 1261 654 1261 559 l 1261 656 l 1259 675 q 1321 773 1321 709 q 1218 876 1303 876 q 1145 846 1179 876 q 966 922 1029 915 q 868 939 874 934 l 917 1156 q 1072 1118 1072 1128 q 1137 1055 1072 1072 l 1142 1055 q 1218 1128 1218 1065 l 1218 1131 q 1145 1202 1218 1185 q 1074 1161 1107 1202 m 681 770 q 757 708 736 770 l 757 692 q 681 624 743 624 q 610 681 631 624 l 608 694 q 681 770 621 770 m 1009 770 q 1080 713 1059 770 l 1082 694 l 1082 692 q 1015 624 1065 624 l 1004 624 q 936 700 936 638 q 993 768 936 745 l 1009 770 m 678 534 l 689 534 q 849 486 746 486 q 1004 534 947 486 l 1015 534 q 1025 515 1025 530 l 1025 507 q 844 448 974 448 q 665 513 713 448 l 665 518 q 678 534 669 530 z "},"":{"ha":1693,"x_min":68,"x_max":1625,"o":"m 846 1557 l 1072 1332 l 1308 1329 l 1392 1329 l 1397 1324 l 1397 1009 l 1625 779 l 1400 551 l 1400 534 l 1397 231 l 1394 228 l 1077 228 l 846 0 l 618 225 l 602 225 l 298 228 l 296 231 l 296 551 l 68 779 l 293 1004 l 296 1234 l 296 1324 l 301 1329 l 616 1329 l 846 1557 m 1074 1161 l 898 1196 q 860 1069 878 1196 l 830 933 q 545 846 696 933 q 475 873 515 873 q 374 773 374 857 l 372 770 q 434 675 372 711 l 434 673 l 431 654 q 708 372 431 456 q 846 355 781 355 q 1196 488 1062 355 q 1261 654 1261 559 l 1261 656 l 1259 675 q 1321 773 1321 709 q 1218 876 1303 876 q 1145 846 1179 876 q 966 922 1029 915 q 868 939 874 934 l 917 1156 q 1072 1118 1072 1128 q 1137 1055 1072 1072 l 1142 1055 q 1218 1128 1218 1065 l 1218 1131 q 1145 1202 1218 1185 q 1074 1161 1107 1202 m 681 770 q 757 708 736 770 l 757 692 q 681 624 743 624 q 610 681 631 624 l 608 694 q 681 770 621 770 m 1009 770 q 1080 713 1059 770 l 1082 694 l 1082 692 q 1015 624 1065 624 l 1004 624 q 936 700 936 638 q 993 768 936 745 l 1009 770 m 678 534 l 689 534 q 849 486 746 486 q 1004 534 947 486 l 1015 534 q 1025 515 1025 530 l 1025 507 q 844 448 974 448 q 665 513 713 448 l 665 518 q 678 534 669 530 z "},"":{"ha":1487,"x_min":68,"x_max":1419,"o":"m 746 1557 l 1419 1166 l 1419 391 q 765 11 1407 380 q 741 0 751 0 l 68 391 l 68 1164 q 537 1438 84 1180 q 746 1557 711 1541 m 971 1161 l 795 1196 q 757 1069 775 1196 l 727 933 q 442 846 593 933 q 372 873 412 873 q 271 773 271 857 l 269 770 q 331 675 269 711 l 331 673 l 328 654 q 605 372 328 456 q 743 355 678 355 q 1093 488 959 355 q 1158 654 1158 559 l 1158 656 l 1156 675 q 1218 773 1218 709 q 1115 876 1200 876 q 1042 846 1076 876 q 863 922 926 915 q 765 939 771 934 l 814 1156 q 968 1118 968 1128 q 1034 1055 968 1072 l 1039 1055 q 1115 1128 1115 1065 l 1115 1131 q 1042 1202 1115 1185 q 971 1161 1004 1202 m 578 770 q 654 708 633 770 l 654 692 q 578 624 640 624 q 507 681 528 624 l 505 694 q 578 770 517 770 m 906 770 q 977 713 956 770 l 979 694 l 979 692 q 911 624 962 624 l 901 624 q 833 700 833 638 q 890 768 833 745 l 906 770 m 575 534 l 586 534 q 746 486 643 486 q 901 534 844 486 l 911 534 q 922 515 922 530 l 922 507 q 741 448 871 448 q 562 513 610 448 l 562 518 q 575 534 566 530 z "},"":{"ha":1698,"x_min":68,"x_max":1630,"o":"m 73 1563 l 1625 1563 l 1630 1557 l 1630 5 l 1625 0 l 73 0 l 68 5 l 68 1557 l 73 1563 m 757 1248 l 757 1245 l 760 1229 l 760 1221 l 852 1229 l 852 1256 l 757 1248 m 890 1253 l 890 1232 q 933 1223 890 1223 q 979 1213 933 1220 l 987 1237 l 985 1237 l 890 1253 m 627 1204 q 640 1183 636 1183 q 724 1210 711 1210 q 716 1237 723 1237 l 627 1204 m 1023 1223 l 1015 1199 l 1017 1199 l 1099 1161 l 1099 1164 l 1109 1183 q 1023 1223 1048 1217 m 515 1126 l 532 1109 l 605 1164 l 591 1183 l 589 1183 q 515 1126 555 1163 m 1139 1158 l 1128 1137 q 1196 1080 1136 1137 l 1215 1096 l 1145 1158 l 1139 1158 m 480 811 q 591 570 480 677 q 608 423 605 570 l 618 415 l 621 415 q 749 486 635 416 q 860 472 804 472 q 1158 627 1034 472 q 1218 814 1218 711 q 1015 1118 1218 1004 q 849 1153 921 1153 q 534 987 656 1153 q 480 811 480 901 m 486 1099 q 434 1020 434 1034 l 453 1009 l 456 1009 q 507 1082 469 1038 l 488 1099 l 486 1099 m 1218 1047 q 1267 971 1240 1019 l 1289 982 l 1242 1063 l 1237 1063 l 1218 1047 m 412 987 q 385 895 385 913 l 410 890 l 437 977 l 412 987 m 1278 939 q 1294 849 1294 879 l 1321 849 q 1302 947 1316 899 l 1278 939 m 377 854 l 377 838 l 380 757 l 407 762 l 401 827 l 404 854 l 377 854 m 1297 811 l 1283 722 l 1308 713 l 1308 716 q 1321 811 1318 759 l 1297 811 m 388 719 q 426 629 403 671 q 448 643 448 639 q 415 727 429 675 l 388 719 m 1272 686 q 1232 605 1259 650 l 1251 591 q 1297 678 1277 629 l 1272 686 m 445 594 l 445 591 q 507 521 466 557 l 524 540 q 467 610 477 590 l 445 594 m 1210 575 l 1145 507 l 1164 491 l 1229 559 l 1210 575 m 521 494 l 548 404 l 572 412 l 545 502 l 521 494 m 1034 445 l 1044 420 q 1128 469 1097 444 l 1115 488 l 1034 445 m 909 412 l 911 393 l 911 388 q 1006 407 956 393 l 998 431 q 909 412 963 420 m 730 423 q 654 380 730 418 q 665 355 654 372 q 741 401 740 394 l 743 420 l 741 420 l 730 423 m 781 415 l 776 388 l 863 382 l 873 382 l 873 410 l 846 410 l 781 415 m 559 366 l 575 307 l 632 336 l 621 361 l 618 361 l 597 347 l 591 347 l 583 374 l 559 366 z "},"":{"ha":1698,"x_min":68,"x_max":1630,"o":"m 298 1563 l 1408 1563 q 1619 1438 1567 1563 q 1630 1343 1630 1401 l 1630 220 q 1557 43 1630 90 q 1416 0 1512 0 l 285 0 q 73 146 118 0 l 68 231 l 68 1340 q 206 1554 68 1508 q 298 1563 238 1563 m 757 1248 l 757 1245 l 760 1229 l 760 1221 l 852 1229 l 852 1256 l 757 1248 m 890 1253 l 890 1232 q 933 1223 890 1223 q 979 1213 933 1220 l 987 1237 l 985 1237 l 890 1253 m 627 1204 q 640 1183 636 1183 q 724 1210 711 1210 q 716 1237 723 1237 l 627 1204 m 1023 1223 l 1015 1199 l 1017 1199 l 1099 1161 l 1099 1164 l 1109 1183 q 1023 1223 1048 1217 m 515 1126 l 532 1109 l 605 1164 l 591 1183 l 589 1183 q 515 1126 555 1163 m 1139 1158 l 1128 1137 q 1196 1080 1136 1137 l 1215 1096 l 1145 1158 l 1139 1158 m 480 811 q 591 570 480 677 q 608 423 605 570 l 618 415 l 621 415 q 749 486 635 416 q 860 472 804 472 q 1158 627 1034 472 q 1218 814 1218 711 q 1015 1118 1218 1004 q 849 1153 921 1153 q 534 987 656 1153 q 480 811 480 901 m 486 1099 q 434 1020 434 1034 l 453 1009 l 456 1009 q 507 1082 469 1038 l 488 1099 l 486 1099 m 1218 1047 q 1267 971 1240 1019 l 1289 982 l 1242 1063 l 1237 1063 l 1218 1047 m 412 987 q 385 895 385 913 l 410 890 l 437 977 l 412 987 m 1278 939 q 1294 849 1294 879 l 1321 849 q 1302 947 1316 899 l 1278 939 m 377 854 l 377 838 l 380 757 l 407 762 l 401 827 l 404 854 l 377 854 m 1297 811 l 1283 722 l 1308 713 l 1308 716 q 1321 811 1318 759 l 1297 811 m 388 719 q 426 629 403 671 q 448 643 448 639 q 415 727 429 675 l 388 719 m 1272 686 q 1232 605 1259 650 l 1251 591 q 1297 678 1277 629 l 1272 686 m 445 594 l 445 591 q 507 521 466 557 l 524 540 q 467 610 477 590 l 445 594 m 1210 575 l 1145 507 l 1164 491 l 1229 559 l 1210 575 m 521 494 l 548 404 l 572 412 l 545 502 l 521 494 m 1034 445 l 1044 420 q 1128 469 1097 444 l 1115 488 l 1034 445 m 909 412 l 911 393 l 911 388 q 1006 407 956 393 l 998 431 q 909 412 963 420 m 730 423 q 654 380 730 418 q 665 355 654 372 q 741 401 740 394 l 743 420 l 741 420 l 730 423 m 781 415 l 776 388 l 863 382 l 873 382 l 873 410 l 846 410 l 781 415 m 559 366 l 575 307 l 632 336 l 621 361 l 618 361 l 597 347 l 591 347 l 583 374 l 559 366 z "},"":{"ha":1698,"x_min":68,"x_max":1630,"o":"m 849 1563 q 1438 1294 1183 1563 q 1630 784 1630 1061 q 1343 176 1630 429 q 852 0 1113 0 q 231 304 488 0 q 68 781 68 530 q 239 1267 68 1036 q 662 1538 390 1461 q 849 1563 709 1554 m 757 1248 l 757 1245 l 760 1229 l 760 1221 l 852 1229 l 852 1256 l 757 1248 m 890 1253 l 890 1232 q 933 1223 890 1223 q 979 1213 933 1220 l 987 1237 l 985 1237 l 890 1253 m 627 1204 q 640 1183 636 1183 q 724 1210 711 1210 q 716 1237 723 1237 l 627 1204 m 1023 1223 l 1015 1199 l 1017 1199 l 1099 1161 l 1099 1164 l 1109 1183 q 1023 1223 1048 1217 m 515 1126 l 532 1109 l 605 1164 l 591 1183 l 589 1183 q 515 1126 555 1163 m 1139 1158 l 1128 1137 q 1196 1080 1136 1137 l 1215 1096 l 1145 1158 l 1139 1158 m 480 811 q 591 570 480 677 q 608 423 605 570 l 618 415 l 621 415 q 749 486 635 416 q 860 472 804 472 q 1158 627 1034 472 q 1218 814 1218 711 q 1015 1118 1218 1004 q 849 1153 921 1153 q 534 987 656 1153 q 480 811 480 901 m 486 1099 q 434 1020 434 1034 l 453 1009 l 456 1009 q 507 1082 469 1038 l 488 1099 l 486 1099 m 1218 1047 q 1267 971 1240 1019 l 1289 982 l 1242 1063 l 1237 1063 l 1218 1047 m 412 987 q 385 895 385 913 l 410 890 l 437 977 l 412 987 m 1278 939 q 1294 849 1294 879 l 1321 849 q 1302 947 1316 899 l 1278 939 m 377 854 l 377 838 l 380 757 l 407 762 l 401 827 l 404 854 l 377 854 m 1297 811 l 1283 722 l 1308 713 l 1308 716 q 1321 811 1318 759 l 1297 811 m 388 719 q 426 629 403 671 q 448 643 448 639 q 415 727 429 675 l 388 719 m 1272 686 q 1232 605 1259 650 l 1251 591 q 1297 678 1277 629 l 1272 686 m 445 594 l 445 591 q 507 521 466 557 l 524 540 q 467 610 477 590 l 445 594 m 1210 575 l 1145 507 l 1164 491 l 1229 559 l 1210 575 m 521 494 l 548 404 l 572 412 l 545 502 l 521 494 m 1034 445 l 1044 420 q 1128 469 1097 444 l 1115 488 l 1034 445 m 909 412 l 911 393 l 911 388 q 1006 407 956 393 l 998 431 q 909 412 963 420 m 730 423 q 654 380 730 418 q 665 355 654 372 q 741 401 740 394 l 743 420 l 741 420 l 730 423 m 781 415 l 776 388 l 863 382 l 873 382 l 873 410 l 846 410 l 781 415 m 559 366 l 575 307 l 632 336 l 621 361 l 618 361 l 597 347 l 591 347 l 583 374 l 559 366 z "},"":{"ha":1693,"x_min":68,"x_max":1625,"o":"m 849 1557 q 1009 1394 963 1488 q 1223 1451 1130 1451 l 1240 1451 q 1297 1229 1297 1333 q 1522 1169 1406 1229 q 1462 941 1522 1059 l 1465 941 q 1625 781 1563 881 l 1625 773 q 1462 613 1560 669 q 1522 388 1522 500 q 1297 328 1409 328 q 1237 103 1297 211 q 1009 163 1131 103 q 849 0 951 62 q 681 163 767 35 q 458 103 571 103 q 396 328 396 211 q 174 385 290 328 l 174 401 q 231 613 174 504 l 231 616 q 68 779 130 671 q 182 911 83 821 q 231 947 231 938 q 174 1153 174 1051 l 174 1166 q 374 1226 271 1226 l 382 1226 q 399 1253 399 1226 q 458 1451 399 1353 l 472 1451 q 681 1394 570 1451 l 684 1394 q 849 1557 755 1510 m 754 1245 l 754 1242 l 757 1226 l 757 1218 l 849 1226 l 849 1253 l 754 1245 m 887 1251 l 887 1229 q 930 1221 887 1221 q 977 1210 930 1217 l 985 1234 l 982 1234 l 887 1251 m 624 1202 q 637 1180 633 1180 q 722 1207 708 1207 q 713 1234 720 1234 l 624 1202 m 1020 1221 l 1012 1196 l 1015 1196 l 1096 1158 l 1096 1161 l 1107 1180 q 1020 1221 1046 1214 m 513 1123 l 529 1107 l 602 1161 l 589 1180 l 586 1180 q 513 1123 553 1160 m 1137 1156 l 1126 1134 q 1194 1077 1133 1134 l 1213 1093 l 1142 1156 l 1137 1156 m 477 808 q 589 567 477 674 q 605 420 602 567 l 616 412 l 618 412 q 746 483 632 414 q 857 469 801 469 q 1156 624 1031 469 q 1215 811 1215 709 q 1012 1115 1215 1002 q 846 1150 918 1150 q 532 985 654 1150 q 477 808 477 899 m 483 1096 q 431 1017 431 1031 l 450 1006 l 453 1006 q 505 1080 466 1035 l 486 1096 l 483 1096 m 1215 1044 q 1264 968 1238 1016 l 1286 979 l 1240 1061 l 1234 1061 l 1215 1044 m 410 985 q 382 892 382 911 l 407 887 l 434 974 l 410 985 m 1275 936 q 1291 846 1291 876 l 1318 846 q 1299 944 1313 896 l 1275 936 m 374 852 l 374 836 l 377 754 l 404 760 l 399 825 l 401 852 l 374 852 m 1294 808 l 1280 719 l 1305 711 l 1305 713 q 1318 808 1316 756 l 1294 808 m 385 716 q 423 627 400 668 q 445 640 445 636 q 412 724 426 673 l 385 716 m 1270 684 q 1229 602 1256 648 l 1248 589 q 1294 675 1274 626 l 1270 684 m 442 591 l 442 589 q 505 518 463 555 l 521 537 q 464 608 475 587 l 442 591 m 1207 572 l 1142 505 l 1161 488 l 1226 556 l 1207 572 m 518 491 l 545 401 l 570 410 l 543 499 l 518 491 m 1031 442 l 1042 418 q 1126 467 1094 441 l 1112 486 l 1031 442 m 906 410 l 909 391 l 909 385 q 1004 404 953 391 l 996 429 q 906 410 960 418 m 727 420 q 651 377 727 416 q 662 353 651 369 q 738 399 737 391 l 741 418 l 738 418 l 727 420 m 779 412 l 773 385 l 860 380 l 871 380 l 871 407 l 844 407 l 779 412 m 556 363 l 572 304 l 629 334 l 618 358 l 616 358 l 594 345 l 589 345 l 581 372 l 556 363 z "},"":{"ha":1693,"x_min":68,"x_max":1625,"o":"m 846 1557 l 1072 1332 l 1308 1329 l 1392 1329 l 1397 1324 l 1397 1009 l 1625 779 l 1400 551 l 1400 534 l 1397 231 l 1394 228 l 1077 228 l 846 0 l 618 225 l 602 225 l 298 228 l 296 231 l 296 551 l 68 779 l 293 1004 l 296 1234 l 296 1324 l 301 1329 l 616 1329 l 846 1557 m 754 1245 l 754 1242 l 757 1226 l 757 1218 l 849 1226 l 849 1253 l 754 1245 m 887 1251 l 887 1229 q 930 1221 887 1221 q 977 1210 930 1217 l 985 1234 l 982 1234 l 887 1251 m 624 1202 q 637 1180 633 1180 q 722 1207 708 1207 q 713 1234 720 1234 l 624 1202 m 1020 1221 l 1012 1196 l 1015 1196 l 1096 1158 l 1096 1161 l 1107 1180 q 1020 1221 1046 1214 m 513 1123 l 529 1107 l 602 1161 l 589 1180 l 586 1180 q 513 1123 553 1160 m 1137 1156 l 1126 1134 q 1194 1077 1133 1134 l 1213 1093 l 1142 1156 l 1137 1156 m 477 808 q 589 567 477 674 q 605 420 602 567 l 616 412 l 618 412 q 746 483 632 414 q 857 469 801 469 q 1156 624 1031 469 q 1215 811 1215 709 q 1012 1115 1215 1002 q 846 1150 918 1150 q 532 985 654 1150 q 477 808 477 899 m 483 1096 q 431 1017 431 1031 l 450 1006 l 453 1006 q 505 1080 466 1035 l 486 1096 l 483 1096 m 1215 1044 q 1264 968 1238 1016 l 1286 979 l 1240 1061 l 1234 1061 l 1215 1044 m 410 985 q 382 892 382 911 l 407 887 l 434 974 l 410 985 m 1275 936 q 1291 846 1291 876 l 1318 846 q 1299 944 1313 896 l 1275 936 m 374 852 l 374 836 l 377 754 l 404 760 l 399 825 l 401 852 l 374 852 m 1294 808 l 1280 719 l 1305 711 l 1305 713 q 1318 808 1316 756 l 1294 808 m 385 716 q 423 627 400 668 q 445 640 445 636 q 412 724 426 673 l 385 716 m 1270 684 q 1229 602 1256 648 l 1248 589 q 1294 675 1274 626 l 1270 684 m 442 591 l 442 589 q 505 518 463 555 l 521 537 q 464 608 475 587 l 442 591 m 1207 572 l 1142 505 l 1161 488 l 1226 556 l 1207 572 m 518 491 l 545 401 l 570 410 l 543 499 l 518 491 m 1031 442 l 1042 418 q 1126 467 1094 441 l 1112 486 l 1031 442 m 906 410 l 909 391 l 909 385 q 1004 404 953 391 l 996 429 q 906 410 960 418 m 727 420 q 651 377 727 416 q 662 353 651 369 q 738 399 737 391 l 741 418 l 738 418 l 727 420 m 779 412 l 773 385 l 860 380 l 871 380 l 871 407 l 844 407 l 779 412 m 556 363 l 572 304 l 629 334 l 618 358 l 616 358 l 594 345 l 589 345 l 581 372 l 556 363 z "},"":{"ha":1487,"x_min":68,"x_max":1419,"o":"m 746 1557 l 1419 1166 l 1419 391 q 765 11 1407 380 q 741 0 751 0 l 68 391 l 68 1164 q 537 1438 84 1180 q 746 1557 711 1541 m 651 1245 l 651 1242 l 654 1226 l 654 1218 l 746 1226 l 746 1253 l 651 1245 m 784 1251 l 784 1229 q 827 1221 784 1221 q 873 1210 827 1217 l 882 1234 l 879 1234 l 784 1251 m 521 1202 q 534 1180 530 1180 q 618 1207 605 1207 q 610 1234 617 1234 l 521 1202 m 917 1221 l 909 1196 l 911 1196 l 993 1158 l 993 1161 l 1004 1180 q 917 1221 943 1214 m 410 1123 l 426 1107 l 499 1161 l 486 1180 l 483 1180 q 410 1123 450 1160 m 1034 1156 l 1023 1134 q 1090 1077 1030 1134 l 1109 1093 l 1039 1156 l 1034 1156 m 374 808 q 486 567 374 674 q 502 420 499 567 l 513 412 l 515 412 q 643 483 529 414 q 754 469 698 469 q 1053 624 928 469 q 1112 811 1112 709 q 909 1115 1112 1002 q 743 1150 815 1150 q 429 985 551 1150 q 374 808 374 899 m 380 1096 q 328 1017 328 1031 l 347 1006 l 350 1006 q 401 1080 363 1035 l 382 1096 l 380 1096 m 1112 1044 q 1161 968 1135 1016 l 1183 979 l 1137 1061 l 1131 1061 l 1112 1044 m 307 985 q 279 892 279 911 l 304 887 l 331 974 l 307 985 m 1172 936 q 1188 846 1188 876 l 1215 846 q 1196 944 1210 896 l 1172 936 m 271 852 l 271 836 l 274 754 l 301 760 l 296 825 l 298 852 l 271 852 m 1191 808 l 1177 719 l 1202 711 l 1202 713 q 1215 808 1213 756 l 1191 808 m 282 716 q 320 627 297 668 q 342 640 342 636 q 309 724 323 673 l 282 716 m 1166 684 q 1126 602 1153 648 l 1145 589 q 1191 675 1171 626 l 1166 684 m 339 591 l 339 589 q 401 518 360 555 l 418 537 q 361 608 372 587 l 339 591 m 1104 572 l 1039 505 l 1058 488 l 1123 556 l 1104 572 m 415 491 l 442 401 l 467 410 l 439 499 l 415 491 m 928 442 l 939 418 q 1023 467 991 441 l 1009 486 l 928 442 m 803 410 l 806 391 l 806 385 q 901 404 850 391 l 892 429 q 803 410 857 418 m 624 420 q 548 377 624 416 q 559 353 548 369 q 635 399 634 391 l 637 418 l 635 418 l 624 420 m 675 412 l 670 385 l 757 380 l 768 380 l 768 407 l 741 407 l 675 412 m 453 363 l 469 304 l 526 334 l 515 358 l 513 358 l 491 345 l 486 345 l 477 372 l 453 363 z "},"":{"ha":1698,"x_min":68,"x_max":1630,"o":"m 73 1563 l 1625 1563 l 1630 1557 l 1630 5 l 1625 0 l 73 0 l 68 5 l 68 1557 l 73 1563 m 993 1128 l 993 1126 q 1020 1088 993 1098 l 1074 1093 q 1242 971 1183 1093 q 1251 914 1251 942 l 1251 909 l 1242 849 l 1242 844 q 1278 811 1242 820 q 1321 906 1321 811 l 1321 922 q 1166 1147 1321 1069 q 1077 1164 1120 1164 l 1061 1164 q 993 1128 993 1164 m 374 648 q 613 418 374 493 q 789 396 694 396 q 1142 534 989 396 q 1202 665 1202 606 q 1074 800 1202 756 l 1072 803 l 1072 811 l 1085 871 q 1006 944 1085 935 l 982 944 q 844 911 935 944 l 838 922 l 846 974 l 846 977 q 770 1055 846 1055 l 765 1055 q 472 868 644 1055 q 374 648 374 745 m 1023 1004 q 1047 971 1023 979 l 1061 974 l 1066 974 q 1131 922 1131 967 l 1128 879 q 1164 854 1139 854 q 1194 914 1194 854 l 1194 928 q 1120 1025 1194 984 l 1080 1036 q 1023 1004 1023 1036 m 754 827 l 770 827 q 1036 686 977 827 l 1039 656 l 1039 648 q 925 499 1039 566 q 719 450 833 450 q 494 548 580 450 q 469 621 469 588 q 637 806 469 732 q 754 827 715 827 m 586 597 q 667 499 586 538 q 727 488 686 492 q 871 575 810 488 q 884 629 884 609 l 884 632 q 787 746 884 716 l 749 751 q 586 632 627 751 l 586 597 m 770 665 l 773 665 l 784 654 l 784 651 q 770 629 784 636 l 757 629 q 746 646 746 635 q 770 665 754 665 m 689 640 q 738 605 738 640 l 738 597 q 686 548 738 557 l 673 548 q 637 583 637 557 l 637 591 q 689 640 637 631 z "},"":{"ha":1698,"x_min":68,"x_max":1630,"o":"m 298 1563 l 1408 1563 q 1619 1438 1567 1563 q 1630 1343 1630 1401 l 1630 220 q 1557 43 1630 90 q 1416 0 1512 0 l 285 0 q 73 146 118 0 l 68 231 l 68 1340 q 206 1554 68 1508 q 298 1563 238 1563 m 993 1128 l 993 1126 q 1020 1088 993 1098 l 1074 1093 q 1242 971 1183 1093 q 1251 914 1251 942 l 1251 909 l 1242 849 l 1242 844 q 1278 811 1242 820 q 1321 906 1321 811 l 1321 922 q 1166 1147 1321 1069 q 1077 1164 1120 1164 l 1061 1164 q 993 1128 993 1164 m 374 648 q 613 418 374 493 q 789 396 694 396 q 1142 534 989 396 q 1202 665 1202 606 q 1074 800 1202 756 l 1072 803 l 1072 811 l 1085 871 q 1006 944 1085 935 l 982 944 q 844 911 935 944 l 838 922 l 846 974 l 846 977 q 770 1055 846 1055 l 765 1055 q 472 868 644 1055 q 374 648 374 745 m 1023 1004 q 1047 971 1023 979 l 1061 974 l 1066 974 q 1131 922 1131 967 l 1128 879 q 1164 854 1139 854 q 1194 914 1194 854 l 1194 928 q 1120 1025 1194 984 l 1080 1036 q 1023 1004 1023 1036 m 754 827 l 770 827 q 1036 686 977 827 l 1039 656 l 1039 648 q 925 499 1039 566 q 719 450 833 450 q 494 548 580 450 q 469 621 469 588 q 637 806 469 732 q 754 827 715 827 m 586 597 q 667 499 586 538 q 727 488 686 492 q 871 575 810 488 q 884 629 884 609 l 884 632 q 787 746 884 716 l 749 751 q 586 632 627 751 l 586 597 m 770 665 l 773 665 l 784 654 l 784 651 q 770 629 784 636 l 757 629 q 746 646 746 635 q 770 665 754 665 m 689 640 q 738 605 738 640 l 738 597 q 686 548 738 557 l 673 548 q 637 583 637 557 l 637 591 q 689 640 637 631 z "},"":{"ha":1698,"x_min":68,"x_max":1630,"o":"m 849 1563 q 1438 1294 1183 1563 q 1630 784 1630 1061 q 1343 176 1630 429 q 852 0 1113 0 q 231 304 488 0 q 68 781 68 530 q 239 1267 68 1036 q 662 1538 390 1461 q 849 1563 709 1554 m 993 1128 l 993 1126 q 1020 1088 993 1098 l 1074 1093 q 1242 971 1183 1093 q 1251 914 1251 942 l 1251 909 l 1242 849 l 1242 844 q 1278 811 1242 820 q 1321 906 1321 811 l 1321 922 q 1166 1147 1321 1069 q 1077 1164 1120 1164 l 1061 1164 q 993 1128 993 1164 m 374 648 q 613 418 374 493 q 789 396 694 396 q 1142 534 989 396 q 1202 665 1202 606 q 1074 800 1202 756 l 1072 803 l 1072 811 l 1085 871 q 1006 944 1085 935 l 982 944 q 844 911 935 944 l 838 922 l 846 974 l 846 977 q 770 1055 846 1055 l 765 1055 q 472 868 644 1055 q 374 648 374 745 m 1023 1004 q 1047 971 1023 979 l 1061 974 l 1066 974 q 1131 922 1131 967 l 1128 879 q 1164 854 1139 854 q 1194 914 1194 854 l 1194 928 q 1120 1025 1194 984 l 1080 1036 q 1023 1004 1023 1036 m 754 827 l 770 827 q 1036 686 977 827 l 1039 656 l 1039 648 q 925 499 1039 566 q 719 450 833 450 q 494 548 580 450 q 469 621 469 588 q 637 806 469 732 q 754 827 715 827 m 586 597 q 667 499 586 538 q 727 488 686 492 q 871 575 810 488 q 884 629 884 609 l 884 632 q 787 746 884 716 l 749 751 q 586 632 627 751 l 586 597 m 770 665 l 773 665 l 784 654 l 784 651 q 770 629 784 636 l 757 629 q 746 646 746 635 q 770 665 754 665 m 689 640 q 738 605 738 640 l 738 597 q 686 548 738 557 l 673 548 q 637 583 637 557 l 637 591 q 689 640 637 631 z "},"":{"ha":1693,"x_min":68,"x_max":1625,"o":"m 849 1557 q 1009 1394 963 1488 q 1223 1451 1130 1451 l 1240 1451 q 1297 1229 1297 1333 q 1522 1169 1406 1229 q 1462 941 1522 1059 l 1465 941 q 1625 781 1563 881 l 1625 773 q 1462 613 1560 669 q 1522 388 1522 500 q 1297 328 1409 328 q 1237 103 1297 211 q 1009 163 1131 103 q 849 0 951 62 q 681 163 767 35 q 458 103 571 103 q 396 328 396 211 q 174 385 290 328 l 174 401 q 231 613 174 504 l 231 616 q 68 779 130 671 q 182 911 83 821 q 231 947 231 938 q 174 1153 174 1051 l 174 1166 q 374 1226 271 1226 l 382 1226 q 399 1253 399 1226 q 458 1451 399 1353 l 472 1451 q 681 1394 570 1451 l 684 1394 q 849 1557 755 1510 m 990 1126 l 990 1123 q 1017 1085 990 1095 l 1072 1090 q 1240 968 1181 1090 q 1248 911 1248 939 l 1248 906 l 1240 846 l 1240 841 q 1275 808 1240 817 q 1318 903 1318 808 l 1318 920 q 1164 1145 1318 1066 q 1074 1161 1117 1161 l 1058 1161 q 990 1126 990 1161 m 372 646 q 610 415 372 490 q 787 393 692 393 q 1139 532 986 393 q 1199 662 1199 604 q 1072 798 1199 753 l 1069 800 l 1069 808 l 1082 868 q 1004 941 1082 932 l 979 941 q 841 909 932 941 l 836 920 l 844 971 l 844 974 q 768 1053 844 1053 l 762 1053 q 469 865 642 1053 q 372 646 372 742 m 1020 1001 q 1044 968 1020 977 l 1058 971 l 1063 971 q 1128 920 1128 964 l 1126 876 q 1161 852 1137 852 q 1191 911 1191 852 l 1191 925 q 1118 1023 1191 981 l 1077 1034 q 1020 1001 1020 1034 m 751 825 l 768 825 q 1034 684 975 825 l 1036 654 l 1036 646 q 922 496 1036 564 q 716 448 830 448 q 491 545 577 448 q 467 618 467 585 q 635 803 467 730 q 751 825 712 825 m 583 594 q 665 496 583 536 q 724 486 683 489 q 868 572 808 486 q 882 627 882 606 l 882 629 q 784 743 882 713 l 746 749 q 583 629 625 749 l 583 594 m 768 662 l 770 662 l 781 651 l 781 648 q 768 627 781 633 l 754 627 q 743 643 743 632 q 768 662 751 662 m 686 637 q 735 602 735 637 l 735 594 q 684 545 735 555 l 670 545 q 635 581 635 554 l 635 589 q 686 637 635 629 z "},"":{"ha":1693,"x_min":68,"x_max":1625,"o":"m 846 1557 l 1072 1332 l 1308 1329 l 1392 1329 l 1397 1324 l 1397 1009 l 1625 779 l 1400 551 l 1400 534 l 1397 231 l 1394 228 l 1077 228 l 846 0 l 618 225 l 602 225 l 298 228 l 296 231 l 296 551 l 68 779 l 293 1004 l 296 1234 l 296 1324 l 301 1329 l 616 1329 l 846 1557 m 990 1126 l 990 1123 q 1017 1085 990 1095 l 1072 1090 q 1240 968 1181 1090 q 1248 911 1248 939 l 1248 906 l 1240 846 l 1240 841 q 1275 808 1240 817 q 1318 903 1318 808 l 1318 920 q 1164 1145 1318 1066 q 1074 1161 1117 1161 l 1058 1161 q 990 1126 990 1161 m 372 646 q 610 415 372 490 q 787 393 692 393 q 1139 532 986 393 q 1199 662 1199 604 q 1072 798 1199 753 l 1069 800 l 1069 808 l 1082 868 q 1004 941 1082 932 l 979 941 q 841 909 932 941 l 836 920 l 844 971 l 844 974 q 768 1053 844 1053 l 762 1053 q 469 865 642 1053 q 372 646 372 742 m 1020 1001 q 1044 968 1020 977 l 1058 971 l 1063 971 q 1128 920 1128 964 l 1126 876 q 1161 852 1137 852 q 1191 911 1191 852 l 1191 925 q 1118 1023 1191 981 l 1077 1034 q 1020 1001 1020 1034 m 751 825 l 768 825 q 1034 684 975 825 l 1036 654 l 1036 646 q 922 496 1036 564 q 716 448 830 448 q 491 545 577 448 q 467 618 467 585 q 635 803 467 730 q 751 825 712 825 m 583 594 q 665 496 583 536 q 724 486 683 489 q 868 572 808 486 q 882 627 882 606 l 882 629 q 784 743 882 713 l 746 749 q 583 629 625 749 l 583 594 m 768 662 l 770 662 l 781 651 l 781 648 q 768 627 781 633 l 754 627 q 743 643 743 632 q 768 662 751 662 m 686 637 q 735 602 735 637 l 735 594 q 684 545 735 555 l 670 545 q 635 581 635 554 l 635 589 q 686 637 635 629 z "},"":{"ha":1487,"x_min":68,"x_max":1419,"o":"m 746 1557 l 1419 1166 l 1419 391 q 765 11 1407 380 q 741 0 751 0 l 68 391 l 68 1164 q 537 1438 84 1180 q 746 1557 711 1541 m 887 1126 l 887 1123 q 914 1085 887 1095 l 968 1090 q 1137 968 1078 1090 q 1145 911 1145 939 l 1145 906 l 1137 846 l 1137 841 q 1172 808 1137 817 q 1215 903 1215 808 l 1215 920 q 1061 1145 1215 1066 q 971 1161 1014 1161 l 955 1161 q 887 1126 887 1161 m 269 646 q 507 415 269 490 q 684 393 589 393 q 1036 532 883 393 q 1096 662 1096 604 q 968 798 1096 753 l 966 800 l 966 808 l 979 868 q 901 941 979 932 l 876 941 q 738 909 829 941 l 732 920 l 741 971 l 741 974 q 665 1053 741 1053 l 659 1053 q 366 865 538 1053 q 269 646 269 742 m 917 1001 q 941 968 917 977 l 955 971 l 960 971 q 1025 920 1025 964 l 1023 876 q 1058 852 1034 852 q 1088 911 1088 852 l 1088 925 q 1015 1023 1088 981 l 974 1034 q 917 1001 917 1034 m 648 825 l 665 825 q 930 684 871 825 l 933 654 l 933 646 q 819 496 933 564 q 613 448 727 448 q 388 545 474 448 q 363 618 363 585 q 532 803 363 730 q 648 825 609 825 m 480 594 q 562 496 480 536 q 621 486 580 489 q 765 572 705 486 q 779 627 779 606 l 779 629 q 681 743 779 713 l 643 749 q 480 629 522 749 l 480 594 m 665 662 l 667 662 l 678 651 l 678 648 q 665 627 678 633 l 651 627 q 640 643 640 632 q 665 662 648 662 m 583 637 q 632 602 632 637 l 632 594 q 581 545 632 555 l 567 545 q 532 581 532 554 l 532 589 q 583 637 532 629 z "},"":{"ha":1698,"x_min":68,"x_max":1630,"o":"m 73 1563 l 1625 1563 l 1630 1557 l 1630 5 l 1625 0 l 73 0 l 68 5 l 68 1557 l 73 1563 m 377 1009 l 377 974 q 410 860 377 928 l 404 787 l 404 768 q 591 415 404 560 q 844 334 711 334 l 854 334 l 928 339 q 1061 304 989 304 q 1297 453 1209 304 q 1324 570 1324 519 q 1289 703 1324 631 l 1297 779 q 1096 1156 1297 1006 q 844 1229 979 1229 l 770 1223 q 640 1259 704 1259 q 410 1123 502 1259 q 377 1009 377 1057 m 838 1069 q 1036 990 959 1069 q 1055 944 1055 963 q 1020 895 1055 911 l 996 892 q 928 941 970 892 q 846 974 901 966 l 838 974 q 743 914 756 974 l 743 909 q 868 841 743 861 q 1080 675 1080 808 q 963 513 1080 556 q 852 494 918 494 q 624 610 678 494 l 621 635 q 675 686 621 676 q 757 616 711 686 q 852 583 795 583 l 854 583 q 955 656 939 583 l 955 659 q 887 719 955 703 q 673 789 716 755 q 624 898 624 834 q 798 1066 624 1038 l 838 1069 z "},"":{"ha":1698,"x_min":68,"x_max":1630,"o":"m 298 1563 l 1408 1563 q 1619 1438 1567 1563 q 1630 1343 1630 1401 l 1630 220 q 1557 43 1630 90 q 1416 0 1512 0 l 285 0 q 73 146 118 0 l 68 231 l 68 1340 q 206 1554 68 1508 q 298 1563 238 1563 m 377 1009 l 377 974 q 410 860 377 928 l 404 787 l 404 768 q 591 415 404 560 q 844 334 711 334 l 854 334 l 928 339 q 1061 304 989 304 q 1297 453 1209 304 q 1324 570 1324 519 q 1289 703 1324 631 l 1297 779 q 1096 1156 1297 1006 q 844 1229 979 1229 l 770 1223 q 640 1259 704 1259 q 410 1123 502 1259 q 377 1009 377 1057 m 838 1069 q 1036 990 959 1069 q 1055 944 1055 963 q 1020 895 1055 911 l 996 892 q 928 941 970 892 q 846 974 901 966 l 838 974 q 743 914 756 974 l 743 909 q 868 841 743 861 q 1080 675 1080 808 q 963 513 1080 556 q 852 494 918 494 q 624 610 678 494 l 621 635 q 675 686 621 676 q 757 616 711 686 q 852 583 795 583 l 854 583 q 955 656 939 583 l 955 659 q 887 719 955 703 q 673 789 716 755 q 624 898 624 834 q 798 1066 624 1038 l 838 1069 z "},"":{"ha":1698,"x_min":68,"x_max":1630,"o":"m 849 1563 q 1438 1294 1183 1563 q 1630 784 1630 1061 q 1343 176 1630 429 q 852 0 1113 0 q 231 304 488 0 q 68 781 68 530 q 239 1267 68 1036 q 662 1538 390 1461 q 849 1563 709 1554 m 377 1009 l 377 974 q 410 860 377 928 l 404 787 l 404 768 q 591 415 404 560 q 844 334 711 334 l 854 334 l 928 339 q 1061 304 989 304 q 1297 453 1209 304 q 1324 570 1324 519 q 1289 703 1324 631 l 1297 779 q 1096 1156 1297 1006 q 844 1229 979 1229 l 770 1223 q 640 1259 704 1259 q 410 1123 502 1259 q 377 1009 377 1057 m 838 1069 q 1036 990 959 1069 q 1055 944 1055 963 q 1020 895 1055 911 l 996 892 q 928 941 970 892 q 846 974 901 966 l 838 974 q 743 914 756 974 l 743 909 q 868 841 743 861 q 1080 675 1080 808 q 963 513 1080 556 q 852 494 918 494 q 624 610 678 494 l 621 635 q 675 686 621 676 q 757 616 711 686 q 852 583 795 583 l 854 583 q 955 656 939 583 l 955 659 q 887 719 955 703 q 673 789 716 755 q 624 898 624 834 q 798 1066 624 1038 l 838 1069 z "},"":{"ha":1693,"x_min":68,"x_max":1625,"o":"m 849 1557 q 1009 1394 963 1488 q 1223 1451 1130 1451 l 1240 1451 q 1297 1229 1297 1333 q 1522 1169 1406 1229 q 1462 941 1522 1059 l 1465 941 q 1625 781 1563 881 l 1625 773 q 1462 613 1560 669 q 1522 388 1522 500 q 1297 328 1409 328 q 1237 103 1297 211 q 1009 163 1131 103 q 849 0 951 62 q 681 163 767 35 q 458 103 571 103 q 396 328 396 211 q 174 385 290 328 l 174 401 q 231 613 174 504 l 231 616 q 68 779 130 671 q 182 911 83 821 q 231 947 231 938 q 174 1153 174 1051 l 174 1166 q 374 1226 271 1226 l 382 1226 q 399 1253 399 1226 q 458 1451 399 1353 l 472 1451 q 681 1394 570 1451 l 684 1394 q 849 1557 755 1510 m 374 1006 l 374 971 q 407 857 374 925 l 401 784 l 401 765 q 589 412 401 557 q 841 331 709 331 l 852 331 l 925 336 q 1058 301 987 301 q 1294 450 1206 301 q 1321 567 1321 516 q 1286 700 1321 628 l 1294 776 q 1093 1153 1294 1004 q 841 1226 976 1226 l 768 1221 q 637 1256 701 1256 q 407 1120 499 1256 q 374 1006 374 1054 m 836 1066 q 1034 987 956 1066 q 1053 941 1053 960 q 1017 892 1053 908 l 993 890 q 925 939 967 890 q 844 971 898 964 l 836 971 q 741 911 753 971 l 741 906 q 865 838 741 858 q 1077 673 1077 806 q 960 510 1077 553 q 849 491 916 491 q 621 608 675 491 l 618 632 q 673 684 618 673 q 754 613 708 684 q 849 581 792 581 l 852 581 q 952 654 937 581 l 952 656 q 884 716 952 700 q 670 787 713 753 q 621 895 621 831 q 795 1063 621 1036 l 836 1066 z "},"":{"ha":1693,"x_min":68,"x_max":1625,"o":"m 846 1557 l 1072 1332 l 1308 1329 l 1392 1329 l 1397 1324 l 1397 1009 l 1625 779 l 1400 551 l 1400 534 l 1397 231 l 1394 228 l 1077 228 l 846 0 l 618 225 l 602 225 l 298 228 l 296 231 l 296 551 l 68 779 l 293 1004 l 296 1234 l 296 1324 l 301 1329 l 616 1329 l 846 1557 m 374 1006 l 374 971 q 407 857 374 925 l 401 784 l 401 765 q 589 412 401 557 q 841 331 709 331 l 852 331 l 925 336 q 1058 301 987 301 q 1294 450 1206 301 q 1321 567 1321 516 q 1286 700 1321 628 l 1294 776 q 1093 1153 1294 1004 q 841 1226 976 1226 l 768 1221 q 637 1256 701 1256 q 407 1120 499 1256 q 374 1006 374 1054 m 836 1066 q 1034 987 956 1066 q 1053 941 1053 960 q 1017 892 1053 908 l 993 890 q 925 939 967 890 q 844 971 898 964 l 836 971 q 741 911 753 971 l 741 906 q 865 838 741 858 q 1077 673 1077 806 q 960 510 1077 553 q 849 491 916 491 q 621 608 675 491 l 618 632 q 673 684 618 673 q 754 613 708 684 q 849 581 792 581 l 852 581 q 952 654 937 581 l 952 656 q 884 716 952 700 q 670 787 713 753 q 621 895 621 831 q 795 1063 621 1036 l 836 1066 z "},"":{"ha":1487,"x_min":68,"x_max":1419,"o":"m 746 1557 l 1419 1166 l 1419 391 q 765 11 1407 380 q 741 0 751 0 l 68 391 l 68 1164 q 537 1438 84 1180 q 746 1557 711 1541 m 271 1006 l 271 971 q 304 857 271 925 l 298 784 l 298 765 q 486 412 298 557 q 738 331 606 331 l 749 331 l 822 336 q 955 301 884 301 q 1191 450 1103 301 q 1218 567 1218 516 q 1183 700 1218 628 l 1191 776 q 990 1153 1191 1004 q 738 1226 873 1226 l 665 1221 q 534 1256 598 1256 q 304 1120 396 1256 q 271 1006 271 1054 m 732 1066 q 930 987 853 1066 q 949 941 949 960 q 914 892 949 908 l 890 890 q 822 939 864 890 q 741 971 795 964 l 732 971 q 637 911 650 971 l 637 906 q 762 838 637 858 q 974 673 974 806 q 857 510 974 553 q 746 491 812 491 q 518 608 572 491 l 515 632 q 570 684 515 673 q 651 613 605 684 q 746 581 689 581 l 749 581 q 849 654 833 581 l 849 656 q 781 716 849 700 q 567 787 610 753 q 518 895 518 831 q 692 1063 518 1036 l 732 1066 z "},"":{"ha":1698,"x_min":68,"x_max":1630,"o":"m 73 1563 l 1625 1563 l 1630 1557 l 1630 5 l 1625 0 l 73 0 l 68 5 l 68 1557 l 73 1563 m 591 987 l 589 987 l 591 979 l 594 860 l 591 857 l 578 857 q 524 871 557 857 q 472 833 472 866 q 572 768 472 802 q 589 735 589 755 q 445 572 545 623 q 377 545 377 554 l 374 532 q 450 488 408 488 q 505 472 505 477 q 534 415 513 415 l 616 423 q 746 363 671 423 q 849 336 793 336 q 1025 412 930 336 q 1088 423 1053 423 l 1172 415 q 1196 477 1183 415 q 1324 534 1324 498 q 1278 564 1324 558 q 1128 692 1184 597 q 1112 738 1112 727 l 1112 743 q 1191 792 1112 771 q 1229 836 1229 814 q 1177 873 1213 873 q 1115 857 1137 857 l 1109 857 l 1104 863 l 1109 974 q 933 1215 1109 1156 q 849 1226 876 1226 q 597 1050 663 1226 l 591 987 z "},"":{"ha":1698,"x_min":68,"x_max":1630,"o":"m 298 1563 l 1408 1563 q 1619 1438 1567 1563 q 1630 1343 1630 1401 l 1630 220 q 1557 43 1630 90 q 1416 0 1512 0 l 285 0 q 73 146 118 0 l 68 231 l 68 1340 q 206 1554 68 1508 q 298 1563 238 1563 m 591 987 l 589 987 l 591 979 l 594 860 l 591 857 l 578 857 q 524 871 557 857 q 472 833 472 866 q 572 768 472 802 q 589 735 589 755 q 445 572 545 623 q 377 545 377 554 l 374 532 q 450 488 408 488 q 505 472 505 477 q 534 415 513 415 l 616 423 q 746 363 671 423 q 849 336 793 336 q 1025 412 930 336 q 1088 423 1053 423 l 1172 415 q 1196 477 1183 415 q 1324 534 1324 498 q 1278 564 1324 558 q 1128 692 1184 597 q 1112 738 1112 727 l 1112 743 q 1191 792 1112 771 q 1229 836 1229 814 q 1177 873 1213 873 q 1115 857 1137 857 l 1109 857 l 1104 863 l 1109 974 q 933 1215 1109 1156 q 849 1226 876 1226 q 597 1050 663 1226 l 591 987 z "},"":{"ha":1698,"x_min":68,"x_max":1630,"o":"m 849 1563 q 1438 1294 1183 1563 q 1630 784 1630 1061 q 1343 176 1630 429 q 852 0 1113 0 q 231 304 488 0 q 68 781 68 530 q 239 1267 68 1036 q 662 1538 390 1461 q 849 1563 709 1554 m 591 987 l 589 987 l 591 979 l 594 860 l 591 857 l 578 857 q 524 871 557 857 q 472 833 472 866 q 572 768 472 802 q 589 735 589 755 q 445 572 545 623 q 377 545 377 554 l 374 532 q 450 488 408 488 q 505 472 505 477 q 534 415 513 415 l 616 423 q 746 363 671 423 q 849 336 793 336 q 1025 412 930 336 q 1088 423 1053 423 l 1172 415 q 1196 477 1183 415 q 1324 534 1324 498 q 1278 564 1324 558 q 1128 692 1184 597 q 1112 738 1112 727 l 1112 743 q 1191 792 1112 771 q 1229 836 1229 814 q 1177 873 1213 873 q 1115 857 1137 857 l 1109 857 l 1104 863 l 1109 974 q 933 1215 1109 1156 q 849 1226 876 1226 q 597 1050 663 1226 l 591 987 z "},"":{"ha":1693,"x_min":68,"x_max":1625,"o":"m 849 1557 q 1009 1394 963 1488 q 1223 1451 1130 1451 l 1240 1451 q 1297 1229 1297 1333 q 1522 1169 1406 1229 q 1462 941 1522 1059 l 1465 941 q 1625 781 1563 881 l 1625 773 q 1462 613 1560 669 q 1522 388 1522 500 q 1297 328 1409 328 q 1237 103 1297 211 q 1009 163 1131 103 q 849 0 951 62 q 681 163 767 35 q 458 103 571 103 q 396 328 396 211 q 174 385 290 328 l 174 401 q 231 613 174 504 l 231 616 q 68 779 130 671 q 182 911 83 821 q 231 947 231 938 q 174 1153 174 1051 l 174 1166 q 374 1226 271 1226 l 382 1226 q 399 1253 399 1226 q 458 1451 399 1353 l 472 1451 q 681 1394 570 1451 l 684 1394 q 849 1557 755 1510 m 589 985 l 586 985 l 589 977 l 591 857 l 589 854 l 575 854 q 521 868 555 854 q 469 830 469 863 q 570 765 469 799 q 586 732 586 752 q 442 570 543 621 q 374 543 374 551 l 372 529 q 448 486 406 486 q 502 469 502 475 q 532 412 510 412 l 613 420 q 743 361 668 420 q 846 334 791 334 q 1023 410 927 334 q 1085 420 1050 420 l 1169 412 q 1194 475 1180 412 q 1321 532 1321 495 q 1275 562 1321 555 q 1126 689 1181 595 q 1109 735 1109 724 l 1109 741 q 1188 789 1109 768 q 1226 833 1226 811 q 1175 871 1211 871 q 1112 854 1135 854 l 1107 854 l 1101 860 l 1107 971 q 930 1213 1107 1153 q 846 1223 873 1223 q 594 1047 660 1223 l 589 985 z "},"":{"ha":1693,"x_min":68,"x_max":1625,"o":"m 846 1557 l 1072 1332 l 1308 1329 l 1392 1329 l 1397 1324 l 1397 1009 l 1625 779 l 1400 551 l 1400 534 l 1397 231 l 1394 228 l 1077 228 l 846 0 l 618 225 l 602 225 l 298 228 l 296 231 l 296 551 l 68 779 l 293 1004 l 296 1234 l 296 1324 l 301 1329 l 616 1329 l 846 1557 m 589 985 l 586 985 l 589 977 l 591 857 l 589 854 l 575 854 q 521 868 555 854 q 469 830 469 863 q 570 765 469 799 q 586 732 586 752 q 442 570 543 621 q 374 543 374 551 l 372 529 q 448 486 406 486 q 502 469 502 475 q 532 412 510 412 l 613 420 q 743 361 668 420 q 846 334 791 334 q 1023 410 927 334 q 1085 420 1050 420 l 1169 412 q 1194 475 1180 412 q 1321 532 1321 495 q 1275 562 1321 555 q 1126 689 1181 595 q 1109 735 1109 724 l 1109 741 q 1188 789 1109 768 q 1226 833 1226 811 q 1175 871 1211 871 q 1112 854 1135 854 l 1107 854 l 1101 860 l 1107 971 q 930 1213 1107 1153 q 846 1223 873 1223 q 594 1047 660 1223 l 589 985 z "},"":{"ha":1487,"x_min":68,"x_max":1419,"o":"m 746 1557 l 1419 1166 l 1419 391 q 765 11 1407 380 q 741 0 751 0 l 68 391 l 68 1164 q 537 1438 84 1180 q 746 1557 711 1541 m 486 985 l 483 985 l 486 977 l 488 857 l 486 854 l 472 854 q 418 868 452 854 q 366 830 366 863 q 467 765 366 799 q 483 732 483 752 q 339 570 439 621 q 271 543 271 551 l 269 529 q 345 486 302 486 q 399 469 399 475 q 429 412 407 412 l 510 420 q 640 361 565 420 q 743 334 688 334 q 920 410 824 334 q 982 420 947 420 l 1066 412 q 1090 475 1077 412 q 1218 532 1218 495 q 1172 562 1218 555 q 1023 689 1078 595 q 1006 735 1006 724 l 1006 741 q 1085 789 1006 768 q 1123 833 1123 811 q 1072 871 1107 871 q 1009 854 1031 854 l 1004 854 l 998 860 l 1004 971 q 827 1213 1004 1153 q 743 1223 770 1223 q 491 1047 557 1223 l 486 985 z "},"":{"ha":1698,"x_min":68,"x_max":1630,"o":"m 73 1563 l 1625 1563 l 1630 1557 l 1630 5 l 1625 0 l 73 0 l 68 5 l 68 1557 l 73 1563 m 385 863 q 589 543 385 665 l 589 540 q 475 437 559 473 q 448 426 448 432 q 890 307 667 307 q 1251 494 1114 307 q 1313 689 1313 591 l 1313 711 q 1158 1006 1313 878 q 1072 1053 1086 1053 l 1072 1055 q 1166 1158 1072 1097 l 1196 1169 q 982 1242 1139 1206 q 825 1256 872 1256 q 407 996 524 1256 q 385 863 385 924 m 941 982 q 1147 892 1048 982 q 1221 697 1221 804 q 1072 445 1221 534 q 860 396 999 396 q 629 442 746 396 l 629 448 q 689 551 689 517 q 662 646 689 565 l 656 686 l 656 697 q 841 966 656 879 q 941 982 892 979 z "},"":{"ha":1698,"x_min":68,"x_max":1630,"o":"m 298 1563 l 1408 1563 q 1619 1438 1567 1563 q 1630 1343 1630 1401 l 1630 220 q 1557 43 1630 90 q 1416 0 1512 0 l 285 0 q 73 146 118 0 l 68 231 l 68 1340 q 206 1554 68 1508 q 298 1563 238 1563 m 385 863 q 589 543 385 665 l 589 540 q 475 437 559 473 q 448 426 448 432 q 890 307 667 307 q 1251 494 1114 307 q 1313 689 1313 591 l 1313 711 q 1158 1006 1313 878 q 1072 1053 1086 1053 l 1072 1055 q 1166 1158 1072 1097 l 1196 1169 q 982 1242 1139 1206 q 825 1256 872 1256 q 407 996 524 1256 q 385 863 385 924 m 941 982 q 1147 892 1048 982 q 1221 697 1221 804 q 1072 445 1221 534 q 860 396 999 396 q 629 442 746 396 l 629 448 q 689 551 689 517 q 662 646 689 565 l 656 686 l 656 697 q 841 966 656 879 q 941 982 892 979 z "},"":{"ha":1698,"x_min":68,"x_max":1630,"o":"m 849 1563 q 1438 1294 1183 1563 q 1630 784 1630 1061 q 1343 176 1630 429 q 852 0 1113 0 q 231 304 488 0 q 68 781 68 530 q 239 1267 68 1036 q 662 1538 390 1461 q 849 1563 709 1554 m 385 863 q 589 543 385 665 l 589 540 q 475 437 559 473 q 448 426 448 432 q 890 307 667 307 q 1251 494 1114 307 q 1313 689 1313 591 l 1313 711 q 1158 1006 1313 878 q 1072 1053 1086 1053 l 1072 1055 q 1166 1158 1072 1097 l 1196 1169 q 982 1242 1139 1206 q 825 1256 872 1256 q 407 996 524 1256 q 385 863 385 924 m 941 982 q 1147 892 1048 982 q 1221 697 1221 804 q 1072 445 1221 534 q 860 396 999 396 q 629 442 746 396 l 629 448 q 689 551 689 517 q 662 646 689 565 l 656 686 l 656 697 q 841 966 656 879 q 941 982 892 979 z "},"":{"ha":1693,"x_min":68,"x_max":1625,"o":"m 849 1557 q 1009 1394 963 1488 q 1223 1451 1130 1451 l 1240 1451 q 1297 1229 1297 1333 q 1522 1169 1406 1229 q 1462 941 1522 1059 l 1465 941 q 1625 781 1563 881 l 1625 773 q 1462 613 1560 669 q 1522 388 1522 500 q 1297 328 1409 328 q 1237 103 1297 211 q 1009 163 1131 103 q 849 0 951 62 q 681 163 767 35 q 458 103 571 103 q 396 328 396 211 q 174 385 290 328 l 174 401 q 231 613 174 504 l 231 616 q 68 779 130 671 q 182 911 83 821 q 231 947 231 938 q 174 1153 174 1051 l 174 1166 q 374 1226 271 1226 l 382 1226 q 399 1253 399 1226 q 458 1451 399 1353 l 472 1451 q 681 1394 570 1451 l 684 1394 q 849 1557 755 1510 m 382 860 q 586 540 382 663 l 586 537 q 472 434 556 470 q 445 423 445 429 q 887 304 665 304 q 1248 491 1111 304 q 1310 686 1310 589 l 1310 708 q 1156 1004 1310 875 q 1069 1050 1083 1050 l 1069 1053 q 1164 1156 1069 1095 l 1194 1166 q 979 1240 1137 1203 q 822 1253 869 1253 q 404 993 521 1253 q 382 860 382 922 m 939 979 q 1145 890 1046 979 q 1218 694 1218 801 q 1069 442 1218 531 q 857 393 996 393 q 627 439 743 393 l 627 445 q 686 548 686 514 q 659 643 686 562 l 654 684 l 654 694 q 838 963 654 876 q 939 979 890 977 z "},"":{"ha":1693,"x_min":68,"x_max":1625,"o":"m 846 1557 l 1072 1332 l 1308 1329 l 1392 1329 l 1397 1324 l 1397 1009 l 1625 779 l 1400 551 l 1400 534 l 1397 231 l 1394 228 l 1077 228 l 846 0 l 618 225 l 602 225 l 298 228 l 296 231 l 296 551 l 68 779 l 293 1004 l 296 1234 l 296 1324 l 301 1329 l 616 1329 l 846 1557 m 382 860 q 586 540 382 663 l 586 537 q 472 434 556 470 q 445 423 445 429 q 887 304 665 304 q 1248 491 1111 304 q 1310 686 1310 589 l 1310 708 q 1156 1004 1310 875 q 1069 1050 1083 1050 l 1069 1053 q 1164 1156 1069 1095 l 1194 1166 q 979 1240 1137 1203 q 822 1253 869 1253 q 404 993 521 1253 q 382 860 382 922 m 939 979 q 1145 890 1046 979 q 1218 694 1218 801 q 1069 442 1218 531 q 857 393 996 393 q 627 439 743 393 l 627 445 q 686 548 686 514 q 659 643 686 562 l 654 684 l 654 694 q 838 963 654 876 q 939 979 890 977 z "},"":{"ha":1487,"x_min":68,"x_max":1419,"o":"m 746 1557 l 1419 1166 l 1419 391 q 765 11 1407 380 q 741 0 751 0 l 68 391 l 68 1164 q 537 1438 84 1180 q 746 1557 711 1541 m 279 860 q 483 540 279 663 l 483 537 q 369 434 453 470 q 342 423 342 429 q 784 304 562 304 q 1145 491 1008 304 q 1207 686 1207 589 l 1207 708 q 1053 1004 1207 875 q 966 1050 980 1050 l 966 1053 q 1061 1156 966 1095 l 1090 1166 q 876 1240 1034 1203 q 719 1253 766 1253 q 301 993 418 1253 q 279 860 279 922 m 836 979 q 1042 890 943 979 q 1115 694 1115 801 q 966 442 1115 531 q 754 393 893 393 q 524 439 640 393 l 524 445 q 583 548 583 514 q 556 643 583 562 l 551 684 l 551 694 q 735 963 551 876 q 836 979 787 977 z "},"":{"ha":1698,"x_min":68,"x_max":1630,"o":"m 73 1563 l 1625 1563 l 1630 1557 l 1630 5 l 1625 0 l 73 0 l 68 5 l 68 1557 l 73 1563 m 374 808 q 515 749 374 783 q 618 711 612 718 q 705 439 689 473 l 741 431 q 871 545 760 431 l 882 553 q 1115 385 1107 385 l 1137 382 q 1199 537 1179 382 q 1324 1137 1316 1069 q 1283 1177 1317 1177 l 1278 1177 q 589 914 1242 1169 q 377 819 377 838 l 374 808 m 1142 1034 l 1156 1034 l 1156 1025 l 746 651 q 730 464 738 464 l 727 464 q 646 724 717 475 q 1142 1034 1125 1034 z "},"":{"ha":1698,"x_min":68,"x_max":1630,"o":"m 298 1563 l 1408 1563 q 1619 1438 1567 1563 q 1630 1343 1630 1401 l 1630 220 q 1557 43 1630 90 q 1416 0 1512 0 l 285 0 q 73 146 118 0 l 68 231 l 68 1340 q 206 1554 68 1508 q 298 1563 238 1563 m 374 808 q 515 749 374 783 q 618 711 612 718 q 705 439 689 473 l 741 431 q 871 545 760 431 l 882 553 q 1115 385 1107 385 l 1137 382 q 1199 537 1179 382 q 1324 1137 1316 1069 q 1283 1177 1317 1177 l 1278 1177 q 589 914 1242 1169 q 377 819 377 838 l 374 808 m 1142 1034 l 1156 1034 l 1156 1025 l 746 651 q 730 464 738 464 l 727 464 q 646 724 717 475 q 1142 1034 1125 1034 z "},"":{"ha":1698,"x_min":68,"x_max":1630,"o":"m 849 1563 q 1438 1294 1183 1563 q 1630 784 1630 1061 q 1343 176 1630 429 q 852 0 1113 0 q 231 304 488 0 q 68 781 68 530 q 239 1267 68 1036 q 662 1538 390 1461 q 849 1563 709 1554 m 374 808 q 515 749 374 783 q 618 711 612 718 q 705 439 689 473 l 741 431 q 871 545 760 431 l 882 553 q 1115 385 1107 385 l 1137 382 q 1199 537 1179 382 q 1324 1137 1316 1069 q 1283 1177 1317 1177 l 1278 1177 q 589 914 1242 1169 q 377 819 377 838 l 374 808 m 1142 1034 l 1156 1034 l 1156 1025 l 746 651 q 730 464 738 464 l 727 464 q 646 724 717 475 q 1142 1034 1125 1034 z "},"":{"ha":1693,"x_min":68,"x_max":1625,"o":"m 849 1557 q 1009 1394 963 1488 q 1223 1451 1130 1451 l 1240 1451 q 1297 1229 1297 1333 q 1522 1169 1406 1229 q 1462 941 1522 1059 l 1465 941 q 1625 781 1563 881 l 1625 773 q 1462 613 1560 669 q 1522 388 1522 500 q 1297 328 1409 328 q 1237 103 1297 211 q 1009 163 1131 103 q 849 0 951 62 q 681 163 767 35 q 458 103 571 103 q 396 328 396 211 q 174 385 290 328 l 174 401 q 231 613 174 504 l 231 616 q 68 779 130 671 q 182 911 83 821 q 231 947 231 938 q 174 1153 174 1051 l 174 1166 q 374 1226 271 1226 l 382 1226 q 399 1253 399 1226 q 458 1451 399 1353 l 472 1451 q 681 1394 570 1451 l 684 1394 q 849 1557 755 1510 m 372 806 q 513 746 372 781 q 616 708 609 715 q 703 437 686 471 l 738 429 q 868 543 757 429 l 879 551 q 1112 382 1105 382 l 1134 380 q 1196 534 1176 380 q 1321 1134 1313 1066 q 1280 1175 1314 1175 l 1275 1175 q 586 911 1239 1166 q 374 817 374 836 l 372 806 m 1139 1031 l 1153 1031 l 1153 1023 l 743 648 q 727 461 735 461 l 724 461 q 643 722 714 473 q 1139 1031 1122 1031 z "},"":{"ha":1693,"x_min":68,"x_max":1625,"o":"m 846 1557 l 1072 1332 l 1308 1329 l 1392 1329 l 1397 1324 l 1397 1009 l 1625 779 l 1400 551 l 1400 534 l 1397 231 l 1394 228 l 1077 228 l 846 0 l 618 225 l 602 225 l 298 228 l 296 231 l 296 551 l 68 779 l 293 1004 l 296 1234 l 296 1324 l 301 1329 l 616 1329 l 846 1557 m 372 806 q 513 746 372 781 q 616 708 609 715 q 703 437 686 471 l 738 429 q 868 543 757 429 l 879 551 q 1112 382 1105 382 l 1134 380 q 1196 534 1176 380 q 1321 1134 1313 1066 q 1280 1175 1314 1175 l 1275 1175 q 586 911 1239 1166 q 374 817 374 836 l 372 806 m 1139 1031 l 1153 1031 l 1153 1023 l 743 648 q 727 461 735 461 l 724 461 q 643 722 714 473 q 1139 1031 1122 1031 z "},"":{"ha":1487,"x_min":68,"x_max":1419,"o":"m 746 1557 l 1419 1166 l 1419 391 q 765 11 1407 380 q 741 0 751 0 l 68 391 l 68 1164 q 537 1438 84 1180 q 746 1557 711 1541 m 269 806 q 410 746 269 781 q 513 708 506 715 q 600 437 583 471 l 635 429 q 765 543 654 429 l 776 551 q 1009 382 1002 382 l 1031 380 q 1093 534 1073 380 q 1218 1134 1210 1066 q 1177 1175 1211 1175 l 1172 1175 q 483 911 1136 1166 q 271 817 271 836 l 269 806 m 1036 1031 l 1050 1031 l 1050 1023 l 640 648 q 624 461 632 461 l 621 461 q 540 722 611 473 q 1036 1031 1019 1031 z "},"":{"ha":1698,"x_min":68,"x_max":1630,"o":"m 73 1563 l 1625 1563 l 1630 1557 l 1630 5 l 1625 0 l 73 0 l 68 5 l 68 1557 l 73 1563 m 873 1256 l 873 616 q 779 477 873 513 q 738 469 769 472 q 600 583 636 469 l 597 605 q 711 743 597 708 l 738 746 l 776 738 l 776 903 l 749 906 q 480 762 574 906 q 434 608 434 685 q 583 350 434 448 q 741 307 652 307 q 998 461 895 307 q 1036 605 1036 534 l 1036 930 l 1039 933 l 1039 936 q 1264 865 1146 865 l 1264 1028 l 1261 1028 q 1069 1139 1141 1028 q 1036 1245 1036 1198 l 1036 1256 l 873 1256 z "},"":{"ha":1698,"x_min":68,"x_max":1630,"o":"m 298 1563 l 1408 1563 q 1619 1438 1567 1563 q 1630 1343 1630 1401 l 1630 220 q 1557 43 1630 90 q 1416 0 1512 0 l 285 0 q 73 146 118 0 l 68 231 l 68 1340 q 206 1554 68 1508 q 298 1563 238 1563 m 873 1256 l 873 616 q 779 477 873 513 q 738 469 769 472 q 600 583 636 469 l 597 605 q 711 743 597 708 l 738 746 l 776 738 l 776 903 l 749 906 q 480 762 574 906 q 434 608 434 685 q 583 350 434 448 q 741 307 652 307 q 998 461 895 307 q 1036 605 1036 534 l 1036 930 l 1039 933 l 1039 936 q 1264 865 1146 865 l 1264 1028 l 1261 1028 q 1069 1139 1141 1028 q 1036 1245 1036 1198 l 1036 1256 l 873 1256 z "},"":{"ha":1698,"x_min":68,"x_max":1630,"o":"m 849 1563 q 1438 1294 1183 1563 q 1630 784 1630 1061 q 1343 176 1630 429 q 852 0 1113 0 q 231 304 488 0 q 68 781 68 530 q 239 1267 68 1036 q 662 1538 390 1461 q 849 1563 709 1554 m 873 1256 l 873 616 q 779 477 873 513 q 738 469 769 472 q 600 583 636 469 l 597 605 q 711 743 597 708 l 738 746 l 776 738 l 776 903 l 749 906 q 480 762 574 906 q 434 608 434 685 q 583 350 434 448 q 741 307 652 307 q 998 461 895 307 q 1036 605 1036 534 l 1036 930 l 1039 933 l 1039 936 q 1264 865 1146 865 l 1264 1028 l 1261 1028 q 1069 1139 1141 1028 q 1036 1245 1036 1198 l 1036 1256 l 873 1256 z "},"":{"ha":1693,"x_min":68,"x_max":1625,"o":"m 849 1557 q 1009 1394 963 1488 q 1223 1451 1130 1451 l 1240 1451 q 1297 1229 1297 1333 q 1522 1169 1406 1229 q 1462 941 1522 1059 l 1465 941 q 1625 781 1563 881 l 1625 773 q 1462 613 1560 669 q 1522 388 1522 500 q 1297 328 1409 328 q 1237 103 1297 211 q 1009 163 1131 103 q 849 0 951 62 q 681 163 767 35 q 458 103 571 103 q 396 328 396 211 q 174 385 290 328 l 174 401 q 231 613 174 504 l 231 616 q 68 779 130 671 q 182 911 83 821 q 231 947 231 938 q 174 1153 174 1051 l 174 1166 q 374 1226 271 1226 l 382 1226 q 399 1253 399 1226 q 458 1451 399 1353 l 472 1451 q 681 1394 570 1451 l 684 1394 q 849 1557 755 1510 m 871 1253 l 871 613 q 776 475 871 510 q 735 467 766 469 q 597 581 633 467 l 594 602 q 708 741 594 705 l 735 743 l 773 735 l 773 901 l 746 903 q 477 760 571 903 q 431 605 431 682 q 581 347 431 445 q 738 304 650 304 q 996 458 892 304 q 1034 602 1034 531 l 1034 928 l 1036 930 l 1036 933 q 1261 863 1143 863 l 1261 1025 l 1259 1025 q 1066 1137 1138 1025 q 1034 1242 1034 1196 l 1034 1253 l 871 1253 z "},"":{"ha":1693,"x_min":68,"x_max":1625,"o":"m 846 1557 l 1072 1332 l 1308 1329 l 1392 1329 l 1397 1324 l 1397 1009 l 1625 779 l 1400 551 l 1400 534 l 1397 231 l 1394 228 l 1077 228 l 846 0 l 618 225 l 602 225 l 298 228 l 296 231 l 296 551 l 68 779 l 293 1004 l 296 1234 l 296 1324 l 301 1329 l 616 1329 l 846 1557 m 871 1253 l 871 613 q 776 475 871 510 q 735 467 766 469 q 597 581 633 467 l 594 602 q 708 741 594 705 l 735 743 l 773 735 l 773 901 l 746 903 q 477 760 571 903 q 431 605 431 682 q 581 347 431 445 q 738 304 650 304 q 996 458 892 304 q 1034 602 1034 531 l 1034 928 l 1036 930 l 1036 933 q 1261 863 1143 863 l 1261 1025 l 1259 1025 q 1066 1137 1138 1025 q 1034 1242 1034 1196 l 1034 1253 l 871 1253 z "},"":{"ha":1487,"x_min":68,"x_max":1419,"o":"m 746 1557 l 1419 1166 l 1419 391 q 765 11 1407 380 q 741 0 751 0 l 68 391 l 68 1164 q 537 1438 84 1180 q 746 1557 711 1541 m 768 1253 l 768 613 q 673 475 768 510 q 632 467 663 469 q 494 581 530 467 l 491 602 q 605 741 491 705 l 632 743 l 670 735 l 670 901 l 643 903 q 374 760 468 903 q 328 605 328 682 q 477 347 328 445 q 635 304 547 304 q 892 458 789 304 q 930 602 930 531 l 930 928 l 933 930 l 933 933 q 1158 863 1040 863 l 1158 1025 l 1156 1025 q 963 1137 1035 1025 q 930 1242 930 1196 l 930 1253 l 768 1253 z "},"":{"ha":1698,"x_min":68,"x_max":1630,"o":"m 73 1563 l 1625 1563 l 1630 1557 l 1630 5 l 1625 0 l 73 0 l 68 5 l 68 1557 l 73 1563 m 789 1256 q 703 1055 789 1150 q 581 990 645 1004 l 581 838 l 705 838 l 711 833 l 711 597 q 798 355 711 406 q 1001 307 846 307 l 1118 307 l 1118 494 l 1031 494 q 941 556 959 494 l 939 602 l 939 833 l 944 838 l 1109 838 l 1109 1015 l 944 1015 l 939 1020 l 939 1256 l 789 1256 z "},"":{"ha":1698,"x_min":68,"x_max":1630,"o":"m 298 1563 l 1408 1563 q 1619 1438 1567 1563 q 1630 1343 1630 1401 l 1630 220 q 1557 43 1630 90 q 1416 0 1512 0 l 285 0 q 73 146 118 0 l 68 231 l 68 1340 q 206 1554 68 1508 q 298 1563 238 1563 m 789 1256 q 703 1055 789 1150 q 581 990 645 1004 l 581 838 l 705 838 l 711 833 l 711 597 q 798 355 711 406 q 1001 307 846 307 l 1118 307 l 1118 494 l 1031 494 q 941 556 959 494 l 939 602 l 939 833 l 944 838 l 1109 838 l 1109 1015 l 944 1015 l 939 1020 l 939 1256 l 789 1256 z "},"":{"ha":1698,"x_min":68,"x_max":1630,"o":"m 849 1563 q 1438 1294 1183 1563 q 1630 784 1630 1061 q 1343 176 1630 429 q 852 0 1113 0 q 231 304 488 0 q 68 781 68 530 q 239 1267 68 1036 q 662 1538 390 1461 q 849 1563 709 1554 m 789 1256 q 703 1055 789 1150 q 581 990 645 1004 l 581 838 l 705 838 l 711 833 l 711 597 q 798 355 711 406 q 1001 307 846 307 l 1118 307 l 1118 494 l 1031 494 q 941 556 959 494 l 939 602 l 939 833 l 944 838 l 1109 838 l 1109 1015 l 944 1015 l 939 1020 l 939 1256 l 789 1256 z "},"":{"ha":1693,"x_min":68,"x_max":1625,"o":"m 849 1557 q 1009 1394 963 1488 q 1223 1451 1130 1451 l 1240 1451 q 1297 1229 1297 1333 q 1522 1169 1406 1229 q 1462 941 1522 1059 l 1465 941 q 1625 781 1563 881 l 1625 773 q 1462 613 1560 669 q 1522 388 1522 500 q 1297 328 1409 328 q 1237 103 1297 211 q 1009 163 1131 103 q 849 0 951 62 q 681 163 767 35 q 458 103 571 103 q 396 328 396 211 q 174 385 290 328 l 174 401 q 231 613 174 504 l 231 616 q 68 779 130 671 q 182 911 83 821 q 231 947 231 938 q 174 1153 174 1051 l 174 1166 q 374 1226 271 1226 l 382 1226 q 399 1253 399 1226 q 458 1451 399 1353 l 472 1451 q 681 1394 570 1451 l 684 1394 q 849 1557 755 1510 m 787 1253 q 700 1053 787 1147 q 578 987 642 1002 l 578 836 l 703 836 l 708 830 l 708 594 q 795 353 708 403 q 998 304 843 304 l 1115 304 l 1115 491 l 1028 491 q 939 553 956 491 l 936 600 l 936 830 l 941 836 l 1107 836 l 1107 1012 l 941 1012 l 936 1017 l 936 1253 l 787 1253 z "},"":{"ha":1693,"x_min":68,"x_max":1625,"o":"m 846 1557 l 1072 1332 l 1308 1329 l 1392 1329 l 1397 1324 l 1397 1009 l 1625 779 l 1400 551 l 1400 534 l 1397 231 l 1394 228 l 1077 228 l 846 0 l 618 225 l 602 225 l 298 228 l 296 231 l 296 551 l 68 779 l 293 1004 l 296 1234 l 296 1324 l 301 1329 l 616 1329 l 846 1557 m 787 1253 q 700 1053 787 1147 q 578 987 642 1002 l 578 836 l 703 836 l 708 830 l 708 594 q 795 353 708 403 q 998 304 843 304 l 1115 304 l 1115 491 l 1028 491 q 939 553 956 491 l 936 600 l 936 830 l 941 836 l 1107 836 l 1107 1012 l 941 1012 l 936 1017 l 936 1253 l 787 1253 z "},"":{"ha":1487,"x_min":68,"x_max":1419,"o":"m 746 1557 l 1419 1166 l 1419 391 q 765 11 1407 380 q 741 0 751 0 l 68 391 l 68 1164 q 537 1438 84 1180 q 746 1557 711 1541 m 684 1253 q 597 1053 684 1147 q 475 987 539 1002 l 475 836 l 600 836 l 605 830 l 605 594 q 692 353 605 403 q 895 304 740 304 l 1012 304 l 1012 491 l 925 491 q 836 553 853 491 l 833 600 l 833 830 l 838 836 l 1004 836 l 1004 1012 l 838 1012 l 833 1017 l 833 1253 l 684 1253 z "},"":{"ha":1698,"x_min":68,"x_max":1630,"o":"m 73 1563 l 1625 1563 l 1630 1557 l 1630 5 l 1625 0 l 73 0 l 68 5 l 68 1557 l 73 1563 m 836 968 l 841 930 l 838 928 l 836 928 q 543 1034 706 928 q 439 1128 485 1081 q 415 1034 415 1078 q 494 873 415 943 l 488 873 q 412 895 463 873 q 559 705 412 755 l 564 705 l 564 700 l 521 694 l 480 697 q 586 581 511 616 q 656 564 627 564 l 656 562 q 420 480 555 480 l 404 480 l 380 483 l 377 483 l 377 480 q 662 396 530 396 q 1183 735 1027 396 q 1226 968 1226 838 l 1226 971 q 1321 1074 1294 1029 l 1318 1074 q 1221 1047 1251 1047 q 1294 1150 1294 1113 l 1291 1150 q 1172 1107 1208 1107 q 1031 1166 1109 1166 q 849 1042 914 1166 q 836 968 838 1007 z "},"":{"ha":1698,"x_min":68,"x_max":1630,"o":"m 298 1563 l 1408 1563 q 1619 1438 1567 1563 q 1630 1343 1630 1401 l 1630 220 q 1557 43 1630 90 q 1416 0 1512 0 l 285 0 q 73 146 118 0 l 68 231 l 68 1340 q 206 1554 68 1508 q 298 1563 238 1563 m 836 968 l 841 930 l 838 928 l 836 928 q 543 1034 706 928 q 439 1128 485 1081 q 415 1034 415 1078 q 494 873 415 943 l 488 873 q 412 895 463 873 q 559 705 412 755 l 564 705 l 564 700 l 521 694 l 480 697 q 586 581 511 616 q 656 564 627 564 l 656 562 q 420 480 555 480 l 404 480 l 380 483 l 377 483 l 377 480 q 662 396 530 396 q 1183 735 1027 396 q 1226 968 1226 838 l 1226 971 q 1321 1074 1294 1029 l 1318 1074 q 1221 1047 1251 1047 q 1294 1150 1294 1113 l 1291 1150 q 1172 1107 1208 1107 q 1031 1166 1109 1166 q 849 1042 914 1166 q 836 968 838 1007 z "},"":{"ha":1698,"x_min":68,"x_max":1630,"o":"m 849 1563 q 1438 1294 1183 1563 q 1630 784 1630 1061 q 1343 176 1630 429 q 852 0 1113 0 q 231 304 488 0 q 68 781 68 530 q 239 1267 68 1036 q 662 1538 390 1461 q 849 1563 709 1554 m 836 968 l 841 930 l 838 928 l 836 928 q 543 1034 706 928 q 439 1128 485 1081 q 415 1034 415 1078 q 494 873 415 943 l 488 873 q 412 895 463 873 q 559 705 412 755 l 564 705 l 564 700 l 521 694 l 480 697 q 586 581 511 616 q 656 564 627 564 l 656 562 q 420 480 555 480 l 404 480 l 380 483 l 377 483 l 377 480 q 662 396 530 396 q 1183 735 1027 396 q 1226 968 1226 838 l 1226 971 q 1321 1074 1294 1029 l 1318 1074 q 1221 1047 1251 1047 q 1294 1150 1294 1113 l 1291 1150 q 1172 1107 1208 1107 q 1031 1166 1109 1166 q 849 1042 914 1166 q 836 968 838 1007 z "},"":{"ha":1693,"x_min":68,"x_max":1625,"o":"m 849 1557 q 1009 1394 963 1488 q 1223 1451 1130 1451 l 1240 1451 q 1297 1229 1297 1333 q 1522 1169 1406 1229 q 1462 941 1522 1059 l 1465 941 q 1625 781 1563 881 l 1625 773 q 1462 613 1560 669 q 1522 388 1522 500 q 1297 328 1409 328 q 1237 103 1297 211 q 1009 163 1131 103 q 849 0 951 62 q 681 163 767 35 q 458 103 571 103 q 396 328 396 211 q 174 385 290 328 l 174 401 q 231 613 174 504 l 231 616 q 68 779 130 671 q 182 911 83 821 q 231 947 231 938 q 174 1153 174 1051 l 174 1166 q 374 1226 271 1226 l 382 1226 q 399 1253 399 1226 q 458 1451 399 1353 l 472 1451 q 681 1394 570 1451 l 684 1394 q 849 1557 755 1510 m 833 966 l 838 928 l 836 925 l 833 925 q 540 1031 703 925 q 437 1126 482 1078 q 412 1031 412 1076 q 491 871 412 941 l 486 871 q 410 892 460 871 q 556 703 410 753 l 562 703 l 562 697 l 518 692 l 477 694 q 583 578 509 614 q 654 562 625 562 l 654 559 q 418 477 553 477 l 401 477 l 377 480 l 374 480 l 374 477 q 659 393 528 393 q 1180 732 1024 393 q 1223 966 1223 836 l 1223 968 q 1318 1072 1291 1027 l 1316 1072 q 1218 1044 1248 1044 q 1291 1147 1291 1110 l 1289 1147 q 1169 1104 1206 1104 q 1028 1164 1106 1164 q 846 1039 911 1164 q 833 966 836 1004 z "},"":{"ha":1693,"x_min":68,"x_max":1625,"o":"m 846 1557 l 1072 1332 l 1308 1329 l 1392 1329 l 1397 1324 l 1397 1009 l 1625 779 l 1400 551 l 1400 534 l 1397 231 l 1394 228 l 1077 228 l 846 0 l 618 225 l 602 225 l 298 228 l 296 231 l 296 551 l 68 779 l 293 1004 l 296 1234 l 296 1324 l 301 1329 l 616 1329 l 846 1557 m 833 966 l 838 928 l 836 925 l 833 925 q 540 1031 703 925 q 437 1126 482 1078 q 412 1031 412 1076 q 491 871 412 941 l 486 871 q 410 892 460 871 q 556 703 410 753 l 562 703 l 562 697 l 518 692 l 477 694 q 583 578 509 614 q 654 562 625 562 l 654 559 q 418 477 553 477 l 401 477 l 377 480 l 374 480 l 374 477 q 659 393 528 393 q 1180 732 1024 393 q 1223 966 1223 836 l 1223 968 q 1318 1072 1291 1027 l 1316 1072 q 1218 1044 1248 1044 q 1291 1147 1291 1110 l 1289 1147 q 1169 1104 1206 1104 q 1028 1164 1106 1164 q 846 1039 911 1164 q 833 966 836 1004 z "},"":{"ha":1487,"x_min":68,"x_max":1419,"o":"m 746 1557 l 1419 1166 l 1419 391 q 765 11 1407 380 q 741 0 751 0 l 68 391 l 68 1164 q 537 1438 84 1180 q 746 1557 711 1541 m 730 966 l 735 928 l 732 925 l 730 925 q 437 1031 600 925 q 334 1126 379 1078 q 309 1031 309 1076 q 388 871 309 941 l 382 871 q 307 892 357 871 q 453 703 307 753 l 458 703 l 458 697 l 415 692 l 374 694 q 480 578 406 614 q 551 562 522 562 l 551 559 q 315 477 450 477 l 298 477 l 274 480 l 271 480 l 271 477 q 556 393 425 393 q 1077 732 921 393 q 1120 966 1120 836 l 1120 968 q 1215 1072 1188 1027 l 1213 1072 q 1115 1044 1145 1044 q 1188 1147 1188 1110 l 1185 1147 q 1066 1104 1103 1104 q 925 1164 1003 1164 q 743 1039 808 1164 q 730 966 732 1004 z "},"":{"ha":1698,"x_min":68,"x_max":1630,"o":"m 73 1563 l 1625 1563 l 1630 1557 l 1630 5 l 1625 0 l 73 0 l 68 5 l 68 1557 l 73 1563 m 399 830 q 591 458 399 524 q 616 448 616 453 l 616 366 q 656 307 616 307 q 773 420 677 307 l 846 418 q 1261 597 1183 418 q 1297 819 1297 697 l 1297 871 q 1134 1204 1297 1131 q 833 1256 1013 1256 q 488 1153 616 1256 q 420 1031 442 1095 q 399 830 399 932 m 825 1188 q 1185 1069 1126 1188 q 1232 836 1232 989 q 1074 521 1232 564 q 841 488 947 488 l 792 491 q 654 336 712 391 q 643 353 648 336 l 646 464 l 646 510 l 589 534 q 491 656 518 578 q 469 833 469 727 q 578 1128 469 1068 q 825 1188 678 1188 m 830 1069 q 911 1050 830 1061 q 1034 958 985 1029 q 1066 825 1066 900 l 1069 817 l 1077 814 q 1090 825 1090 817 q 922 1072 1090 1007 q 844 1085 897 1080 q 830 1069 830 1084 m 600 968 q 694 781 600 932 q 903 616 803 656 q 996 583 963 583 q 1074 659 1037 583 l 1074 670 q 960 757 1064 709 l 958 757 q 906 716 935 757 l 887 711 q 760 806 796 740 q 730 868 745 827 q 768 917 730 889 l 773 933 l 773 939 q 697 1055 773 973 l 686 1058 q 602 990 646 1058 l 600 968 m 854 1017 l 854 1009 q 906 993 854 1000 q 990 925 960 975 q 1006 844 1006 881 l 1020 841 l 1028 849 l 1028 868 q 947 1001 1028 950 q 868 1025 926 1015 q 854 1017 854 1022 m 871 949 l 871 944 q 914 928 871 937 q 941 868 941 909 l 949 860 q 966 868 964 860 l 966 882 q 884 960 966 944 q 871 949 872 955 z "},"":{"ha":1698,"x_min":68,"x_max":1630,"o":"m 298 1563 l 1408 1563 q 1619 1438 1567 1563 q 1630 1343 1630 1401 l 1630 220 q 1557 43 1630 90 q 1416 0 1512 0 l 285 0 q 73 146 118 0 l 68 231 l 68 1340 q 206 1554 68 1508 q 298 1563 238 1563 m 399 830 q 591 458 399 524 q 616 448 616 453 l 616 366 q 656 307 616 307 q 773 420 677 307 l 846 418 q 1261 597 1183 418 q 1297 819 1297 697 l 1297 871 q 1134 1204 1297 1131 q 833 1256 1013 1256 q 488 1153 616 1256 q 420 1031 442 1095 q 399 830 399 932 m 825 1188 q 1185 1069 1126 1188 q 1232 836 1232 989 q 1074 521 1232 564 q 841 488 947 488 l 792 491 q 654 336 712 391 q 643 353 648 336 l 646 464 l 646 510 l 589 534 q 491 656 518 578 q 469 833 469 727 q 578 1128 469 1068 q 825 1188 678 1188 m 830 1069 q 911 1050 830 1061 q 1034 958 985 1029 q 1066 825 1066 900 l 1069 817 l 1077 814 q 1090 825 1090 817 q 922 1072 1090 1007 q 844 1085 897 1080 q 830 1069 830 1084 m 600 968 q 694 781 600 932 q 903 616 803 656 q 996 583 963 583 q 1074 659 1037 583 l 1074 670 q 960 757 1064 709 l 958 757 q 906 716 935 757 l 887 711 q 760 806 796 740 q 730 868 745 827 q 768 917 730 889 l 773 933 l 773 939 q 697 1055 773 973 l 686 1058 q 602 990 646 1058 l 600 968 m 854 1017 l 854 1009 q 906 993 854 1000 q 990 925 960 975 q 1006 844 1006 881 l 1020 841 l 1028 849 l 1028 868 q 947 1001 1028 950 q 868 1025 926 1015 q 854 1017 854 1022 m 871 949 l 871 944 q 914 928 871 937 q 941 868 941 909 l 949 860 q 966 868 964 860 l 966 882 q 884 960 966 944 q 871 949 872 955 z "},"":{"ha":1698,"x_min":68,"x_max":1630,"o":"m 849 1563 q 1438 1294 1183 1563 q 1630 784 1630 1061 q 1343 176 1630 429 q 852 0 1113 0 q 231 304 488 0 q 68 781 68 530 q 239 1267 68 1036 q 662 1538 390 1461 q 849 1563 709 1554 m 399 830 q 591 458 399 524 q 616 448 616 453 l 616 366 q 656 307 616 307 q 773 420 677 307 l 846 418 q 1261 597 1183 418 q 1297 819 1297 697 l 1297 871 q 1134 1204 1297 1131 q 833 1256 1013 1256 q 488 1153 616 1256 q 420 1031 442 1095 q 399 830 399 932 m 825 1188 q 1185 1069 1126 1188 q 1232 836 1232 989 q 1074 521 1232 564 q 841 488 947 488 l 792 491 q 654 336 712 391 q 643 353 648 336 l 646 464 l 646 510 l 589 534 q 491 656 518 578 q 469 833 469 727 q 578 1128 469 1068 q 825 1188 678 1188 m 830 1069 q 911 1050 830 1061 q 1034 958 985 1029 q 1066 825 1066 900 l 1069 817 l 1077 814 q 1090 825 1090 817 q 922 1072 1090 1007 q 844 1085 897 1080 q 830 1069 830 1084 m 600 968 q 694 781 600 932 q 903 616 803 656 q 996 583 963 583 q 1074 659 1037 583 l 1074 670 q 960 757 1064 709 l 958 757 q 906 716 935 757 l 887 711 q 760 806 796 740 q 730 868 745 827 q 768 917 730 889 l 773 933 l 773 939 q 697 1055 773 973 l 686 1058 q 602 990 646 1058 l 600 968 m 854 1017 l 854 1009 q 906 993 854 1000 q 990 925 960 975 q 1006 844 1006 881 l 1020 841 l 1028 849 l 1028 868 q 947 1001 1028 950 q 868 1025 926 1015 q 854 1017 854 1022 m 871 949 l 871 944 q 914 928 871 937 q 941 868 941 909 l 949 860 q 966 868 964 860 l 966 882 q 884 960 966 944 q 871 949 872 955 z "},"":{"ha":1693,"x_min":68,"x_max":1625,"o":"m 849 1557 q 1009 1394 963 1488 q 1223 1451 1130 1451 l 1240 1451 q 1297 1229 1297 1333 q 1522 1169 1406 1229 q 1462 941 1522 1059 l 1465 941 q 1625 781 1563 881 l 1625 773 q 1462 613 1560 669 q 1522 388 1522 500 q 1297 328 1409 328 q 1237 103 1297 211 q 1009 163 1131 103 q 849 0 951 62 q 681 163 767 35 q 458 103 571 103 q 396 328 396 211 q 174 385 290 328 l 174 401 q 231 613 174 504 l 231 616 q 68 779 130 671 q 182 911 83 821 q 231 947 231 938 q 174 1153 174 1051 l 174 1166 q 374 1226 271 1226 l 382 1226 q 399 1253 399 1226 q 458 1451 399 1353 l 472 1451 q 681 1394 570 1451 l 684 1394 q 849 1557 755 1510 m 396 827 q 589 456 396 521 q 613 445 613 450 l 613 363 q 654 304 613 304 q 770 418 675 304 l 844 415 q 1259 594 1180 415 q 1294 817 1294 694 l 1294 868 q 1131 1202 1294 1128 q 830 1253 1010 1253 q 486 1150 614 1253 q 418 1028 439 1092 q 396 827 396 930 m 822 1185 q 1183 1066 1123 1185 q 1229 833 1229 987 q 1072 518 1229 562 q 838 486 944 486 l 789 488 q 651 334 709 388 q 640 350 646 334 l 643 461 l 643 507 l 586 532 q 488 654 515 576 q 467 830 467 724 q 575 1126 467 1065 q 822 1185 675 1185 m 827 1066 q 909 1047 827 1058 q 1031 955 983 1026 q 1063 822 1063 897 l 1066 814 l 1074 811 q 1088 822 1087 814 q 920 1069 1088 1004 q 841 1082 894 1077 q 827 1066 827 1081 m 597 966 q 692 779 597 930 q 901 613 800 653 q 993 581 960 581 q 1072 656 1034 581 l 1072 667 q 958 754 1061 707 l 955 754 q 903 713 932 754 l 884 708 q 757 803 793 737 q 727 865 742 824 q 765 914 727 886 l 770 930 l 770 936 q 694 1053 770 970 l 684 1055 q 600 987 643 1055 l 597 966 m 852 1015 l 852 1006 q 903 990 852 997 q 987 922 958 972 q 1004 841 1004 878 l 1017 838 l 1025 846 l 1025 865 q 944 998 1025 947 q 865 1023 924 1012 q 852 1015 852 1019 m 868 947 l 868 941 q 911 925 868 934 q 939 865 939 907 l 947 857 q 963 865 961 857 l 963 879 q 882 958 963 941 q 868 947 869 952 z "},"":{"ha":1693,"x_min":68,"x_max":1625,"o":"m 846 1557 l 1072 1332 l 1308 1329 l 1392 1329 l 1397 1324 l 1397 1009 l 1625 779 l 1400 551 l 1400 534 l 1397 231 l 1394 228 l 1077 228 l 846 0 l 618 225 l 602 225 l 298 228 l 296 231 l 296 551 l 68 779 l 293 1004 l 296 1234 l 296 1324 l 301 1329 l 616 1329 l 846 1557 m 396 827 q 589 456 396 521 q 613 445 613 450 l 613 363 q 654 304 613 304 q 770 418 675 304 l 844 415 q 1259 594 1180 415 q 1294 817 1294 694 l 1294 868 q 1131 1202 1294 1128 q 830 1253 1010 1253 q 486 1150 614 1253 q 418 1028 439 1092 q 396 827 396 930 m 822 1185 q 1183 1066 1123 1185 q 1229 833 1229 987 q 1072 518 1229 562 q 838 486 944 486 l 789 488 q 651 334 709 388 q 640 350 646 334 l 643 461 l 643 507 l 586 532 q 488 654 515 576 q 467 830 467 724 q 575 1126 467 1065 q 822 1185 675 1185 m 827 1066 q 909 1047 827 1058 q 1031 955 983 1026 q 1063 822 1063 897 l 1066 814 l 1074 811 q 1088 822 1087 814 q 920 1069 1088 1004 q 841 1082 894 1077 q 827 1066 827 1081 m 597 966 q 692 779 597 930 q 901 613 800 653 q 993 581 960 581 q 1072 656 1034 581 l 1072 667 q 958 754 1061 707 l 955 754 q 903 713 932 754 l 884 708 q 757 803 793 737 q 727 865 742 824 q 765 914 727 886 l 770 930 l 770 936 q 694 1053 770 970 l 684 1055 q 600 987 643 1055 l 597 966 m 852 1015 l 852 1006 q 903 990 852 997 q 987 922 958 972 q 1004 841 1004 878 l 1017 838 l 1025 846 l 1025 865 q 944 998 1025 947 q 865 1023 924 1012 q 852 1015 852 1019 m 868 947 l 868 941 q 911 925 868 934 q 939 865 939 907 l 947 857 q 963 865 961 857 l 963 879 q 882 958 963 941 q 868 947 869 952 z "},"":{"ha":1487,"x_min":68,"x_max":1419,"o":"m 746 1557 l 1419 1166 l 1419 391 q 765 11 1407 380 q 741 0 751 0 l 68 391 l 68 1164 q 537 1438 84 1180 q 746 1557 711 1541 m 293 827 q 486 456 293 521 q 510 445 510 450 l 510 363 q 551 304 510 304 q 667 418 572 304 l 741 415 q 1156 594 1077 415 q 1191 817 1191 694 l 1191 868 q 1028 1202 1191 1128 q 727 1253 907 1253 q 382 1150 511 1253 q 315 1028 336 1092 q 293 827 293 930 m 719 1185 q 1080 1066 1020 1185 q 1126 833 1126 987 q 968 518 1126 562 q 735 486 841 486 l 686 488 q 548 334 606 388 q 537 350 543 334 l 540 461 l 540 507 l 483 532 q 385 654 412 576 q 363 830 363 724 q 472 1126 363 1065 q 719 1185 572 1185 m 724 1066 q 806 1047 724 1058 q 928 955 880 1026 q 960 822 960 897 l 963 814 l 971 811 q 985 822 984 814 q 817 1069 985 1004 q 738 1082 791 1077 q 724 1066 724 1081 m 494 966 q 589 779 494 930 q 798 613 697 653 q 890 581 857 581 q 968 656 931 581 l 968 667 q 854 754 958 707 l 852 754 q 800 713 829 754 l 781 708 q 654 803 690 737 q 624 865 639 824 q 662 914 624 886 l 667 930 l 667 936 q 591 1053 667 970 l 581 1055 q 496 987 540 1055 l 494 966 m 749 1015 l 749 1006 q 800 990 749 997 q 884 922 854 972 q 901 841 901 878 l 914 838 l 922 846 l 922 865 q 841 998 922 947 q 762 1023 821 1012 q 749 1015 749 1019 m 765 947 l 765 941 q 808 925 765 934 q 836 865 836 907 l 844 857 q 860 865 858 857 l 860 879 q 779 958 860 941 q 765 947 766 952 z "},"":{"ha":1698,"x_min":68,"x_max":1630,"o":"m 73 1563 l 1625 1563 l 1630 1557 l 1630 5 l 1625 0 l 73 0 l 68 5 l 68 1557 l 73 1563 m 374 1036 q 562 656 399 881 q 868 499 700 499 q 930 540 930 499 l 930 632 q 955 667 930 667 q 1147 510 1010 667 q 1180 499 1166 499 l 1280 499 q 1321 521 1321 499 l 1324 524 q 1158 743 1324 579 l 1153 762 l 1270 952 q 1305 1039 1305 1019 q 1256 1063 1305 1063 l 1180 1063 q 1118 1028 1131 1063 q 977 806 1061 890 q 947 789 959 789 l 944 789 q 930 819 935 789 l 930 1034 q 887 1063 930 1063 l 743 1063 q 711 1036 711 1063 q 749 966 749 977 l 751 936 l 751 779 q 741 746 751 746 l 727 746 q 640 849 673 786 q 551 1047 602 913 q 502 1063 538 1063 l 423 1063 q 374 1036 374 1063 z "},"":{"ha":1698,"x_min":68,"x_max":1630,"o":"m 298 1563 l 1408 1563 q 1619 1438 1567 1563 q 1630 1343 1630 1401 l 1630 220 q 1557 43 1630 90 q 1416 0 1512 0 l 285 0 q 73 146 118 0 l 68 231 l 68 1340 q 206 1554 68 1508 q 298 1563 238 1563 m 374 1036 q 562 656 399 881 q 868 499 700 499 q 930 540 930 499 l 930 632 q 955 667 930 667 q 1147 510 1010 667 q 1180 499 1166 499 l 1280 499 q 1321 521 1321 499 l 1324 524 q 1158 743 1324 579 l 1153 762 l 1270 952 q 1305 1039 1305 1019 q 1256 1063 1305 1063 l 1180 1063 q 1118 1028 1131 1063 q 977 806 1061 890 q 947 789 959 789 l 944 789 q 930 819 935 789 l 930 1034 q 887 1063 930 1063 l 743 1063 q 711 1036 711 1063 q 749 966 749 977 l 751 936 l 751 779 q 741 746 751 746 l 727 746 q 640 849 673 786 q 551 1047 602 913 q 502 1063 538 1063 l 423 1063 q 374 1036 374 1063 z "},"":{"ha":1698,"x_min":68,"x_max":1630,"o":"m 849 1563 q 1438 1294 1183 1563 q 1630 784 1630 1061 q 1343 176 1630 429 q 852 0 1113 0 q 231 304 488 0 q 68 781 68 530 q 239 1267 68 1036 q 662 1538 390 1461 q 849 1563 709 1554 m 374 1036 q 562 656 399 881 q 868 499 700 499 q 930 540 930 499 l 930 632 q 955 667 930 667 q 1147 510 1010 667 q 1180 499 1166 499 l 1280 499 q 1321 521 1321 499 l 1324 524 q 1158 743 1324 579 l 1153 762 l 1270 952 q 1305 1039 1305 1019 q 1256 1063 1305 1063 l 1180 1063 q 1118 1028 1131 1063 q 977 806 1061 890 q 947 789 959 789 l 944 789 q 930 819 935 789 l 930 1034 q 887 1063 930 1063 l 743 1063 q 711 1036 711 1063 q 749 966 749 977 l 751 936 l 751 779 q 741 746 751 746 l 727 746 q 640 849 673 786 q 551 1047 602 913 q 502 1063 538 1063 l 423 1063 q 374 1036 374 1063 z "},"":{"ha":1693,"x_min":68,"x_max":1625,"o":"m 849 1557 q 1009 1394 963 1488 q 1223 1451 1130 1451 l 1240 1451 q 1297 1229 1297 1333 q 1522 1169 1406 1229 q 1462 941 1522 1059 l 1465 941 q 1625 781 1563 881 l 1625 773 q 1462 613 1560 669 q 1522 388 1522 500 q 1297 328 1409 328 q 1237 103 1297 211 q 1009 163 1131 103 q 849 0 951 62 q 681 163 767 35 q 458 103 571 103 q 396 328 396 211 q 174 385 290 328 l 174 401 q 231 613 174 504 l 231 616 q 68 779 130 671 q 182 911 83 821 q 231 947 231 938 q 174 1153 174 1051 l 174 1166 q 374 1226 271 1226 l 382 1226 q 399 1253 399 1226 q 458 1451 399 1353 l 472 1451 q 681 1394 570 1451 l 684 1394 q 849 1557 755 1510 m 372 1034 q 559 654 397 878 q 865 496 697 496 q 928 537 928 496 l 928 629 q 952 665 928 665 q 1145 507 1007 665 q 1177 496 1163 496 l 1278 496 q 1318 518 1318 496 l 1321 521 q 1156 741 1321 576 l 1150 760 l 1267 949 q 1302 1036 1302 1016 q 1253 1061 1302 1061 l 1177 1061 q 1115 1025 1128 1061 q 974 803 1058 888 q 944 787 956 787 l 941 787 q 928 817 932 787 l 928 1031 q 884 1061 928 1061 l 741 1061 q 708 1034 708 1061 q 746 963 746 974 l 749 933 l 749 776 q 738 743 749 743 l 724 743 q 637 846 670 783 q 548 1044 600 911 q 499 1061 535 1061 l 420 1061 q 372 1034 372 1061 z "},"":{"ha":1693,"x_min":68,"x_max":1625,"o":"m 846 1557 l 1072 1332 l 1308 1329 l 1392 1329 l 1397 1324 l 1397 1009 l 1625 779 l 1400 551 l 1400 534 l 1397 231 l 1394 228 l 1077 228 l 846 0 l 618 225 l 602 225 l 298 228 l 296 231 l 296 551 l 68 779 l 293 1004 l 296 1234 l 296 1324 l 301 1329 l 616 1329 l 846 1557 m 372 1034 q 559 654 397 878 q 865 496 697 496 q 928 537 928 496 l 928 629 q 952 665 928 665 q 1145 507 1007 665 q 1177 496 1163 496 l 1278 496 q 1318 518 1318 496 l 1321 521 q 1156 741 1321 576 l 1150 760 l 1267 949 q 1302 1036 1302 1016 q 1253 1061 1302 1061 l 1177 1061 q 1115 1025 1128 1061 q 974 803 1058 888 q 944 787 956 787 l 941 787 q 928 817 932 787 l 928 1031 q 884 1061 928 1061 l 741 1061 q 708 1034 708 1061 q 746 963 746 974 l 749 933 l 749 776 q 738 743 749 743 l 724 743 q 637 846 670 783 q 548 1044 600 911 q 499 1061 535 1061 l 420 1061 q 372 1034 372 1061 z "},"":{"ha":1487,"x_min":68,"x_max":1419,"o":"m 746 1557 l 1419 1166 l 1419 391 q 765 11 1407 380 q 741 0 751 0 l 68 391 l 68 1164 q 537 1438 84 1180 q 746 1557 711 1541 m 269 1034 q 456 654 294 878 q 762 496 594 496 q 825 537 825 496 l 825 629 q 849 665 825 665 q 1042 507 904 665 q 1074 496 1060 496 l 1175 496 q 1215 518 1215 496 l 1218 521 q 1053 741 1218 576 l 1047 760 l 1164 949 q 1199 1036 1199 1016 q 1150 1061 1199 1061 l 1074 1061 q 1012 1025 1025 1061 q 871 803 955 888 q 841 787 853 787 l 838 787 q 825 817 829 787 l 825 1031 q 781 1061 825 1061 l 637 1061 q 605 1034 605 1061 q 643 963 643 974 l 646 933 l 646 776 q 635 743 646 743 l 621 743 q 534 846 567 783 q 445 1044 496 911 q 396 1061 432 1061 l 317 1061 q 269 1034 269 1061 z "},"":{"ha":1698,"x_min":68,"x_max":1630,"o":"m 73 1563 l 1625 1563 l 1630 1557 l 1630 5 l 1625 0 l 73 0 l 68 5 l 68 1557 l 73 1563 m 374 879 q 496 659 374 757 l 502 651 l 502 646 q 483 572 502 623 q 496 559 483 565 q 597 610 587 610 q 735 594 655 594 l 735 597 q 724 670 727 627 q 830 857 724 772 q 1055 925 922 925 l 1055 928 q 1012 1025 1055 952 q 906 1115 937 1110 q 716 1164 814 1164 q 418 1017 538 1164 q 374 879 374 942 m 602 1017 q 648 971 648 1008 q 597 925 648 925 q 556 968 568 925 q 602 1017 568 1017 m 833 1017 q 879 971 879 1006 q 833 925 873 925 q 787 968 787 932 q 833 1017 796 1017 m 751 665 q 906 453 751 530 q 1039 426 977 426 q 1139 439 1065 426 l 1226 396 l 1232 404 l 1232 410 l 1218 467 l 1218 472 q 1321 646 1321 562 l 1324 667 q 1207 857 1324 772 q 1039 903 1136 898 q 787 776 881 903 q 751 665 751 718 m 941 779 q 979 738 975 779 q 939 703 979 703 q 903 741 912 703 q 941 779 903 767 m 1134 779 q 1172 741 1172 770 q 1131 703 1172 707 q 1096 741 1104 703 q 1134 779 1104 779 z "},"":{"ha":1698,"x_min":68,"x_max":1630,"o":"m 298 1563 l 1408 1563 q 1619 1438 1567 1563 q 1630 1343 1630 1401 l 1630 220 q 1557 43 1630 90 q 1416 0 1512 0 l 285 0 q 73 146 118 0 l 68 231 l 68 1340 q 206 1554 68 1508 q 298 1563 238 1563 m 374 879 q 496 659 374 757 l 502 651 l 502 646 q 483 572 502 623 q 496 559 483 565 q 597 610 587 610 q 735 594 655 594 l 735 597 q 724 670 727 627 q 830 857 724 772 q 1055 925 922 925 l 1055 928 q 1012 1025 1055 952 q 906 1115 937 1110 q 716 1164 814 1164 q 418 1017 538 1164 q 374 879 374 942 m 602 1017 q 648 971 648 1008 q 597 925 648 925 q 556 968 568 925 q 602 1017 568 1017 m 833 1017 q 879 971 879 1006 q 833 925 873 925 q 787 968 787 932 q 833 1017 796 1017 m 751 665 q 906 453 751 530 q 1039 426 977 426 q 1139 439 1065 426 l 1226 396 l 1232 404 l 1232 410 l 1218 467 l 1218 472 q 1321 646 1321 562 l 1324 667 q 1207 857 1324 772 q 1039 903 1136 898 q 787 776 881 903 q 751 665 751 718 m 941 779 q 979 738 975 779 q 939 703 979 703 q 903 741 912 703 q 941 779 903 767 m 1134 779 q 1172 741 1172 770 q 1131 703 1172 707 q 1096 741 1104 703 q 1134 779 1104 779 z "},"":{"ha":1698,"x_min":68,"x_max":1630,"o":"m 849 1563 q 1438 1294 1183 1563 q 1630 784 1630 1061 q 1343 176 1630 429 q 852 0 1113 0 q 231 304 488 0 q 68 781 68 530 q 239 1267 68 1036 q 662 1538 390 1461 q 849 1563 709 1554 m 374 879 q 496 659 374 757 l 502 651 l 502 646 q 483 572 502 623 q 496 559 483 565 q 597 610 587 610 q 735 594 655 594 l 735 597 q 724 670 727 627 q 830 857 724 772 q 1055 925 922 925 l 1055 928 q 1012 1025 1055 952 q 906 1115 937 1110 q 716 1164 814 1164 q 418 1017 538 1164 q 374 879 374 942 m 602 1017 q 648 971 648 1008 q 597 925 648 925 q 556 968 568 925 q 602 1017 568 1017 m 833 1017 q 879 971 879 1006 q 833 925 873 925 q 787 968 787 932 q 833 1017 796 1017 m 751 665 q 906 453 751 530 q 1039 426 977 426 q 1139 439 1065 426 l 1226 396 l 1232 404 l 1232 410 l 1218 467 l 1218 472 q 1321 646 1321 562 l 1324 667 q 1207 857 1324 772 q 1039 903 1136 898 q 787 776 881 903 q 751 665 751 718 m 941 779 q 979 738 975 779 q 939 703 979 703 q 903 741 912 703 q 941 779 903 767 m 1134 779 q 1172 741 1172 770 q 1131 703 1172 707 q 1096 741 1104 703 q 1134 779 1104 779 z "},"":{"ha":1693,"x_min":68,"x_max":1625,"o":"m 849 1557 q 1009 1394 963 1488 q 1223 1451 1130 1451 l 1240 1451 q 1297 1229 1297 1333 q 1522 1169 1406 1229 q 1462 941 1522 1059 l 1465 941 q 1625 781 1563 881 l 1625 773 q 1462 613 1560 669 q 1522 388 1522 500 q 1297 328 1409 328 q 1237 103 1297 211 q 1009 163 1131 103 q 849 0 951 62 q 681 163 767 35 q 458 103 571 103 q 396 328 396 211 q 174 385 290 328 l 174 401 q 231 613 174 504 l 231 616 q 68 779 130 671 q 182 911 83 821 q 231 947 231 938 q 174 1153 174 1051 l 174 1166 q 374 1226 271 1226 l 382 1226 q 399 1253 399 1226 q 458 1451 399 1353 l 472 1451 q 681 1394 570 1451 l 684 1394 q 849 1557 755 1510 m 372 876 q 494 656 372 754 l 499 648 l 499 643 q 480 570 499 621 q 494 556 480 562 q 594 608 584 608 q 732 591 652 591 l 732 594 q 722 667 724 624 q 827 854 722 769 q 1053 922 920 922 l 1053 925 q 1009 1023 1053 949 q 903 1112 934 1107 q 713 1161 812 1161 q 415 1015 535 1161 q 372 876 372 939 m 600 1015 q 646 968 646 1006 q 594 922 646 922 q 553 966 566 922 q 600 1015 566 1015 m 830 1015 q 876 968 876 1004 q 830 922 870 922 q 784 966 784 929 q 830 1015 793 1015 m 749 662 q 903 450 749 528 q 1036 423 974 423 q 1137 437 1062 423 l 1223 393 l 1229 401 l 1229 407 l 1215 464 l 1215 469 q 1318 643 1318 559 l 1321 665 q 1204 854 1321 769 q 1036 901 1133 895 q 784 773 878 901 q 749 662 749 715 m 939 776 q 977 735 972 776 q 936 700 977 700 q 901 738 909 700 q 939 776 901 764 m 1131 776 q 1169 738 1169 768 q 1128 700 1169 705 q 1093 738 1101 700 q 1131 776 1101 776 z "},"":{"ha":1693,"x_min":68,"x_max":1625,"o":"m 846 1557 l 1072 1332 l 1308 1329 l 1392 1329 l 1397 1324 l 1397 1009 l 1625 779 l 1400 551 l 1400 534 l 1397 231 l 1394 228 l 1077 228 l 846 0 l 618 225 l 602 225 l 298 228 l 296 231 l 296 551 l 68 779 l 293 1004 l 296 1234 l 296 1324 l 301 1329 l 616 1329 l 846 1557 m 372 876 q 494 656 372 754 l 499 648 l 499 643 q 480 570 499 621 q 494 556 480 562 q 594 608 584 608 q 732 591 652 591 l 732 594 q 722 667 724 624 q 827 854 722 769 q 1053 922 920 922 l 1053 925 q 1009 1023 1053 949 q 903 1112 934 1107 q 713 1161 812 1161 q 415 1015 535 1161 q 372 876 372 939 m 600 1015 q 646 968 646 1006 q 594 922 646 922 q 553 966 566 922 q 600 1015 566 1015 m 830 1015 q 876 968 876 1004 q 830 922 870 922 q 784 966 784 929 q 830 1015 793 1015 m 749 662 q 903 450 749 528 q 1036 423 974 423 q 1137 437 1062 423 l 1223 393 l 1229 401 l 1229 407 l 1215 464 l 1215 469 q 1318 643 1318 559 l 1321 665 q 1204 854 1321 769 q 1036 901 1133 895 q 784 773 878 901 q 749 662 749 715 m 939 776 q 977 735 972 776 q 936 700 977 700 q 901 738 909 700 q 939 776 901 764 m 1131 776 q 1169 738 1169 768 q 1128 700 1169 705 q 1093 738 1101 700 q 1131 776 1101 776 z "},"":{"ha":1487,"x_min":68,"x_max":1419,"o":"m 746 1557 l 1419 1166 l 1419 391 q 765 11 1407 380 q 741 0 751 0 l 68 391 l 68 1164 q 537 1438 84 1180 q 746 1557 711 1541 m 269 876 q 391 656 269 754 l 396 648 l 396 643 q 377 570 396 621 q 391 556 377 562 q 491 608 481 608 q 629 591 549 591 l 629 594 q 618 667 621 624 q 724 854 618 769 q 949 922 817 922 l 949 925 q 906 1023 949 949 q 800 1112 831 1107 q 610 1161 709 1161 q 312 1015 432 1161 q 269 876 269 939 m 496 1015 q 543 968 543 1006 q 491 922 543 922 q 450 966 463 922 q 496 1015 463 1015 m 727 1015 q 773 968 773 1004 q 727 922 767 922 q 681 966 681 929 q 727 1015 690 1015 m 646 662 q 800 450 646 528 q 933 423 871 423 q 1034 437 959 423 l 1120 393 l 1126 401 l 1126 407 l 1112 464 l 1112 469 q 1215 643 1215 559 l 1218 665 q 1101 854 1218 769 q 933 901 1030 895 q 681 773 775 901 q 646 662 646 715 m 836 776 q 873 735 869 776 q 833 700 873 700 q 798 738 806 700 q 836 776 798 764 m 1028 776 q 1066 738 1066 768 q 1025 700 1066 705 q 990 738 998 700 q 1028 776 998 776 z "},"":{"ha":1698,"x_min":68,"x_max":1630,"o":"m 73 1563 l 1625 1563 l 1630 1557 l 1630 5 l 1625 0 l 73 0 l 68 5 l 68 1557 l 73 1563 m 380 787 q 442 551 380 675 l 377 307 l 627 372 q 857 315 736 315 q 1223 499 1069 315 q 1321 784 1321 630 q 1090 1191 1321 1033 q 854 1256 967 1256 q 461 1047 616 1256 q 380 787 380 920 m 852 1177 q 1194 977 1060 1177 q 1242 781 1242 880 q 1031 437 1242 566 q 857 393 940 393 q 637 458 734 393 l 494 420 l 491 420 l 529 564 q 461 787 461 674 q 662 1128 461 997 q 852 1177 762 1177 m 613 892 q 795 629 613 776 q 977 559 905 559 q 1082 618 1046 559 l 1090 665 q 974 727 1090 682 l 966 727 q 911 667 922 667 l 906 667 q 735 811 800 705 l 735 825 q 773 890 773 863 q 716 1001 728 1001 l 694 1004 q 616 906 637 1004 l 613 892 z "},"":{"ha":1698,"x_min":68,"x_max":1630,"o":"m 298 1563 l 1408 1563 q 1619 1438 1567 1563 q 1630 1343 1630 1401 l 1630 220 q 1557 43 1630 90 q 1416 0 1512 0 l 285 0 q 73 146 118 0 l 68 231 l 68 1340 q 206 1554 68 1508 q 298 1563 238 1563 m 380 787 q 442 551 380 675 l 377 307 l 627 372 q 857 315 736 315 q 1223 499 1069 315 q 1321 784 1321 630 q 1090 1191 1321 1033 q 854 1256 967 1256 q 461 1047 616 1256 q 380 787 380 920 m 852 1177 q 1194 977 1060 1177 q 1242 781 1242 880 q 1031 437 1242 566 q 857 393 940 393 q 637 458 734 393 l 494 420 l 491 420 l 529 564 q 461 787 461 674 q 662 1128 461 997 q 852 1177 762 1177 m 613 892 q 795 629 613 776 q 977 559 905 559 q 1082 618 1046 559 l 1090 665 q 974 727 1090 682 l 966 727 q 911 667 922 667 l 906 667 q 735 811 800 705 l 735 825 q 773 890 773 863 q 716 1001 728 1001 l 694 1004 q 616 906 637 1004 l 613 892 z "},"":{"ha":1698,"x_min":68,"x_max":1630,"o":"m 849 1563 q 1438 1294 1183 1563 q 1630 784 1630 1061 q 1343 176 1630 429 q 852 0 1113 0 q 231 304 488 0 q 68 781 68 530 q 239 1267 68 1036 q 662 1538 390 1461 q 849 1563 709 1554 m 380 787 q 442 551 380 675 l 377 307 l 627 372 q 857 315 736 315 q 1223 499 1069 315 q 1321 784 1321 630 q 1090 1191 1321 1033 q 854 1256 967 1256 q 461 1047 616 1256 q 380 787 380 920 m 852 1177 q 1194 977 1060 1177 q 1242 781 1242 880 q 1031 437 1242 566 q 857 393 940 393 q 637 458 734 393 l 494 420 l 491 420 l 529 564 q 461 787 461 674 q 662 1128 461 997 q 852 1177 762 1177 m 613 892 q 795 629 613 776 q 977 559 905 559 q 1082 618 1046 559 l 1090 665 q 974 727 1090 682 l 966 727 q 911 667 922 667 l 906 667 q 735 811 800 705 l 735 825 q 773 890 773 863 q 716 1001 728 1001 l 694 1004 q 616 906 637 1004 l 613 892 z "},"":{"ha":1693,"x_min":68,"x_max":1625,"o":"m 849 1557 q 1009 1394 963 1488 q 1223 1451 1130 1451 l 1240 1451 q 1297 1229 1297 1333 q 1522 1169 1406 1229 q 1462 941 1522 1059 l 1465 941 q 1625 781 1563 881 l 1625 773 q 1462 613 1560 669 q 1522 388 1522 500 q 1297 328 1409 328 q 1237 103 1297 211 q 1009 163 1131 103 q 849 0 951 62 q 681 163 767 35 q 458 103 571 103 q 399 304 399 207 l 399 307 q 556 350 413 317 l 624 369 q 854 312 733 312 q 1221 496 1067 312 q 1318 781 1318 627 q 1088 1188 1318 1030 q 852 1253 964 1253 q 458 1044 613 1253 q 377 784 377 917 q 439 548 377 672 q 380 328 391 354 q 174 385 296 328 l 174 401 q 231 613 174 504 l 231 616 q 68 779 130 671 q 182 911 83 821 q 231 947 231 938 q 174 1153 174 1051 l 174 1166 q 374 1226 271 1226 l 382 1226 q 399 1253 399 1226 q 458 1451 399 1353 l 472 1451 q 681 1394 570 1451 l 684 1394 q 849 1557 755 1510 m 849 1175 q 1191 974 1057 1175 q 1240 779 1240 877 q 1028 434 1240 563 q 854 391 937 391 q 635 456 731 391 l 491 418 l 488 418 l 526 562 q 458 784 458 671 q 659 1126 458 994 q 849 1175 760 1175 m 610 890 q 792 627 610 773 q 974 556 902 556 q 1080 616 1044 556 l 1088 662 q 971 724 1088 679 l 963 724 q 909 665 920 665 l 903 665 q 732 808 797 702 l 732 822 q 770 887 770 861 q 713 998 725 998 l 692 1001 q 613 903 634 1001 l 610 890 z "},"":{"ha":1693,"x_min":68,"x_max":1625,"o":"m 846 1557 l 1072 1332 l 1308 1329 l 1392 1329 l 1397 1324 l 1397 1009 l 1625 779 l 1400 551 l 1400 534 l 1397 231 l 1394 228 l 1077 228 l 846 0 l 618 225 l 602 225 l 298 228 l 296 231 l 296 551 l 68 779 l 293 1004 l 296 1234 l 296 1324 l 301 1329 l 616 1329 l 846 1557 m 377 784 q 439 548 377 672 l 374 304 l 624 369 q 854 312 733 312 q 1221 496 1067 312 q 1318 781 1318 627 q 1088 1188 1318 1030 q 852 1253 964 1253 q 458 1044 613 1253 q 377 784 377 917 m 849 1175 q 1191 974 1057 1175 q 1240 779 1240 877 q 1028 434 1240 563 q 854 391 937 391 q 635 456 731 391 l 491 418 l 488 418 l 526 562 q 458 784 458 671 q 659 1126 458 994 q 849 1175 760 1175 m 610 890 q 792 627 610 773 q 974 556 902 556 q 1080 616 1044 556 l 1088 662 q 971 724 1088 679 l 963 724 q 909 665 920 665 l 903 665 q 732 808 797 702 l 732 822 q 770 887 770 861 q 713 998 725 998 l 692 1001 q 613 903 634 1001 l 610 890 z "},"":{"ha":1487,"x_min":68,"x_max":1419,"o":"m 746 1557 l 1419 1166 l 1419 391 q 765 11 1407 380 q 741 0 751 0 l 68 391 l 68 1164 q 537 1438 84 1180 q 746 1557 711 1541 m 274 784 q 336 548 274 672 l 271 304 l 521 369 q 751 312 630 312 q 1118 496 964 312 q 1215 781 1215 627 q 985 1188 1215 1030 q 749 1253 861 1253 q 355 1044 510 1253 q 274 784 274 917 m 746 1175 q 1088 974 954 1175 q 1137 779 1137 877 q 925 434 1137 563 q 751 391 834 391 q 532 456 628 391 l 388 418 l 385 418 l 423 562 q 355 784 355 671 q 556 1126 355 994 q 746 1175 656 1175 m 507 890 q 689 627 507 773 q 871 556 799 556 q 977 616 941 556 l 985 662 q 868 724 985 679 l 860 724 q 806 665 817 665 l 800 665 q 629 808 694 702 l 629 822 q 667 887 667 861 q 610 998 622 998 l 589 1001 q 510 903 531 1001 l 507 890 z "},"":{"ha":1698,"x_min":68,"x_max":1630,"o":"m 73 1563 l 1625 1563 l 1630 1557 l 1630 5 l 1625 0 l 73 0 l 68 5 l 68 1557 l 73 1563 m 374 781 q 458 513 374 644 q 849 307 614 307 q 1256 537 1099 307 q 1324 781 1324 658 q 1088 1191 1324 1033 q 849 1256 965 1256 q 464 1055 619 1256 q 374 781 374 926 m 849 1207 q 1131 1099 1008 1207 l 1131 1096 q 1061 1023 1076 1096 q 1115 892 1061 982 q 1137 800 1137 848 q 1066 529 1137 766 l 1061 529 l 911 982 l 936 982 q 971 1001 971 982 l 971 1009 l 963 1020 l 836 1015 l 719 1020 q 711 1001 711 1010 q 746 982 711 982 l 768 982 q 836 800 772 982 l 746 524 l 741 524 l 591 982 l 616 982 q 654 1004 654 982 l 643 1020 l 513 1015 l 499 1015 l 499 1020 q 849 1207 638 1207 m 1223 977 l 1229 977 q 1275 781 1275 873 q 1072 418 1275 554 l 1066 418 q 1215 860 1207 825 q 1226 947 1226 896 l 1226 963 l 1223 977 m 456 947 l 458 947 q 575 637 467 939 l 659 399 q 496 543 585 428 q 423 781 423 662 q 456 947 423 850 m 854 738 l 860 738 l 987 382 q 879 355 987 371 l 860 355 q 732 372 791 355 l 854 738 z "},"":{"ha":1698,"x_min":68,"x_max":1630,"o":"m 298 1563 l 1408 1563 q 1619 1438 1567 1563 q 1630 1343 1630 1401 l 1630 220 q 1557 43 1630 90 q 1416 0 1512 0 l 285 0 q 73 146 118 0 l 68 231 l 68 1340 q 206 1554 68 1508 q 298 1563 238 1563 m 374 781 q 458 513 374 644 q 849 307 614 307 q 1256 537 1099 307 q 1324 781 1324 658 q 1088 1191 1324 1033 q 849 1256 965 1256 q 464 1055 619 1256 q 374 781 374 926 m 849 1207 q 1131 1099 1008 1207 l 1131 1096 q 1061 1023 1076 1096 q 1115 892 1061 982 q 1137 800 1137 848 q 1066 529 1137 766 l 1061 529 l 911 982 l 936 982 q 971 1001 971 982 l 971 1009 l 963 1020 l 836 1015 l 719 1020 q 711 1001 711 1010 q 746 982 711 982 l 768 982 q 836 800 772 982 l 746 524 l 741 524 l 591 982 l 616 982 q 654 1004 654 982 l 643 1020 l 513 1015 l 499 1015 l 499 1020 q 849 1207 638 1207 m 1223 977 l 1229 977 q 1275 781 1275 873 q 1072 418 1275 554 l 1066 418 q 1215 860 1207 825 q 1226 947 1226 896 l 1226 963 l 1223 977 m 456 947 l 458 947 q 575 637 467 939 l 659 399 q 496 543 585 428 q 423 781 423 662 q 456 947 423 850 m 854 738 l 860 738 l 987 382 q 879 355 987 371 l 860 355 q 732 372 791 355 l 854 738 z "},"":{"ha":1698,"x_min":68,"x_max":1630,"o":"m 849 1563 q 1438 1294 1183 1563 q 1630 784 1630 1061 q 1343 176 1630 429 q 852 0 1113 0 q 231 304 488 0 q 68 781 68 530 q 239 1267 68 1036 q 662 1538 390 1461 q 849 1563 709 1554 m 374 781 q 458 513 374 644 q 849 307 614 307 q 1256 537 1099 307 q 1324 781 1324 658 q 1088 1191 1324 1033 q 849 1256 965 1256 q 464 1055 619 1256 q 374 781 374 926 m 849 1207 q 1131 1099 1008 1207 l 1131 1096 q 1061 1023 1076 1096 q 1115 892 1061 982 q 1137 800 1137 848 q 1066 529 1137 766 l 1061 529 l 911 982 l 936 982 q 971 1001 971 982 l 971 1009 l 963 1020 l 836 1015 l 719 1020 q 711 1001 711 1010 q 746 982 711 982 l 768 982 q 836 800 772 982 l 746 524 l 741 524 l 591 982 l 616 982 q 654 1004 654 982 l 643 1020 l 513 1015 l 499 1015 l 499 1020 q 849 1207 638 1207 m 1223 977 l 1229 977 q 1275 781 1275 873 q 1072 418 1275 554 l 1066 418 q 1215 860 1207 825 q 1226 947 1226 896 l 1226 963 l 1223 977 m 456 947 l 458 947 q 575 637 467 939 l 659 399 q 496 543 585 428 q 423 781 423 662 q 456 947 423 850 m 854 738 l 860 738 l 987 382 q 879 355 987 371 l 860 355 q 732 372 791 355 l 854 738 z "},"":{"ha":1693,"x_min":68,"x_max":1625,"o":"m 849 1557 q 1009 1394 963 1488 q 1223 1451 1130 1451 l 1240 1451 q 1297 1229 1297 1333 q 1522 1169 1406 1229 q 1462 941 1522 1059 l 1465 941 q 1625 781 1563 881 l 1625 773 q 1462 613 1560 669 q 1522 388 1522 500 q 1297 328 1409 328 q 1237 103 1297 211 q 1009 163 1131 103 q 849 0 951 62 q 681 163 767 35 q 458 103 571 103 q 396 328 396 211 q 174 385 290 328 l 174 401 q 231 613 174 504 l 231 616 q 68 779 130 671 q 182 911 83 821 q 231 947 231 938 q 174 1153 174 1051 l 174 1166 q 374 1226 271 1226 l 382 1226 q 399 1253 399 1226 q 458 1451 399 1353 l 472 1451 q 681 1394 570 1451 l 684 1394 q 849 1557 755 1510 m 372 779 q 456 510 372 641 q 846 304 612 304 q 1253 534 1096 304 q 1321 779 1321 655 q 1085 1188 1321 1030 q 846 1253 962 1253 q 461 1053 616 1253 q 372 779 372 923 m 846 1204 q 1128 1096 1006 1204 l 1128 1093 q 1058 1020 1074 1093 q 1112 890 1058 979 q 1134 798 1134 846 q 1063 526 1134 764 l 1058 526 l 909 979 l 933 979 q 968 998 968 979 l 968 1006 l 960 1017 l 833 1012 l 716 1017 q 708 998 708 1007 q 743 979 708 979 l 765 979 q 833 798 770 979 l 743 521 l 738 521 l 589 979 l 613 979 q 651 1001 651 979 l 640 1017 l 510 1012 l 496 1012 l 496 1017 q 846 1204 635 1204 m 1221 974 l 1226 974 q 1272 779 1272 870 q 1069 415 1272 551 l 1063 415 q 1213 857 1204 823 q 1223 944 1223 893 l 1223 960 l 1221 974 m 453 944 l 456 944 q 572 635 464 936 l 656 396 q 494 540 583 425 q 420 779 420 659 q 453 944 420 848 m 852 735 l 857 735 l 985 380 q 876 353 985 368 l 857 353 q 730 369 789 353 l 852 735 z "},"":{"ha":1693,"x_min":68,"x_max":1625,"o":"m 846 1557 l 1072 1332 l 1308 1329 l 1392 1329 l 1397 1324 l 1397 1009 l 1625 779 l 1400 551 l 1400 534 l 1397 231 l 1394 228 l 1077 228 l 846 0 l 618 225 l 602 225 l 298 228 l 296 231 l 296 551 l 68 779 l 293 1004 l 296 1234 l 296 1324 l 301 1329 l 616 1329 l 846 1557 m 372 779 q 456 510 372 641 q 846 304 612 304 q 1253 534 1096 304 q 1321 779 1321 655 q 1085 1188 1321 1030 q 846 1253 962 1253 q 461 1053 616 1253 q 372 779 372 923 m 846 1204 q 1128 1096 1006 1204 l 1128 1093 q 1058 1020 1074 1093 q 1112 890 1058 979 q 1134 798 1134 846 q 1063 526 1134 764 l 1058 526 l 909 979 l 933 979 q 968 998 968 979 l 968 1006 l 960 1017 l 833 1012 l 716 1017 q 708 998 708 1007 q 743 979 708 979 l 765 979 q 833 798 770 979 l 743 521 l 738 521 l 589 979 l 613 979 q 651 1001 651 979 l 640 1017 l 510 1012 l 496 1012 l 496 1017 q 846 1204 635 1204 m 1221 974 l 1226 974 q 1272 779 1272 870 q 1069 415 1272 551 l 1063 415 q 1213 857 1204 823 q 1223 944 1223 893 l 1223 960 l 1221 974 m 453 944 l 456 944 q 572 635 464 936 l 656 396 q 494 540 583 425 q 420 779 420 659 q 453 944 420 848 m 852 735 l 857 735 l 985 380 q 876 353 985 368 l 857 353 q 730 369 789 353 l 852 735 z "},"":{"ha":1487,"x_min":68,"x_max":1419,"o":"m 746 1557 l 1419 1166 l 1419 391 q 765 11 1407 380 q 741 0 751 0 l 68 391 l 68 1164 q 537 1438 84 1180 q 746 1557 711 1541 m 269 779 q 353 510 269 641 q 743 304 509 304 q 1150 534 993 304 q 1218 779 1218 655 q 982 1188 1218 1030 q 743 1253 859 1253 q 358 1053 513 1253 q 269 779 269 923 m 743 1204 q 1025 1096 903 1204 l 1025 1093 q 955 1020 970 1093 q 1009 890 955 979 q 1031 798 1031 846 q 960 526 1031 764 l 955 526 l 806 979 l 830 979 q 865 998 865 979 l 865 1006 l 857 1017 l 730 1012 l 613 1017 q 605 998 605 1007 q 640 979 605 979 l 662 979 q 730 798 667 979 l 640 521 l 635 521 l 486 979 l 510 979 q 548 1001 548 979 l 537 1017 l 407 1012 l 393 1012 l 393 1017 q 743 1204 532 1204 m 1118 974 l 1123 974 q 1169 779 1169 870 q 966 415 1169 551 l 960 415 q 1109 857 1101 823 q 1120 944 1120 893 l 1120 960 l 1118 974 m 350 944 l 353 944 q 469 635 361 936 l 553 396 q 391 540 479 425 q 317 779 317 659 q 350 944 317 848 m 749 735 l 754 735 l 882 380 q 773 353 882 368 l 754 353 q 627 369 686 353 l 749 735 z "},"":{"ha":1698,"x_min":68,"x_max":1630,"o":"m 73 1563 l 1625 1563 l 1630 1557 l 1630 5 l 1625 0 l 73 0 l 68 5 l 68 1557 l 73 1563 m 374 779 q 415 510 376 563 q 605 456 456 456 q 854 448 605 450 q 1251 480 1185 448 q 1316 635 1316 524 q 1324 784 1320 635 q 1278 1058 1324 1014 q 1061 1107 1240 1107 l 849 1112 q 461 1085 461 1107 q 393 996 393 1048 q 374 779 380 966 m 754 920 l 757 920 l 998 784 l 998 781 q 754 640 782 649 l 754 920 z "},"":{"ha":1698,"x_min":68,"x_max":1630,"o":"m 298 1563 l 1408 1563 q 1619 1438 1567 1563 q 1630 1343 1630 1401 l 1630 220 q 1557 43 1630 90 q 1416 0 1512 0 l 285 0 q 73 146 118 0 l 68 231 l 68 1340 q 206 1554 68 1508 q 298 1563 238 1563 m 374 779 q 415 510 376 563 q 605 456 456 456 q 854 448 605 450 q 1251 480 1185 448 q 1316 635 1316 524 q 1324 784 1320 635 q 1278 1058 1324 1014 q 1061 1107 1240 1107 l 849 1112 q 461 1085 461 1107 q 393 996 393 1048 q 374 779 380 966 m 754 920 l 757 920 l 998 784 l 998 781 q 754 640 782 649 l 754 920 z "},"":{"ha":1698,"x_min":68,"x_max":1630,"o":"m 849 1563 q 1438 1294 1183 1563 q 1630 784 1630 1061 q 1343 176 1630 429 q 852 0 1113 0 q 231 304 488 0 q 68 781 68 530 q 239 1267 68 1036 q 662 1538 390 1461 q 849 1563 709 1554 m 374 779 q 415 510 376 563 q 605 456 456 456 q 854 448 605 450 q 1251 480 1185 448 q 1316 635 1316 524 q 1324 784 1320 635 q 1278 1058 1324 1014 q 1061 1107 1240 1107 l 849 1112 q 461 1085 461 1107 q 393 996 393 1048 q 374 779 380 966 m 754 920 l 757 920 l 998 784 l 998 781 q 754 640 782 649 l 754 920 z "},"":{"ha":1693,"x_min":68,"x_max":1625,"o":"m 849 1557 q 1009 1394 963 1488 q 1223 1451 1130 1451 l 1240 1451 q 1297 1229 1297 1333 q 1522 1169 1406 1229 q 1462 941 1522 1059 l 1465 941 q 1625 781 1563 881 l 1625 773 q 1462 613 1560 669 q 1522 388 1522 500 q 1297 328 1409 328 q 1237 103 1297 211 q 1009 163 1131 103 q 849 0 951 62 q 681 163 767 35 q 458 103 571 103 q 396 328 396 211 q 174 385 290 328 l 174 401 q 231 613 174 504 l 231 616 q 68 779 130 671 q 182 911 83 821 q 231 947 231 938 q 174 1153 174 1051 l 174 1166 q 374 1226 271 1226 l 382 1226 q 399 1253 399 1226 q 458 1451 399 1353 l 472 1451 q 681 1394 570 1451 l 684 1394 q 849 1557 755 1510 m 372 776 q 412 507 374 560 q 602 453 453 453 q 852 445 602 448 q 1248 477 1182 445 q 1313 632 1313 522 q 1321 781 1318 632 q 1275 1055 1321 1011 q 1058 1104 1238 1104 l 846 1109 q 458 1082 458 1104 q 391 993 391 1045 q 372 776 377 963 m 751 917 l 754 917 l 996 781 l 996 779 q 751 637 779 646 l 751 917 z "},"":{"ha":1693,"x_min":68,"x_max":1625,"o":"m 846 1557 l 1072 1332 l 1308 1329 l 1392 1329 l 1397 1324 l 1397 1009 l 1625 779 l 1400 551 l 1400 534 l 1397 231 l 1394 228 l 1077 228 l 846 0 l 618 225 l 602 225 l 298 228 l 296 231 l 296 551 l 68 779 l 293 1004 l 296 1234 l 296 1324 l 301 1329 l 616 1329 l 846 1557 m 372 776 q 412 507 374 560 q 602 453 453 453 q 852 445 602 448 q 1248 477 1182 445 q 1313 632 1313 522 q 1321 781 1318 632 q 1275 1055 1321 1011 q 1058 1104 1238 1104 l 846 1109 q 458 1082 458 1104 q 391 993 391 1045 q 372 776 377 963 m 751 917 l 754 917 l 996 781 l 996 779 q 751 637 779 646 l 751 917 z "},"":{"ha":1487,"x_min":68,"x_max":1419,"o":"m 746 1557 l 1419 1166 l 1419 391 q 765 11 1407 380 q 741 0 751 0 l 68 391 l 68 1164 q 537 1438 84 1180 q 746 1557 711 1541 m 269 776 q 309 507 271 560 q 499 453 350 453 q 749 445 499 448 q 1145 477 1079 445 q 1210 632 1210 522 q 1218 781 1215 632 q 1172 1055 1218 1011 q 955 1104 1135 1104 l 743 1109 q 355 1082 355 1104 q 288 993 288 1045 q 269 776 274 963 m 648 917 l 651 917 l 892 781 l 892 779 q 648 637 676 646 l 648 917 z "},"":{"ha":685,"x_min":0,"x_max":0,"o":""},"":{"ha":589,"x_min":0,"x_max":0,"o":""},"":{"ha":349,"x_min":0,"x_max":0,"o":""},"":{"ha":694,"x_min":0,"x_max":0,"o":""},"":{"ha":694,"x_min":0,"x_max":0,"o":""},"":{"ha":694,"x_min":0,"x_max":0,"o":""},"":{"ha":694,"x_min":0,"x_max":0,"o":""},"":{"ha":694,"x_min":0,"x_max":0,"o":""},"":{"ha":694,"x_min":0,"x_max":0,"o":""},"":{"ha":694,"x_min":0,"x_max":0,"o":""},"":{"ha":694,"x_min":0,"x_max":0,"o":""},"":{"ha":694,"x_min":0,"x_max":0,"o":""},"":{"ha":751,"x_min":0,"x_max":0,"o":""},"":{"ha":1389,"x_min":0,"x_max":0,"o":""},"":{"ha":378,"x_min":0,"x_max":0,"o":""},"":{"ha":378,"x_min":0,"x_max":0,"o":""},"":{"ha":378,"x_min":0,"x_max":0,"o":""},"":{"ha":617,"x_min":0,"x_max":0,"o":""},"":{"ha":617,"x_min":0,"x_max":0,"o":""},"":{"ha":617,"x_min":0,"x_max":0,"o":""},"":{"ha":688,"x_min":0,"x_max":0,"o":""},"":{"ha":688,"x_min":0,"x_max":0,"o":""},"":{"ha":694,"x_min":0,"x_max":0,"o":""},"":{"ha":1389,"x_min":0,"x_max":0,"o":""},"":{"ha":428,"x_min":0,"x_max":0,"o":""},"":{"ha":428,"x_min":0,"x_max":0,"o":""},"":{"ha":232,"x_min":0,"x_max":0,"o":""},"":{"ha":688,"x_min":0,"x_max":0,"o":""},"":{"ha":688,"x_min":0,"x_max":0,"o":""},"":{"ha":1375,"x_min":0,"x_max":0,"o":""},"":{"ha":688,"x_min":0,"x_max":0,"o":""},"":{"ha":1540,"x_min":0,"x_max":0,"o":""},"":{"ha":1015,"x_min":0,"x_max":0,"o":""},"":{"ha":688,"x_min":0,"x_max":0,"o":""},"":{"ha":733,"x_min":0,"x_max":0,"o":""},"":{"ha":1027,"x_min":0,"x_max":0,"o":""},"":{"ha":818,"x_min":0,"x_max":0,"o":""},"":{"ha":688,"x_min":0,"x_max":0,"o":""},"":{"ha":688,"x_min":0,"x_max":0,"o":""},"":{"ha":688,"x_min":0,"x_max":0,"o":""},"":{"ha":451,"x_min":0,"x_max":0,"o":""},"":{"ha":688,"x_min":0,"x_max":0,"o":""},"":{"ha":688,"x_min":0,"x_max":0,"o":""},"":{"ha":688,"x_min":0,"x_max":0,"o":""},"":{"ha":728,"x_min":0,"x_max":0,"o":""},"":{"ha":733,"x_min":0,"x_max":0,"o":""}}}
